<svg width="203" height="73" viewBox="0 0 203 73" fill="none" xmlns="http://www.w3.org/2000/svg">
<path d="M200.749 54.0758C200.289 54.0758 199.766 53.8864 199.393 54.1073C198.635 54.5491 197.764 54.4702 197.055 54.975C196.508 55.3537 195.911 55.2906 195.351 55.6692C194.593 56.1741 194.12 55.7008 193.722 54.3755C193.536 53.7444 192.988 53.4447 192.479 53.6971C192.267 53.8075 192.081 54.0284 191.869 54.0284C190.265 54.06 188.661 54.0915 187.069 54.0442C186.484 54.0284 186.036 53.2238 185.365 53.4447C185.178 53.0503 184.992 52.6401 184.78 52.2614C184.594 51.9301 184.233 51.5988 184.009 51.8355C183.027 52.8609 181.721 51.8512 180.739 52.7505C180.689 52.7978 180.39 52.4665 180.241 52.2614C179.992 51.9143 180.303 51.7723 180.428 51.583C180.627 51.2517 180.913 51.157 181.236 51.1413C181.684 51.1097 182.144 51.0939 182.592 51.0151C182.753 50.9835 182.728 50.7942 182.592 50.6049C182.405 50.3524 182.43 50.1473 182.703 50.0053C182.84 49.9422 183.089 49.8791 183.089 49.8002C183.089 49.4374 182.853 49.4847 182.654 49.4689C181.982 49.39 181.335 49.4532 180.689 48.9325C179.868 48.2699 178.923 47.7966 177.953 48.7274C177.804 48.8694 177.517 48.8063 177.281 48.8063C176.523 48.8063 175.752 48.8063 174.993 48.8063C174.384 48.8063 173.774 48.8379 173.277 48.2857C172.431 48.3488 171.747 47.5442 170.876 47.6388C169.969 47.7493 169.048 47.6862 168.128 47.7019C167.083 48.5381 165.914 48.1279 164.807 48.2383C164.161 48.3015 163.601 48.2383 163.191 47.5126C162.942 47.0709 162.556 47.0551 162.159 47.0866C161.872 47.1024 161.586 47.0709 161.3 47.0551C161.313 46.7396 161.475 46.566 161.698 46.566C165.131 46.5345 168.563 46.5187 171.996 46.5029C172.207 46.5029 172.468 46.5976 172.63 46.7553C172.953 47.0709 173.165 46.8815 173.376 46.5818C173.637 46.2031 173.886 45.9349 174.296 46.3609C174.446 46.5187 174.732 46.4713 174.956 46.4871C176.224 46.5976 177.542 46.2505 178.749 47.0393C180.278 47.0551 181.808 47.0866 183.325 47.0866C183.549 47.0866 183.81 47.0709 183.972 46.9131C184.37 46.5187 184.818 46.5187 185.278 46.5345C186.111 46.566 186.77 46.282 186.994 45.1145C187.031 44.941 187.181 44.8148 187.28 44.657C187.417 44.4204 187.417 44.4046 188.001 44.6097C188.225 44.6886 188.437 44.7832 188.636 44.5624C188.922 44.231 189.121 44.3415 189.382 44.657C189.705 45.0514 189.481 45.2723 189.307 45.5721C189.233 45.7141 189.208 45.9665 189.245 46.1085C189.382 46.5187 189.606 46.282 189.755 46.1243C189.966 45.8876 190.165 45.9665 190.389 46.0296L192.081 46.1243C192.379 45.8403 192.628 46.0454 192.914 46.2189C193.187 46.3767 193.66 46.0454 193.747 45.6194C193.834 45.225 193.747 44.8463 193.337 44.7832C193.262 44.7675 193.187 44.7359 193.125 44.6886C193.063 44.6412 193.001 44.5624 192.964 44.4835C192.951 44.4519 193.038 44.3099 193.088 44.3099C193.685 44.2468 194.282 44.1995 194.879 44.1206C195.14 44.0891 195.277 43.4738 195.625 43.884C196.135 44.4835 196.831 43.8682 197.354 44.3415C197.466 44.4519 197.64 44.657 197.714 44.6097C198.187 44.3415 198.635 44.0259 199.095 43.7262C199.443 44.2153 199.717 43.8208 200.065 43.6789C200.413 43.5211 200.823 43.6473 201.196 43.5842C201.308 43.5684 201.408 43.3791 201.507 43.2844C201.445 43.2213 201.395 43.1267 201.333 43.1109C200.687 42.8585 199.965 43.2371 199.343 42.7638C198.709 42.2589 198 42.606 197.341 42.4325C197.192 42.4009 196.993 42.4798 196.893 42.3694C196.16 41.5805 195.289 41.9119 194.468 41.8961C191.795 41.8488 189.121 41.8488 186.459 41.8172C186.285 41.8172 186.012 41.7541 186.223 41.3123C186.372 40.9968 186.459 40.6182 186.484 40.2395C186.521 39.782 186.671 39.5453 187.031 39.5296C187.641 39.5138 188.25 39.5138 188.86 39.4822C188.971 39.4665 189.183 39.2614 189.17 39.1667C189.146 38.9143 189.046 38.6618 188.959 38.4252C188.934 38.3779 188.847 38.3621 188.772 38.3463C188.586 37.589 188.064 37.731 187.678 37.8888C187.33 38.0308 187.081 38.3779 186.733 37.8572C186.546 37.5732 186.285 37.3366 186.012 37.1946C185.551 36.958 185.551 36.8475 186.012 36.6109C186.273 36.4689 186.497 36.1849 186.733 35.964L187.939 35.0647C188.387 34.7808 188.797 34.8754 189.233 35.1594C189.494 35.3172 189.892 35.5223 190.078 35.3803C190.762 34.8912 191.533 35.0016 192.23 34.6703C192.317 34.6388 192.379 34.339 192.367 34.1812C192.354 34.0235 192.242 33.771 192.143 33.7553C191.695 33.6606 191.247 33.6448 190.8 33.5502C190.65 33.5186 190.675 33.3135 190.824 33.1242C190.974 32.9507 190.986 32.7771 190.862 32.6824C190.277 32.2407 189.469 32.9507 188.959 32.0829C188.735 32.3354 188.499 32.5878 188.275 32.856C188.026 33.14 187.715 33.1084 187.417 33.0926C187.007 33.0611 187.081 32.4773 186.907 32.3354C186.285 31.7989 187.118 30.8839 186.521 30.3633C186.41 30.2686 186.484 29.8111 186.497 29.5271C186.497 29.4482 186.571 29.3535 186.621 29.2904C186.72 29.1642 186.832 29.2273 186.907 29.4798C186.969 29.6533 186.969 29.9215 187.056 29.9846C187.38 30.1897 187.355 29.7953 187.417 29.5744C187.529 29.1169 187.827 29.0222 188.126 29.0222C188.959 29.0065 189.805 29.038 190.638 29.0222C190.899 29.0222 191.086 28.612 191.061 28.1545C191.036 27.7443 190.986 27.3815 190.601 27.3026C190.352 27.2552 190.228 27.0817 190.178 26.7346C190.128 26.356 190.302 26.1035 190.787 26.1666C191.596 26.2613 192.479 25.7249 193.175 26.6715C194.232 26.7346 195.289 26.8608 196.247 26.1035C196.458 25.93 196.533 25.6618 196.483 25.3778C196.458 25.2358 196.284 25.0307 196.185 25.0465C195.712 25.0623 195.326 24.9203 194.928 24.5416C194.531 24.163 193.996 25.2989 193.548 24.4785C192.777 24.7941 191.919 24.7941 191.198 25.1727C189.854 25.8984 188.524 25.5356 187.181 25.4567C187.081 25.4567 186.957 24.9992 186.919 24.7467C186.882 24.4785 186.832 24.163 187.081 23.9579L188.698 23.4846C189.021 24.021 189.506 22.9324 189.805 23.6581C190.277 23.4846 190.762 23.311 191.235 23.1217C191.297 23.0902 191.347 22.9955 191.397 22.9324C191.334 22.8693 191.285 22.7746 191.222 22.7431C191.086 22.68 190.936 22.6326 190.787 22.6326C190.352 22.6169 190.016 22.6169 190.402 21.8596C190.563 21.5283 190.19 21.5125 190.016 21.5125C187.802 21.4967 185.589 21.4967 183.375 21.4809C182.766 21.4809 182.156 21.4967 181.547 21.4967C180.938 21.4809 181 21.1654 181.273 20.6448C181.335 20.5343 181.062 20.1872 181.012 19.919C180.801 18.9251 180.291 18.5149 179.507 18.5622C179.047 18.578 178.587 18.6253 178.139 18.578C177.107 18.4676 176.025 18.8778 175.043 18.0732C174.943 17.9943 174.632 18.2309 174.458 18.3887C174.234 18.578 174.023 18.5622 173.824 18.4202C173.575 18.2467 173.637 17.9154 173.737 17.663C173.986 17.0003 174.247 16.3377 174.508 15.6909C173.625 15.5489 173.588 15.5015 173.923 14.4287C174.073 13.9396 173.811 14.0185 173.65 13.9081C173.14 13.5452 173.127 13.4979 173.326 12.8668C173.376 12.7091 173.451 12.5513 173.525 12.4093C173.389 12.362 173.239 12.22 173.115 12.2673C172.904 12.3304 172.593 12.6775 172.543 12.6144C171.859 11.7467 171.312 12.6459 170.715 12.8195C170.516 12.8668 170.242 13.2455 170.168 13.1666C169.434 12.4882 168.389 13.0246 167.705 12.2042C167.805 11.4311 168.203 11.0367 168.787 11.0052C169.384 10.9736 169.944 11.0052 170.541 11.3523C171.623 11.9833 172.021 11.6836 172.493 10.4845C172.618 10.169 172.593 9.97967 172.431 9.77457C172.157 9.42748 171.871 9.04884 171.473 9.45904C171.15 9.77457 170.74 10.0586 170.441 9.8219C169.683 9.22239 168.874 9.28549 168.041 9.25394C167.954 9.25394 167.879 9.03307 167.805 8.92263C167.867 8.85952 167.917 8.74908 167.979 8.73331C168.576 8.6702 169.173 8.63865 169.77 8.57554C169.819 8.57554 169.869 8.4651 169.931 8.40199C169.869 8.33889 169.807 8.22845 169.745 8.22845C168.862 8.18112 167.954 7.83403 167.108 8.51243C167.046 8.57554 166.847 8.4651 166.76 8.37044C166.399 7.97602 166.088 8.10224 165.753 8.44932C165.467 8.74908 165.118 8.71753 165.019 8.29156C164.87 7.64471 164.745 7.64471 164.285 7.91291C163.638 8.29156 163.589 8.21267 163.091 7.34495C162.892 6.99786 162.743 7.15563 162.581 7.32917C162.258 7.67626 161.997 8.26 161.487 7.64471C161.412 7.55005 161.164 7.53427 161.064 7.62893C160.007 8.52821 158.863 7.94447 157.756 7.94447C157.246 7.28184 156.823 7.7867 156.351 8.08646C156.015 8.29156 155.605 7.96024 155.294 7.43961C155.07 7.06097 154.846 6.50878 154.547 6.4299C153.901 6.25635 153.204 6.44567 152.607 5.87771C152.52 5.79883 152.222 6.08281 152.01 6.16169C151.737 6.25635 151.463 6.33524 151.19 6.41412C151.152 6.71388 151.015 6.93475 150.792 6.95053C149.573 7.09252 148.391 6.98208 147.347 5.98815C146.961 5.62528 146.663 5.90926 146.563 6.50878C146.514 6.82432 146.302 6.99786 146.053 6.9032C145.705 6.76121 145.369 6.55611 145.034 6.35101C144.835 6.24058 144.81 6.05126 144.959 5.94082C145.22 5.7515 145.494 5.60951 145.755 5.45174C146.016 5.29397 146.277 5.12043 146.538 4.94688C146.315 4.58402 146.004 4.67868 145.705 4.6629C145.444 4.64712 145.344 4.44202 145.208 4.1896C144.76 3.35343 144.573 3.3061 144.35 4.00027C143.927 5.23086 143.056 5.48329 142.211 5.79883C142.049 5.86193 141.788 5.64106 141.614 5.49907C141.464 5.37285 141.688 4.868 141.987 4.64712C142.111 4.55246 142.273 4.50513 142.385 4.39469C142.509 4.26848 142.459 3.74785 142.322 3.65319C141.439 3.05367 140.519 2.73813 139.524 3.03789C139.425 3.06945 139.363 3.32187 139.313 3.47964C139.238 3.70052 139.3 3.90561 139.487 3.93717C139.86 4.01605 140.233 4.06338 140.606 4.07916C140.867 4.09494 141.079 4.23693 141.066 4.53668C141.054 4.78911 140.942 5.08887 140.805 5.27819C140.246 5.95659 139.586 6.35101 138.79 6.38257C138.057 6.41412 137.286 6.25635 136.627 6.9032C136.552 6.96631 136.353 6.84009 136.216 6.79276C136.253 6.635 136.266 6.46145 136.341 6.31946C136.577 5.89349 136.539 5.15198 137.174 5.12043C137.348 5.10465 137.522 4.77334 137.696 4.58402C137.746 4.52091 137.82 4.36314 137.82 4.34736C137.721 4.23693 137.621 4.09494 137.497 4.04761C136.925 3.7794 136.577 4.48936 136.092 4.58402C136.079 4.04761 136.129 3.43231 135.445 3.49542C135.296 3.51119 135.084 3.54275 135.01 3.44809C134.599 2.92745 134.264 2.97478 133.94 3.55853C133.729 3.93717 133.505 3.95294 133.219 3.63741C132.933 3.32187 132.684 3.59008 132.423 3.76362C131.801 4.17382 131.179 4.22115 130.533 3.71629C130.01 3.3061 129.438 2.84857 128.767 3.41653C128.692 3.47964 128.493 3.33765 128.381 3.24299C127.759 2.70658 127.075 2.72236 126.478 3.17988C125.533 3.90561 124.352 2.94323 123.481 3.95294C123.183 3.68474 122.897 3.38498 122.797 2.91168C122.648 2.8959 122.511 2.8959 122.362 2.86435C122.25 2.84857 121.181 2.88012 121.019 2.88012C120.795 2.88012 120.559 2.88012 120.347 2.81702C120.136 2.76969 120.111 2.61192 120.223 2.4226C120.472 2.02818 120.459 1.8073 119.999 1.75997C119.352 1.68109 118.905 2.31216 118.333 2.50148C118.42 2.73813 118.619 3.05367 118.569 3.21144C118.432 3.60586 117.574 3.54275 117.387 3.17988C117.226 2.84857 117.4 3.29032 117.524 2.94323C117.624 2.65925 117.698 2.39104 117.412 2.34371C116.965 2.28061 116.504 2.32794 116.044 2.32794C115.659 2.32794 115.286 2.32794 114.9 2.28061C114.465 2.23328 114.017 2.39104 113.594 1.99662C113.171 1.61798 112.848 2.51726 112.388 2.28061C112.326 2.24905 112.226 2.29638 112.164 2.24905C111.94 2.12284 111.803 1.91774 111.828 1.60221C111.903 0.529385 111.915 0.529385 111.381 0.529385C110.846 0.529385 110.199 0.75026 109.814 0.434724C109.08 -0.149016 108.346 0.0560817 107.612 0.00875138C107.252 -0.00702539 106.829 -0.0228022 106.518 0.166519C106.12 0.418947 106.369 1.03424 106.307 1.49177C106.244 1.90196 106.108 2.2175 105.884 2.46993C105.797 2.56459 105.66 2.61192 105.535 2.64347C105.511 2.64347 105.424 2.50148 105.424 2.4226C105.399 2.23328 105.411 2.04396 105.399 1.83886C105.312 0.403171 105.274 0.371617 104.279 1.00269C103.894 1.23934 103.508 1.47599 103.123 1.69687C103.11 1.77575 103.11 1.88619 103.073 1.93352C102.501 2.80124 102.451 2.84857 101.916 2.15439C101.394 1.61798 100.946 1.64954 100.424 1.91774C100.151 2.05973 99.7526 2.13862 99.6282 2.40682C99.3173 3.13255 99.0064 3.66896 98.2726 3.55853C98.198 3.54275 98.0363 3.81095 98.0239 3.96872C97.9617 4.47358 97.8 4.67868 97.4891 4.26848C97.0414 3.70052 96.6559 3.14833 95.9843 3.90561C95.7978 4.11071 95.2506 4.1896 95.1386 4.03183C94.6287 3.27454 94.1064 3.7794 93.7706 4.07916C92.9996 4.77334 92.1166 4.868 91.4077 4.47358C90.6615 4.06338 89.9527 4.09494 89.2065 4.06338C88.5971 4.03183 87.9877 4.07916 87.3783 4.03183C87.1545 4.01605 87.0177 3.79518 86.9928 3.49542C86.5451 3.47964 86.0103 3.27454 85.687 3.52697C84.8413 4.15804 83.9459 3.9845 83.0629 4.07916C82.7768 4.11071 82.5157 4.33159 82.2421 4.47358C82.0307 4.58402 81.7944 4.6629 81.6327 4.41047C81.5954 4.34736 81.757 4.12649 81.7819 3.95294C81.8565 3.59008 81.9187 3.22721 81.9436 2.86435C81.956 2.72236 81.8068 2.56459 81.7322 2.4226C81.6824 2.50148 81.6078 2.56459 81.5954 2.64347C81.3964 3.82673 80.7621 4.12649 79.904 4.03183C79.4563 3.9845 79.0086 4.04761 78.5982 3.66896C78.4614 3.54275 78.138 3.54275 77.9888 3.66896C77.5784 4.00027 77.0561 4.26848 76.7203 3.90561C76.198 3.33765 75.8871 4.20537 75.5513 4.01605C75.0538 3.71629 74.6434 3.85828 74.1584 4.01605C73.6609 4.17382 73.1137 4.03183 72.5914 3.96872C72.38 3.93717 72.4049 3.7794 72.5417 3.55853C72.666 3.35343 72.8153 3.02211 72.7655 2.81702C72.5914 2.15439 72.3427 2.75391 72.1188 2.81702C71.4721 3.00634 70.7259 2.6908 70.1787 3.43231C69.5196 3.3692 68.8356 3.73207 68.1889 3.17988C67.965 2.99056 67.6293 2.92745 67.3432 2.91168C66.6592 2.88012 65.9752 2.91168 65.2912 2.8959C64.2341 2.88012 63.2765 3.73207 62.1945 3.52697C62.1324 3.51119 62.0578 3.60586 62.008 3.66896C61.9707 3.71629 61.9334 3.81095 61.9458 3.84251C61.9831 3.92139 62.0453 4.01605 62.1075 4.03183C62.294 4.09494 62.6298 4.09494 62.5676 4.39469C62.5055 4.69445 62.2567 5.18353 61.9583 4.99421C61.6474 4.78911 61.4857 4.69445 61.2121 5.05732C61.038 5.29397 60.8887 5.76727 60.5654 5.57795C60.441 5.49907 60.4535 5.0731 60.4161 4.78911C60.4037 4.69445 60.4535 4.56824 60.4161 4.50513C60.3415 4.39469 60.1799 4.22115 60.1425 4.2527C59.8192 4.50513 59.4461 4.85222 59.1352 4.39469C58.7621 3.84251 58.5258 4.82067 58.2149 4.44202C57.8915 4.04761 57.7174 4.37892 57.4936 4.63135C57.1827 5.00999 57.2449 5.49907 57.1702 5.97237C57.1205 6.27213 56.8718 6.39834 56.6355 6.31946C56.5111 6.28791 56.3867 6.11436 56.337 5.97237C56.2873 5.79883 56.3246 5.59373 56.3121 5.40441C56.2624 4.77334 56.2375 4.85222 55.454 4.39469C55.0187 4.12649 54.6208 3.88984 54.1979 4.23693C53.4891 4.82067 52.805 4.91533 52.0837 4.30003C51.5365 4.44202 50.9893 4.89955 50.4794 4.14227C50.4297 4.07916 50.1561 4.12649 50.069 4.23693C49.6959 4.69445 49.2482 4.6629 48.7881 4.64712C48.1787 4.63135 47.5693 4.64712 46.9599 4.63135C46.5247 4.63135 46.2511 4.83644 46.1764 5.42018C46.1516 5.67261 46.0023 5.73572 45.8655 5.60951C45.6044 5.38863 45.3805 5.12043 45.281 5.8146C45.194 6.44567 44.7338 6.91898 44.7836 7.66049C44.8084 8.0549 44.4353 8.22845 44.0996 8.00758C43.8384 7.84981 43.5772 7.3765 43.3161 7.61316C42.8683 8.03913 42.346 8.05491 41.8486 8.26C41.7864 8.29156 41.7491 8.38622 41.7118 8.44932C41.8361 8.54399 41.9729 8.62287 42.0973 8.73331C42.2092 8.82797 42.4206 8.92263 42.4206 9.01729C42.4206 9.41171 41.6123 9.99545 41.3635 9.79035C41.0651 9.5537 40.7915 9.25394 40.7044 8.78064C40.4557 8.93841 40.2194 9.1435 39.9582 9.22239C39.6598 9.31705 39.411 9.17506 39.3364 8.74908C38.5653 9.17506 38.0181 10.3583 36.9735 9.91656C36.4014 10.737 35.5309 10.2637 34.8717 10.6896C34.138 11.1629 33.4167 11.6362 32.6829 12.1095C32.4218 12.2831 32.1482 12.4408 31.8994 12.6459C31.7626 12.7564 31.6258 12.7722 31.5388 12.5355C31.1532 11.4154 29.8101 11.9833 29.5116 10.6423C29.4495 10.3425 28.5789 10.3583 28.5167 10.6896C28.3053 11.6362 27.7084 11.5889 27.1611 11.8098C27.0741 11.8413 27.0865 12.2831 27.0492 12.5355C27.8452 12.7091 27.9322 14.3183 28.9644 14.0343C29.151 13.987 29.1883 14.2078 29.0888 14.4129C28.9893 14.6023 28.7281 14.8389 29.0764 15.0598C29.1385 15.0913 29.2256 15.1071 29.2878 15.1071C29.8847 15.044 30.5563 15.3753 31.0413 14.8231C31.7129 14.0659 32.0984 15.328 32.658 15.0913C32.7948 15.0282 32.9068 14.8705 33.0311 14.76C33.1679 14.6338 33.3047 14.6969 33.3296 14.9336C33.3545 15.0913 33.3172 15.4227 33.2426 15.4384C32.4715 15.7224 31.6383 15.754 30.9045 16.2431C29.1385 16.0537 27.671 17.7892 25.8802 17.4894C25.818 17.4736 25.7558 17.5999 25.6812 17.6156C24.9599 17.805 24.4003 19.1775 23.4924 18.1205C23.1691 18.3414 22.6467 18.4676 22.5472 18.8147C22.1244 20.1399 21.0922 19.9506 20.3336 20.2977C19.5998 20.629 18.6919 20.0768 17.9706 20.8183C17.4234 19.8402 16.9384 20.7237 16.4161 20.8656C15.9684 20.9919 15.2844 19.9664 15.5455 19.5404C16.0803 18.6727 15.8813 17.7103 15.9808 16.7795C16.0057 16.4955 16.1674 16.3219 16.3912 16.2746C16.4534 15.8802 16.6524 15.7066 16.9757 15.6909C17.3239 15.6909 17.6846 15.7066 17.7841 15.1387C18.2815 14.9967 18.2194 14.5076 18.1945 14.0343C18.1696 13.5768 17.9582 13.3717 17.6224 13.3559C17.1996 13.3243 16.8762 13.5926 16.6524 13.987C16.441 14.3498 16.3166 14.8231 16.1176 15.2018C15.9435 15.5173 15.6575 15.7855 15.3465 15.612C15.1973 15.5331 15.1103 15.186 15.0356 14.9494C14.9859 14.7758 15.0356 14.5392 14.9735 14.3814C14.9113 14.2394 14.7745 14.1132 14.6501 14.0501C14.3889 13.9396 14.1775 14.1447 14.1526 14.4287C14.0905 15.1071 14.1526 15.8329 13.3194 15.7066C13.1826 15.6909 13.0209 15.7697 12.909 15.8802C11.5659 16.9846 10.1854 17.4105 8.66819 16.3693C8.4692 16.2273 8.08367 16.4166 7.81007 16.5428C7.61109 16.6375 7.43698 16.8741 7.27531 17.0792C6.95196 17.4579 6.5913 17.5367 6.29283 17.1108C5.7705 16.3693 5.28548 15.9906 4.58904 16.8426C4.34031 17.1581 3.94235 17.3001 3.59413 17.4736C2.94743 17.7734 2.66139 18.3256 2.63652 19.2091C2.62409 19.8402 2.7982 20.5501 2.35048 21.1339C2.16394 21.3705 2.51216 21.5598 2.62409 21.7491C2.7982 22.0331 2.98474 21.97 3.15885 21.7491C3.38271 21.4809 3.55682 21.1812 3.58169 20.771C3.58169 20.6921 3.71849 20.5659 3.71849 20.5659C3.81798 20.6605 3.96722 20.7552 3.97966 20.8656C4.12889 22.4275 4.06671 22.538 2.95987 23.311C2.49972 23.6266 2.05201 23.9737 1.61674 24.3365C1.50481 24.4312 1.45506 24.6363 1.36801 24.7783C1.50481 24.8414 1.64161 24.9676 1.77841 24.9676C2.1515 24.9992 2.53703 24.9834 2.92256 24.9992C3.43245 25.0307 3.43245 25.0465 3.56925 26.1666C3.69362 26.2455 3.86773 26.2929 3.8926 26.4033C3.97966 26.7504 3.90504 27.2237 4.06671 27.4919C4.37762 28.0441 4.45224 28.4385 3.95478 28.8802C3.65631 29.1485 3.42002 29.5586 3.15885 29.89C3.74336 30.9154 3.09667 30.7419 2.62409 30.8523C2.35048 30.9154 2.11419 31.231 1.82815 31.3414C1.26852 31.5623 0.820804 32.1776 0.17411 32.0672C0.124364 32.0514 0.0621821 32.1776 0 32.2407C0.0994914 32.3511 0.186546 32.5405 0.286038 32.5562C1.26852 32.5878 2.25099 32.572 3.23347 32.6036C3.29565 32.6036 3.44489 32.9033 3.42002 32.9349C3.19616 33.3135 2.81063 33.6291 2.72358 34.055C2.57434 34.7808 2.27587 34.9543 1.75354 34.8912C1.52968 34.8596 1.29339 34.8754 1.09441 34.9701C0.721313 35.1594 1.03222 35.3803 1.10684 35.5854C1.16902 35.7431 1.21877 35.9167 1.28095 36.0745C1.50481 36.248 1.71623 36.5162 1.95252 36.5478C2.62409 36.6266 2.66139 37.1788 2.66139 37.7941C3.43245 37.9046 3.94235 37.2262 4.51442 36.8791C5.16112 36.5004 5.65857 36.4846 6.11872 37.2104C6.36745 37.6048 6.6908 37.7941 7.11363 37.7626C7.56135 37.731 8.02149 37.8099 8.48164 37.8099C9.00397 37.8099 9.05372 38.2201 9.10346 38.7565C9.16564 39.3718 9.26514 39.4665 9.53874 39.214C10.1854 38.6145 11.0933 39.3718 11.6654 38.5041C11.7151 38.6776 11.8146 38.8354 11.8146 39.0089C11.8146 39.3402 11.6654 39.498 11.3918 39.5453C11.255 39.5769 11.143 39.7189 11.0062 39.8135C11.1306 39.9082 11.2301 40.0502 11.3669 40.0818C11.5907 40.1291 11.827 40.1449 12.0509 40.1133C12.71 40.0186 13.1577 40.2869 13.4189 41.123C13.5184 41.4386 14.0407 41.2177 14.1029 40.8075C14.1402 40.5235 14.0905 40.2237 14.1402 39.9398C14.1651 39.8135 14.3268 39.7347 14.4263 39.6558C14.4387 39.64 14.5382 39.782 14.5755 39.8609C15.0605 40.9021 15.558 41.0284 15.9186 40.1291C16.2295 39.3402 16.6026 38.9616 17.2991 38.9616C17.896 38.9458 18.5925 39.2614 19.065 38.7407C19.749 37.9992 20.1719 39.072 20.7315 38.9458C20.9429 38.8985 21.1668 38.8512 21.3782 38.7723C21.5896 38.6934 21.7762 38.5356 21.9876 38.4725C22.2736 38.3779 22.4353 39.0563 22.7587 38.725C23.0074 38.4725 23.3432 38.5041 23.5795 38.3305C24.4251 37.7626 25.333 37.8415 26.2284 37.8257C26.6139 37.8099 26.987 37.7941 27.3726 37.8099C27.6586 37.8257 28.1436 37.6679 28.1809 38.0466C28.2307 38.4567 27.7581 38.3148 27.5094 38.3936C26.9373 38.5672 26.4771 39.0878 25.8056 39.0247C25.1464 38.9616 24.5868 39.64 23.8655 39.5769C23.3183 39.5296 23.2437 39.8451 23.5795 40.7286C23.7287 41.1388 23.5546 41.2492 23.368 41.2808C22.9949 41.3439 22.6094 41.3281 22.2363 41.3755C22.1741 41.3755 22.112 41.4859 22.0498 41.5332C22.1368 41.6437 22.2239 41.8014 22.3234 41.833C22.5472 41.8803 22.7711 41.8488 23.0074 41.8803C23.0696 41.8961 23.1815 42.0381 23.1691 42.0696C23.1193 42.1958 23.0447 42.4009 22.9576 42.4167C22.6592 42.464 22.3483 42.4483 22.0498 42.4325C21.7016 42.4167 21.5648 42.1958 21.4901 41.7383C21.2787 40.492 20.9802 40.1449 20.2341 40.1291C19.6993 40.1133 19.1645 40.1291 18.6298 40.1291L16.528 40.9337C16.0057 41.2808 16.0057 42.0538 15.6948 42.5745C15.5828 42.748 15.6201 42.9373 15.8316 42.9689C16.2047 43.032 16.5902 42.9847 16.9633 43.032C17.1871 43.0636 17.3364 43.2844 17.3364 43.6C16.5404 44.0259 15.8316 44.657 14.8988 44.8148C14.0158 44.9726 13.1826 45.4616 12.2499 45.3354C11.8146 45.2881 11.3545 45.2408 10.9316 45.6194C10.4839 46.0296 10.173 45.1461 9.70041 45.3354C9.41437 45.4459 9.04128 45.3196 8.82986 45.509C8.28266 46.0296 7.66084 45.8718 7.06389 45.9192C6.60374 45.9665 6.14359 45.998 5.69588 45.9192C5.11137 45.8245 4.78802 46.5187 4.21595 46.5502C3.56925 46.5818 3.56925 46.7396 3.60656 47.7335C3.64387 48.759 4.21595 49.2954 5.07406 49.0114C5.84512 48.759 6.554 48.6485 7.15094 49.5005C7.28774 49.7056 7.53647 49.9265 7.72302 49.9107C8.54382 49.8476 9.3895 50.242 10.173 49.6109C10.5834 49.2796 11.0435 49.39 11.4539 49.7371C11.5783 49.8318 11.7773 49.9738 11.8643 49.9107C12.5608 49.3743 13.0956 49.8949 13.6552 50.2735C13.991 50.4944 14.3268 50.6995 14.6501 50.9204C15.3092 51.3779 16.13 50.9204 16.7519 51.5672C17.2618 50.952 17.896 51.0939 18.493 51.1886C19.177 51.299 19.6744 50.9835 20.0724 50.3209C20.2465 50.0369 20.4455 50.1473 20.632 50.3367C20.9056 50.6206 21.1917 50.6206 21.4528 50.3367C21.6891 50.1 21.8881 49.8002 22.1368 49.5794C22.1617 49.5636 22.1741 49.5478 22.1866 49.532C22.1866 49.5636 22.199 49.6267 22.2985 49.674C22.3483 49.7056 22.398 49.8634 22.3731 49.9107C22.2363 50.3209 22.0747 50.7311 21.9254 51.1413C21.7016 51.3464 21.4404 51.5357 21.2538 51.7881C20.8186 52.3561 21.0176 53.0818 21.0922 53.7129C21.1419 54.0915 21.5896 53.9969 21.8757 54.0758C22.0871 54.1231 22.2861 54.2808 22.4726 54.4386C22.597 54.5333 22.7462 54.7226 22.7462 54.8646C22.7462 55.2117 22.4975 55.1959 22.2861 55.2117C21.9876 55.2117 21.6269 55.2275 21.5399 55.6534C21.4528 56.0478 21.2787 56.3318 21.0673 56.6C20.831 56.8998 20.5574 56.9629 20.2341 56.9313C19.8858 56.8998 19.6993 56.7105 19.6371 56.2529C19.5874 55.9059 19.3884 55.8743 19.1894 56.111C19.0277 56.3161 18.8785 56.5527 18.6919 56.6947C18.5178 56.8209 18.2691 56.9156 18.0826 56.8525C17.8338 56.7736 17.6473 56.2845 17.3364 56.6947C17.0876 57.026 16.5653 56.8525 16.4534 57.4678C16.4285 57.6413 16.3166 57.7991 16.242 57.9568C16.1425 57.7202 16.043 57.4993 15.9559 57.2627C15.844 57.0102 15.6823 56.9787 15.645 57.2153C15.5082 58.1462 14.961 58.1777 14.4511 58.0199C12.71 57.452 12.71 57.4204 11.255 57.9568C10.658 58.1777 10.0735 58.2408 9.5263 57.736C9.17808 57.4046 8.75524 57.4204 8.4692 57.6571C8.0588 57.9884 7.6484 58.0673 7.20069 58.1304C6.90222 58.1619 6.75298 58.651 6.9644 59.0139C7.28774 59.5976 7.36236 60.4811 8.09611 60.6073C8.61844 61.4277 9.31488 61.617 10.1108 61.5697C10.9441 61.5224 11.7897 61.4435 12.623 61.5697C13.4935 61.7117 14.1153 60.6862 15.0108 60.9229C15.6575 61.0964 15.8937 59.7554 16.5404 59.9132C17.1747 60.0709 17.7468 60.7651 18.4059 60.0394C18.5303 59.8974 18.6173 59.992 18.779 60.1183C19.4133 60.56 20.06 60.5127 20.7066 60.0709C21.0549 59.8343 20.9927 60.276 21.0797 60.4969C21.1419 60.6547 21.2912 60.9544 21.316 60.9386C21.8757 60.6547 22.6467 60.8124 22.9203 59.8658C23.5919 59.85 24.2635 59.8343 24.935 59.8027C25.3703 59.7869 25.6563 59.992 25.6937 60.5916C26.303 61.0964 26.9373 61.8853 27.671 61.4277C28.268 61.0491 28.8152 61.0491 29.4121 61.0175C29.9345 60.986 30.5439 61.128 30.9543 60.8282C31.688 60.2918 32.4466 60.3549 33.1431 60.4653C33.8644 60.5758 34.4613 59.6923 35.2448 60.3234C35.6304 60.6231 36.277 60.4338 36.7994 60.4022C37.4212 60.3549 37.8316 61.1911 38.4659 60.9702C38.5032 60.7493 38.5405 60.5127 38.7892 60.5916C38.8638 60.6231 38.9011 60.8282 38.9509 60.9702C39.0752 61.0333 39.2245 61.0806 39.3115 61.2069C39.6224 61.6171 39.9458 61.6802 40.294 61.2857C40.5179 61.0333 40.7417 60.7809 40.978 60.5127C41.3884 61.128 41.7366 60.5758 42.1222 60.4496C42.5326 60.3234 43.1668 61.2857 43.0051 61.7748C42.9554 61.9168 42.7937 62.0746 42.6694 62.0904C42.4455 62.1377 42.1346 62.185 42.0102 62.043C41.5501 61.5224 41.2267 61.6959 40.9158 62.2323C40.7044 62.5952 40.4681 62.6741 40.1945 62.327C40.008 62.0904 39.7841 62.1219 39.5851 62.2639C39.2867 62.4848 39.4732 63.2578 38.9136 63.2578C38.5405 63.2421 38.1549 63.2894 37.7819 63.3052C37.7072 63.3052 37.6326 63.3052 37.5704 63.3052C37.1973 64.0151 37.0108 64.0151 36.6626 63.3052C36.5133 63.2894 36.3641 63.2736 36.2024 63.2578C36.0532 62.6899 35.792 62.2639 35.2821 62.1535C35.2448 62.4217 35.108 62.611 34.8966 62.6741C34.6727 62.7372 34.4365 62.6741 34.225 62.753C34.1131 62.7845 33.9887 62.9896 33.9514 63.1474C33.8768 63.4472 34.0136 63.7154 34.2375 63.7942C34.4489 63.8731 34.6976 63.81 34.909 63.8731C35.0085 63.9047 35.0956 64.0782 35.1826 64.1887C34.8593 64.5673 34.9215 65.3404 34.4365 65.5139C34.1753 65.6086 33.8022 65.5455 33.5783 65.3561C32.9938 64.8671 32.5212 64.9302 31.9367 65.3877C31.1781 65.9872 30.3324 66.3185 29.3873 66.1765C28.7157 66.0819 27.9446 66.3974 27.3726 66.0819C26.6388 65.6875 25.9797 65.3877 25.2584 65.8768C24.6117 66.3027 23.7784 66.2081 23.2934 67.0758C23.2064 67.2336 22.8084 67.3282 22.6965 67.2178C22.3358 66.8549 22.0747 66.8865 21.7762 67.3125C21.4528 67.7858 21.117 67.9278 20.5947 67.6122C19.8361 67.1705 19.0153 67.0916 18.2442 67.6753C17.809 68.0066 17.3737 67.9435 16.9882 67.5807C16.7394 67.344 16.6275 67.5649 16.4285 67.6596C16.1674 67.7858 15.8813 67.8331 15.5953 67.912C15.3963 68.7166 14.675 69.111 14.5382 69.9945C14.5257 70.1049 14.1278 70.2154 13.9412 70.1681C13.6552 70.1049 13.4065 69.8525 13.1204 69.7579C12.6105 69.5843 12.0509 69.3634 11.6032 69.8052C11.0311 70.3574 10.5461 70.3258 9.94914 69.8525C9.65066 69.6159 9.65066 70.0734 9.63823 70.3101C9.62579 70.7834 9.58848 71.2724 10.1357 71.3671C10.4217 71.4144 10.7078 71.5406 10.9814 71.6826C11.7275 72.1086 12.5857 71.9035 13.3194 72.4872C13.593 72.7081 14.0656 72.503 14.4387 72.5346C14.7745 72.5504 15.0232 72.4241 15.2346 72.0928C15.5331 71.6195 15.8564 71.304 16.3041 71.8404C16.7021 71.5722 17.1001 71.3355 17.4856 71.0358C17.6348 70.9096 17.697 70.9411 17.8587 71.0831C18.095 71.2882 18.3935 71.3986 18.6671 71.5722C19.4008 72.0455 20.0848 72.7081 20.8683 72.9605C21.6891 73.2288 22.2861 72.0455 23.1069 71.9351C23.3183 71.9035 23.5421 71.8246 23.7411 71.6984C24.0645 71.4933 24.5246 71.3513 24.6614 71.0042C24.8728 70.4836 24.9226 70.4363 25.4076 70.6098C26.5891 71.02 26.8005 70.8938 29.0266 69.8052C29.35 69.6474 29.5863 69.6632 29.835 69.9472C30.0837 70.2312 30.3697 70.2943 30.6309 69.9787C30.9294 69.6159 31.3025 69.5212 31.688 69.6001C32.2103 69.7263 32.571 69.4108 32.8446 68.9217C33.1928 68.3222 33.4291 68.7955 33.7525 68.9532C34.0385 69.0952 34.3121 68.9217 34.3743 68.4799C34.8096 68.4799 35.2821 68.2591 35.6552 68.7008C36.0408 69.1583 36.5133 69.0164 36.9611 69.0164C37.2968 69.0164 37.5331 68.8586 37.5953 68.3853C37.6202 68.2275 37.7445 67.9435 37.8316 67.9435C38.5902 67.9278 39.3364 67.9435 40.095 67.9593C40.5925 68.8428 40.978 67.8173 41.4382 67.8331C41.6123 67.8331 41.6745 67.5333 41.5501 67.4545C41.0899 67.1547 40.6049 66.9023 40.1323 66.6183C40.0702 66.5867 40.0204 66.4921 39.9582 66.429C40.008 66.3659 40.0453 66.2712 40.095 66.2554C40.9158 66.0188 41.7615 65.7821 42.4206 66.7287C42.8435 67.3282 43.3409 67.2967 43.8757 67.2651C43.9503 67.2651 44.0374 67.2809 44.0996 67.2494C44.1742 67.2336 44.2861 67.1547 44.2861 67.1231C44.2737 66.9811 44.2612 66.8076 44.1866 66.6972C44.0498 66.4605 43.8881 66.2554 43.7265 66.0503C43.5524 65.8452 43.5772 65.719 43.8011 65.6401C44.4975 65.4193 45.1318 65.5928 45.7412 66.0819C45.8282 66.145 46.0148 66.003 46.1516 65.9557C46.1143 65.7979 46.1143 65.5928 46.0272 65.4981C45.8655 65.2773 45.8655 65.1668 46.0645 65.0879C46.2884 65.0091 46.4749 65.0406 46.6988 65.1826C47.2957 65.577 47.3206 65.5455 47.6812 64.8828C47.818 64.6304 47.9424 64.4095 48.1911 64.4569C48.3279 64.4884 48.4523 64.6146 48.5891 64.6777C49.5343 65.0564 50.4919 65.2457 51.4122 64.5673C51.636 64.4095 51.8972 64.2833 52.034 64.4726C52.4817 65.1037 53.2155 64.804 53.6756 65.3246C53.9492 65.6401 54.2352 65.5297 54.484 65.2615C54.8322 64.8828 55.168 64.4884 55.4913 64.0782C55.7649 63.7311 55.9017 64.1098 56.0261 64.2675C56.5111 64.8986 56.4862 65.151 55.9142 65.5455C55.4913 65.8294 55.4664 65.9241 55.7649 66.2712C55.9142 66.4447 56.051 66.7445 56.3246 66.4447C56.7723 65.9399 57.0583 65.0248 57.7174 65.0564C58.675 65.0879 59.6326 64.7093 60.6151 65.3246C61.4235 65.8294 62.3811 65.8294 63.1148 64.804C63.2516 64.6146 63.5004 64.4253 63.6994 64.4253C64.5326 64.3938 65.3658 64.4253 66.1991 64.4411C66.5722 65.1826 67.0199 64.2833 67.3184 64.4726C68.0272 64.9302 68.5869 64.5989 69.1216 64.1413C69.4947 63.8258 69.7559 63.7942 70.129 64.094C70.3653 64.2833 70.6886 64.3149 70.9871 64.3622C71.3726 64.4253 71.4846 64.7093 71.4721 65.1353C71.4721 65.3246 71.4597 65.5297 71.4846 65.719C71.5219 65.9872 71.5965 66.2554 71.6587 66.5236C72.0069 66.3343 71.9074 65.9399 71.9198 65.5928C71.9323 65.4035 71.895 65.1984 71.9323 65.0091C71.9571 64.8355 72.0193 64.6304 72.1188 64.5358C72.2183 64.4411 72.4049 64.3938 72.5417 64.4253C72.7531 64.4726 72.7779 64.6462 72.666 64.8197C72.579 64.9775 72.4546 65.1353 72.4297 65.3088C72.38 65.577 72.3924 65.9083 72.6412 66.0503C72.9521 66.2239 73.5988 66.0976 73.7231 65.8768C73.8972 65.5612 73.7231 65.9872 73.5988 65.6401C73.5117 65.4035 73.3003 65.2141 73.5366 64.9459C74.1708 64.2044 74.8797 63.7785 75.7751 63.8258C76.2104 63.8573 76.4964 63.952 76.5462 64.5831C76.5711 64.8513 76.7203 64.8828 76.8695 64.7251C76.9939 64.6146 77.1804 64.3938 77.2426 64.4411C77.7898 64.8355 78.5858 64.6304 78.8594 65.7032C78.9962 66.2396 79.4066 66.1923 79.6677 65.6086C79.8294 65.2615 79.8667 64.8197 80.1528 65.4666C80.2398 65.6717 80.1776 66.1608 80.5383 65.8294C80.9611 65.4508 81.5829 65.4666 81.8441 64.7882C81.9436 64.5358 81.9685 64.1413 82.1301 64.0467C82.4659 63.8258 82.6152 64.3149 82.8141 64.5358C83.0629 64.804 83.3365 64.9775 83.6474 64.9144C84.4184 64.7251 85.1522 63.9836 85.9606 64.7724C86.6197 64.0467 87.4156 64.3622 88.1494 64.3622C88.9702 64.3622 89.8407 64.1256 90.562 64.8986C91.2336 64.804 91.9176 65.1195 92.5643 64.6462C92.7508 64.5042 92.9871 64.4253 93.1986 64.4095C93.9572 64.3622 94.7407 64.236 95.4869 64.378C96.3699 64.5358 97.0912 63.9205 97.8995 63.8258C98.5089 63.7627 99.1183 63.7942 99.7277 63.7942C100.262 63.7942 100.797 63.7627 101.332 63.7785C101.941 63.7785 102.638 63.5891 103.148 63.8889C103.745 64.236 104.217 64.3307 104.777 63.9678C106.058 64.9459 107.264 64.0782 108.421 63.5734C109.552 63.0843 110.634 63.1001 111.729 63.5103C112.102 63.6523 112.438 63.7785 112.823 63.7785C113.283 63.7942 113.88 63.5734 114.166 63.8731C114.738 64.4569 115.124 63.7785 115.597 63.7942C115.746 63.7942 115.907 63.7627 116.057 63.8258C117.599 64.3938 117.599 64.4253 119.278 63.9362C119.912 64.5989 120.509 63.4156 121.118 63.8731C121.467 64.1256 121.715 64.0467 122.101 63.9678C123.133 63.7469 124.178 63.6207 125.222 64.1729C125.993 64.5831 126.901 64.5831 127.66 64.1729C128.182 63.8731 128.68 63.8258 129.19 63.8416C130.234 63.8731 131.316 63.4629 132.286 64.3149C132.336 64.3622 132.46 64.3622 132.51 64.3149C133.219 63.5103 134.201 64.1413 134.885 63.6838C135.706 63.1316 136.515 63.2894 137.323 63.2421C138.156 63.1947 139.002 63.2421 139.848 63.2578C140.357 64.1729 141.066 63.3052 141.651 63.5891C142.385 63.9362 143.143 63.7469 143.889 63.8416C144.188 63.8889 144.486 63.9362 144.76 64.0782C145.419 64.4569 146.053 64.5042 146.712 64.0625C147.372 63.6049 148.23 63.9993 148.839 63.2578C148.951 63.1158 149.361 63.1474 149.498 63.3052C150.095 63.9678 150.792 63.7154 151.463 63.7942C152.582 63.9362 153.751 63.4629 154.796 64.3307C156.077 64.3307 157.37 64.6935 158.589 63.8416C159.261 64.0151 159.398 63.2263 159.733 62.8003C160.256 63.3367 160.915 63.3367 161.487 63.2105C162.445 63.0212 163.216 63.7785 164.123 63.7785C165.653 63.7627 167.17 63.7785 168.7 63.81C169.11 63.81 169.434 63.668 169.707 63.2736C169.956 62.895 170.354 62.7845 170.653 62.5321C171.175 62.0746 171.523 62.0588 172.07 62.469C172.543 62.8161 173.103 62.6899 173.463 62.0272C173.836 61.3646 174.408 61.27 174.893 61.5066C175.664 61.901 176.473 61.9799 177.244 62.2481C178.749 62.7845 179.495 62.8003 181.186 62.185C181.41 62.1061 181.609 62.043 181.821 62.2323C182.641 63.0212 183.599 62.4532 184.482 62.5952C184.93 62.6583 185.365 62.6583 185.775 62.2323C186.086 61.901 186.658 61.8695 186.795 62.2639C187.168 63.4156 187.74 63.3683 188.387 62.8476C188.71 62.5952 188.772 62.9423 188.947 63.037C189.32 63.2421 189.705 63.3052 190.016 62.9896C190.252 62.753 189.556 62.4059 189.979 62.1377C190.228 61.9799 190.65 62.1377 190.837 61.9326C191.533 61.1911 192.168 60.3391 192.827 59.5345C192.715 59.1085 192.566 58.6983 192.503 58.2566C192.416 57.7202 192.752 57.31 193.163 57.4047C193.896 57.5624 194.568 58.0831 195.339 57.9726C195.389 57.9726 195.463 58.0673 195.513 58.1304C195.612 58.2566 195.55 58.4932 195.364 58.4932C194.68 58.4617 194.916 59.6607 194.344 59.7238C194.332 59.992 194.332 60.276 194.282 60.5285C194.232 60.7967 194.12 60.7967 193.958 60.6704C193.797 60.5442 193.598 60.2287 193.424 60.6389C193.25 61.0491 193.088 61.4751 192.976 61.9168C192.901 62.2166 193.051 62.5163 193.274 62.5794C193.71 62.6899 194.17 62.6741 194.618 62.7845C194.904 62.8476 195.165 63.0685 195.451 63.1474C195.774 63.2578 196.11 62.9896 196.135 62.6425C196.16 62.1535 196.16 61.6802 196.172 61.1911C196.185 60.6073 195.948 60.3391 195.513 60.2445C195.314 60.1971 195.277 59.9605 195.401 59.8658C195.712 59.6134 196.135 59.4872 196.334 59.1401C196.732 58.4617 197.043 58.8877 197.428 59.0928C197.665 59.2348 197.851 59.0139 197.814 58.6983C197.789 58.4775 197.416 58.3039 197.764 58.0042C198.659 57.1996 199.816 57.594 200.749 56.884C200.898 56.7578 201.296 57.2311 201.52 57.1522C201.943 56.9945 202.328 56.6631 202.701 56.3476C203.112 56.0163 203.099 55.2275 202.664 54.8804C202.005 54.6122 201.458 54.0758 200.749 54.0758ZM188.71 38.3936C188.71 38.3779 188.723 38.3621 188.735 38.3305L188.772 38.3779C188.748 38.3936 188.723 38.3936 188.71 38.3936C188.673 38.5199 188.623 38.6461 188.573 38.7723C188.561 38.7881 188.437 38.7723 188.437 38.7565C188.387 38.441 188.536 38.4094 188.71 38.3936ZM187.118 22.8062C187.143 22.7904 187.205 22.8535 187.243 22.8851C187.243 22.9482 187.23 22.9955 187.23 23.0586C187.143 23.0271 187.056 22.9797 186.969 22.9482C187.019 22.9008 187.056 22.8377 187.118 22.8062ZM179.856 21.055C179.905 21.1023 179.943 21.1654 179.992 21.2127C179.943 21.2601 179.893 21.3074 179.843 21.3547C179.793 21.3232 179.756 21.3074 179.706 21.2758C179.756 21.2127 179.806 21.1339 179.856 21.055ZM179.57 23.2322C179.582 23.2322 179.582 23.2322 179.594 23.2322C179.594 23.2322 179.594 23.2479 179.607 23.2637C179.831 23.2637 180.042 23.2479 180.266 23.2637C180.888 23.3268 181.261 22.4275 181.957 22.6326C182.467 22.7904 183.014 22.68 183.549 22.6957C184.159 22.6957 184.768 22.68 185.365 22.6957C185.949 22.7115 186.173 23.3268 185.925 24.1157C185.9 24.1945 185.825 24.2577 185.775 24.3208C185.726 24.2577 185.626 24.1945 185.614 24.1157C185.539 23.6108 185.377 23.2322 184.892 23.2953C184.594 23.3268 184.258 23.2006 183.997 23.3268C183.661 23.4846 183.387 23.8317 182.965 23.8159C181.908 23.7528 180.85 23.7528 179.793 23.6897C179.731 23.6897 179.669 23.4373 179.607 23.2795C179.594 23.2795 179.594 23.2795 179.582 23.2795C179.57 23.2479 179.57 23.2479 179.57 23.2322C179.358 23.2322 179.147 23.2322 178.935 23.2164C178.873 23.2164 178.774 23.0428 178.786 23.0271C178.848 22.9008 178.923 22.7273 179.022 22.6957C179.346 22.6169 179.557 22.7746 179.57 23.2322ZM178.699 20.3923C178.811 20.4712 178.91 20.5659 179.022 20.6448C178.811 20.8656 178.587 21.1023 178.363 21.3074C178.363 21.3074 178.239 21.1812 178.226 21.1023C178.202 21.0076 178.201 20.8972 178.214 20.8183C178.264 20.5659 178.45 20.3923 178.699 20.3923ZM170.516 17.4736C170.702 17.4894 170.789 17.4579 170.864 17.5052C171.001 17.5683 171.125 17.6787 171.25 17.7576C171.125 17.8523 171.001 17.9469 170.864 18.0258C170.802 18.0574 170.702 18.0574 170.64 18.0258C170.429 17.9469 170.23 17.8365 170.031 17.7418C170.23 17.6314 170.416 17.521 170.516 17.4736ZM167.817 17.5999C167.867 17.5999 167.929 17.5683 167.966 17.5999C168.078 17.6945 168.053 17.8207 167.879 17.8996C167.854 17.9154 167.78 17.805 167.755 17.7418C167.742 17.7103 167.792 17.6472 167.817 17.5999ZM167.332 12.4251C167.382 12.3304 167.519 12.2989 167.631 12.2515C167.631 12.2358 167.643 12.2042 167.643 12.1884L167.68 12.2358C167.668 12.2515 167.643 12.2515 167.631 12.2515C167.593 12.3935 167.568 12.5513 167.494 12.6144C167.369 12.7091 167.257 12.5671 167.332 12.4251ZM165.467 17.1423C165.467 17.1266 167.058 17.5841 167.058 17.5999C167.071 17.663 167.096 17.7261 167.096 17.805C167.083 18.0732 166.462 18.5938 166.213 18.5465C165.84 18.4834 165.442 17.9312 165.404 17.4105C165.392 17.3159 165.442 17.2212 165.467 17.1423ZM164.733 17.5525C164.783 17.6156 164.82 17.663 164.87 17.7261C164.82 17.7734 164.77 17.8207 164.72 17.8681C164.671 17.8365 164.621 17.805 164.584 17.7892C164.621 17.7103 164.683 17.6314 164.733 17.5525ZM29.8972 13.2297C29.8101 13.1508 29.7852 12.9457 29.7355 12.7879C29.7355 12.7879 29.7355 12.7879 29.7231 12.7879C29.5116 12.7722 29.2878 12.7722 29.0764 12.7406C29.0142 12.7248 28.9271 12.5671 28.9271 12.5671C29.0017 12.4408 29.0764 12.2831 29.1758 12.2515C29.5241 12.1411 29.7106 12.3462 29.7231 12.8037C29.7231 12.8037 29.7231 12.8037 29.7231 12.8195C29.8474 12.8826 30.0091 12.9142 30.0588 13.0404C30.1459 13.1666 30.0215 13.3243 29.8972 13.2297ZM17.6348 14.6969C17.7095 14.76 17.7343 14.9178 17.7716 15.0598C17.7965 15.0598 17.809 15.0756 17.8338 15.0756L17.7965 15.1229C17.7841 15.1071 17.7841 15.0756 17.7841 15.044C17.6722 14.9967 17.5478 14.9809 17.4856 14.8862C17.3861 14.76 17.5105 14.6023 17.6348 14.6969ZM18.7914 29.9215C18.9034 29.8426 19.0153 29.7164 19.1397 29.7006C19.4133 29.6533 19.6247 29.8742 19.5003 30.0319C19.4133 30.1424 19.2516 30.2213 19.1397 30.1897C19.0153 30.1739 18.9034 30.0162 18.7914 29.9215ZM13.4562 19.2564C13.5308 19.3984 13.593 19.5562 13.6676 19.6982C13.6179 19.8559 13.5681 20.0137 13.5184 20.1715C13.4313 20.0926 13.2448 19.9979 13.2572 19.9506C13.307 19.7139 13.394 19.4931 13.4562 19.2564ZM11.5286 19.4142C11.6281 19.4457 11.8022 19.4931 11.8146 19.5719C11.8519 19.8086 11.8395 20.061 11.827 20.2977C11.8395 20.2977 11.8519 20.3135 11.8768 20.3135C11.8892 20.345 11.8892 20.3608 11.9017 20.3923C12.0633 20.4081 12.2126 20.4397 12.1753 20.7394C12.1753 20.7552 12.0385 20.7868 12.0385 20.7552C11.9887 20.6448 11.9514 20.5028 11.9017 20.3923C11.8768 20.3923 11.8519 20.3923 11.827 20.3923C11.827 20.3608 11.827 20.345 11.827 20.3135C11.5286 20.2661 11.3793 20.0295 11.4166 19.6193C11.4166 19.5404 11.4913 19.4142 11.5286 19.4142ZM9.32732 19.8717C9.37706 19.9348 9.42681 20.0137 9.47655 20.0768C9.42681 20.1399 9.36463 20.1872 9.31488 20.2504C9.26513 20.1872 9.19052 20.1084 9.19052 20.061C9.19052 19.9821 9.27757 19.919 9.32732 19.8717ZM5.26061 35.3014C5.19842 35.2383 5.13624 35.1752 5.06162 35.1278C5.11137 35.0805 5.16112 34.9859 5.19842 34.9859C5.24817 34.9859 5.28548 35.0963 5.32279 35.1436C5.31035 35.191 5.28548 35.2541 5.26061 35.3014ZM5.74563 32.3985C5.52177 32.7613 5.27304 33.1242 4.86264 33.0611C4.75071 33.0453 4.60148 32.8875 4.56417 32.7613C4.52686 32.6193 4.55173 32.3669 4.62635 32.2565C4.89995 31.8778 5.27304 31.9567 5.6337 32.0356C5.69588 32.0514 5.74563 32.146 5.80781 32.1934C5.78294 32.2565 5.7705 32.3354 5.74563 32.3985ZM5.79537 31.1521C5.73319 31.3414 5.60883 31.3099 5.47203 31.1205C5.18599 30.7419 4.8129 30.8208 4.45224 30.7735C4.34031 30.7577 4.24082 30.5999 4.12889 30.5053C4.25326 30.4264 4.36518 30.3002 4.48955 30.2528C4.62635 30.2055 4.77559 30.237 4.92482 30.237V30.2528C5.13624 30.2528 5.37253 30.2055 5.57152 30.2686C5.68345 30.3002 5.80781 30.4895 5.84512 30.6315C5.89486 30.7892 5.84512 30.9943 5.79537 31.1521ZM6.11872 21.9858C6.05654 21.7491 5.96948 21.5283 5.93217 21.2916C5.93217 21.2601 6.10628 21.1654 6.20577 21.1181C6.25552 21.2758 6.34258 21.4336 6.33014 21.5756C6.3177 21.7176 6.19334 21.8438 6.11872 21.9858ZM10.7078 34.3075C10.6331 34.4494 10.4839 34.5283 10.3968 34.6545C10.2476 34.8439 10.1481 34.8281 10.0859 34.5757C10.0611 34.4968 10.0611 34.4179 10.0486 34.3548C10.0362 34.0077 10.1979 33.8499 10.4217 33.8184C10.5461 33.8026 10.6829 33.8815 10.8073 33.913C10.7699 34.0235 10.7699 34.197 10.7078 34.3075ZM26.0046 32.2091C25.8926 32.3827 25.5444 32.5562 25.4325 32.4616C25.0967 32.2091 24.8728 32.004 24.4873 32.43C24.2013 32.7456 23.7411 32.6824 23.4302 32.3669C23.1193 32.0514 22.9452 32.1934 22.6965 32.4773C22.1866 33.0453 22.1493 33.0611 21.6518 32.4616C21.229 31.9567 21.0673 32.0672 20.9678 32.7456C20.9429 32.8875 20.7688 33.0769 20.6569 33.0926C20.2838 33.1558 19.8983 33.1242 19.5127 33.1558C18.6173 33.2031 17.7343 33.0926 16.8638 33.6448C16.4285 33.913 15.6201 34.0866 15.446 32.8875C15.3963 32.5878 15.0729 32.5405 14.8615 32.6351C14.5879 32.7613 14.3143 32.9507 14.078 33.1873C13.4935 33.7868 12.8095 33.7237 12.1255 33.7553C11.6778 33.7868 11.4539 33.5186 11.342 32.9507C11.2798 32.6036 11.0809 32.3196 10.9316 32.004C9.88696 31.9883 8.82986 31.6727 7.84738 32.4773C7.62353 32.6667 7.26287 32.3354 7.27531 31.8621C7.28774 31.1679 7.1012 30.7892 6.554 30.7104C6.49181 30.6946 6.4545 30.5841 6.40476 30.521C6.46694 30.4579 6.52912 30.3633 6.5913 30.3633C6.88978 30.3475 7.18825 30.2844 7.47429 30.3633C7.79764 30.4421 9.45168 30.4264 9.81234 30.3159C10.0984 30.237 10.4217 30.1897 10.7078 30.2528C11.0435 30.3159 11.3793 30.5999 11.7151 30.6157C11.9887 30.6315 12.2623 30.379 12.5359 30.2528C12.5981 30.2213 12.6976 30.237 12.7598 30.2686C12.8966 30.3475 13.0956 30.4106 13.1204 30.5368C13.195 30.7892 13.2199 31.1205 12.9836 31.2941C12.7971 31.4361 12.5732 31.4992 12.3867 31.6727C12.2499 31.7989 12.3245 32.3985 12.4862 32.4142C12.9339 32.4458 13.3816 32.5247 13.8293 32.4773C14.0656 32.4458 14.1153 32.0987 14.1029 31.7989C14.0905 31.4834 13.5184 31.2783 13.9412 30.8997C14.0905 30.7735 14.3516 30.8523 14.5755 30.8523C14.5755 30.8366 14.5755 30.8208 14.5755 30.805C14.5879 30.805 14.6004 30.805 14.6252 30.805C14.675 30.6315 14.7123 30.3948 14.762 30.379C15.2844 30.3002 15.8067 30.2213 16.329 30.2528C16.814 30.2844 17.212 30.1739 17.5851 29.7795C17.7468 29.606 18.2069 29.8111 18.1572 29.9373C18.095 30.1108 17.9706 30.237 17.8711 30.3948C17.6597 30.7104 17.411 30.8366 17.0752 30.8208C16.2544 30.805 15.4336 30.805 14.6128 30.805C14.6128 30.8208 14.6004 30.8366 14.6004 30.8523C14.5879 30.8523 14.5755 30.8523 14.5631 30.8523C14.5755 31.1363 14.5382 31.4361 14.6252 31.6727C14.7745 32.0829 15.1227 32.0198 15.4212 32.004C15.645 32.004 15.9559 32.0829 16.0927 31.9409C16.6772 31.3099 17.3737 31.4519 18.0452 31.4203C18.7168 31.3888 19.4381 31.5781 19.9729 30.8366C21.03 30.8839 22.0995 30.8839 23.1442 31.0417C23.4302 31.089 23.6168 31.1048 23.9152 31.0259C24.649 30.8523 25.42 30.8839 26.1662 30.8523C26.2409 30.8523 26.3901 31.1205 26.3652 31.1994C26.2782 31.5465 26.1911 31.9252 26.0046 32.2091ZM27.7457 31.2152C27.4845 31.2783 27.4721 31.0732 27.4596 30.8681C27.4472 30.8681 27.4348 30.8523 27.4223 30.8366C27.4099 30.8208 27.4099 30.7892 27.4099 30.7735C27.298 30.7261 27.1611 30.7104 27.099 30.5999C27.0119 30.4579 27.1363 30.3002 27.2731 30.3948C27.3477 30.4579 27.3726 30.6315 27.4099 30.7735C27.4223 30.7735 27.4472 30.7892 27.4596 30.7892C27.4596 30.8208 27.4596 30.8366 27.4721 30.8681C27.5716 30.9155 27.6835 30.9628 27.783 31.0417C27.783 31.0417 27.7581 31.1994 27.7457 31.2152ZM17.5105 43.9944C17.4359 43.9313 17.411 43.7735 17.3861 43.6473C17.3612 43.6473 17.3488 43.6315 17.3239 43.6315L17.3612 43.5842C17.3737 43.6 17.3737 43.6315 17.3737 43.6631C17.4856 43.7104 17.61 43.742 17.6597 43.8209C17.7468 43.9628 17.6348 44.1048 17.5105 43.9944ZM20.2589 43.9628C20.1968 43.9471 20.1221 43.6789 20.1346 43.5369C20.147 43.3949 20.2589 43.2687 20.3336 43.1424C20.3957 43.2687 20.4952 43.3949 20.5201 43.5211C20.5325 43.742 20.5201 44.0259 20.2589 43.9628ZM22.112 51.583C22.0373 51.5199 22.0125 51.3464 21.9752 51.2044C21.9627 51.2044 21.9379 51.1886 21.9254 51.1886L21.9627 51.1413C21.9752 51.157 21.9752 51.1886 21.9752 51.2044C22.0871 51.2517 22.2239 51.2833 22.2736 51.3779C22.3483 51.5357 22.2363 51.6777 22.112 51.583ZM22.8208 59.9132C22.8084 59.8816 22.8084 59.8658 22.796 59.8343C22.6467 59.8027 22.4726 59.8027 22.5224 59.4714C22.5224 59.4556 22.6592 59.4399 22.6716 59.4556C22.7213 59.5661 22.7587 59.6923 22.796 59.8185C22.8208 59.8185 22.8457 59.8343 22.8706 59.8343L22.8208 59.9132ZM23.4675 50.9677C23.4178 50.81 23.3307 50.6522 23.3432 50.5102C23.3556 50.3682 23.48 50.242 23.5919 50.0527C23.6541 50.3367 23.7163 50.5575 23.7287 50.7942C23.7287 50.8415 23.5546 50.9046 23.4675 50.9677ZM26.2657 54.5491C26.216 54.4859 26.1662 54.4228 26.1165 54.344C26.1662 54.2808 26.2284 54.1704 26.2782 54.1704C26.3403 54.1704 26.3777 54.2966 26.4274 54.3597C26.3777 54.4228 26.3279 54.4859 26.2657 54.5491ZM29.0266 37.6837C28.9769 37.6206 28.9271 37.5575 28.8774 37.4944C28.9271 37.4313 28.9893 37.3366 29.039 37.3366C29.1012 37.3366 29.151 37.447 29.2007 37.5101C29.1385 37.5732 29.0888 37.6206 29.0266 37.6837ZM35.9164 33.6133C35.8666 33.5975 35.8169 33.5028 35.7672 33.4397C35.8169 33.3766 35.8791 33.3135 35.9288 33.2504C35.9786 33.3135 36.0283 33.3924 36.0781 33.4555C36.0159 33.5028 35.9661 33.6133 35.9164 33.6133ZM37.8316 32.9191C37.7819 33.0138 37.6699 33.0453 37.558 33.0769C37.558 33.1084 37.5456 33.14 37.5456 33.1558C37.5207 33.1558 37.4958 33.1558 37.4709 33.1558C37.4212 33.282 37.3839 33.4082 37.3341 33.5344C37.3217 33.5502 37.1849 33.5186 37.1849 33.5028C37.16 33.2031 37.3093 33.1715 37.4709 33.1715C37.4834 33.1558 37.4834 33.1242 37.4958 33.1084C37.5207 33.0926 37.5456 33.0926 37.558 33.0769C37.5829 32.9507 37.6077 32.8087 37.6699 32.7456C37.7943 32.6509 37.9062 32.7771 37.8316 32.9191ZM40.9656 32.5405C40.8536 32.6667 40.7417 32.7929 40.6174 32.9191C40.4806 33.0611 40.3438 32.998 40.3064 32.7298C40.2443 32.3038 40.4557 32.004 40.7915 32.004C40.8536 32.0356 40.9283 32.0514 40.9905 32.0987C41.1273 32.2091 41.1148 32.3669 40.9656 32.5405ZM34.4613 68.1171C34.3991 68.2591 34.3618 68.4168 34.3121 68.5588C34.3245 68.5588 34.3245 68.5746 34.337 68.5746L34.2872 68.6219C34.2997 68.6062 34.2997 68.5746 34.3121 68.5588C33.8022 68.2275 33.2799 67.912 32.6954 67.8962C32.6332 67.8962 32.5834 67.7858 32.5212 67.7227C32.5834 67.6596 32.6332 67.5491 32.6954 67.5491C33.2923 67.5176 33.8893 67.4229 34.4738 67.5176C34.822 67.5649 34.5484 67.8962 34.4613 68.1171ZM35.8045 63.5891C35.8542 63.4945 35.991 63.4629 36.1029 63.4156C36.1029 63.384 36.1154 63.3683 36.1154 63.3367L36.1527 63.384C36.1402 63.3998 36.1154 63.3998 36.0905 63.3998C36.0532 63.5418 36.0283 63.6996 35.9537 63.7627C35.8418 63.8889 35.7298 63.7311 35.8045 63.5891ZM36.9486 67.1705C36.6377 67.4229 36.3019 67.5964 35.9413 67.8331C35.8791 67.77 35.7174 67.6753 35.7174 67.5807C35.705 66.9969 35.705 66.429 35.3319 65.9872C35.4438 65.9083 35.593 65.719 35.6552 65.7506C36.1154 66.0188 36.5631 66.3185 36.9984 66.6656C37.0605 66.6972 37.0232 67.1074 36.9486 67.1705ZM46.0148 60.9229C45.4551 61.0806 45.0323 61.7906 44.3856 61.6013C44.3856 61.6171 44.398 61.6171 44.398 61.6328C44.3856 61.6486 44.3607 61.6486 44.3483 61.6486C44.311 61.7906 44.2861 61.9484 44.2115 62.0115C44.0871 62.1061 43.9752 61.9641 44.0498 61.8221C44.0996 61.7275 44.2364 61.6959 44.3358 61.6486C44.3358 61.6328 44.3483 61.6013 44.3483 61.5855C44.3607 61.5855 44.3607 61.5855 44.3732 61.5855C44.311 61.1595 44.0498 61.0649 43.7513 60.986C43.5648 60.9229 43.515 60.6862 43.6394 60.6073C44.0996 60.3391 44.5597 60.0394 45.0447 59.8658C45.4427 59.7238 45.7412 60.0867 45.9775 60.4653C46.1391 60.6704 46.164 60.8755 46.0148 60.9229ZM46.0521 7.40806C45.9401 7.5185 45.8158 7.36073 45.8904 7.20296C45.9401 7.1083 46.0769 7.07675 46.1889 7.02942C46.1889 7.01364 46.2013 6.98208 46.2013 6.96631C46.2137 6.96631 46.2262 6.96631 46.2386 6.96631C46.2635 6.54034 46.4873 6.4299 46.7983 6.46145C46.8604 6.47723 46.9724 6.55611 46.9599 6.58767C46.9351 6.71388 46.8978 6.9032 46.8356 6.91898C46.6366 6.96631 46.4376 6.95053 46.2386 6.96631C46.2386 6.98208 46.2262 6.99786 46.2262 7.01364C46.2137 7.02942 46.1889 7.02942 46.1764 7.02942C46.1516 7.15563 46.1391 7.32917 46.0521 7.40806ZM47.333 31.8621C47.1962 31.9094 47.047 31.9252 46.7983 31.9567C46.6739 31.8936 46.4749 31.7832 46.2759 31.6727C46.4874 31.5938 46.6863 31.4834 46.8978 31.4361C47.0346 31.4045 47.1838 31.4519 47.333 31.4992C47.3952 31.515 47.445 31.6254 47.5071 31.6885C47.4574 31.7516 47.3952 31.8463 47.333 31.8621ZM49.497 6.60344C49.1363 7.06097 48.701 7.07675 48.2658 6.82432C48.1787 6.77699 48.1538 6.58767 48.1041 6.4299C48.0792 6.4299 48.0543 6.4299 48.0295 6.4299C48.0295 6.39834 48.017 6.38257 48.0046 6.35101C47.8429 6.35101 47.6937 6.31946 47.731 6.00392C47.731 5.98815 47.8678 5.95659 47.8802 5.97237C47.93 6.09859 47.9673 6.2248 48.0046 6.35101C48.0295 6.35101 48.0543 6.35101 48.0792 6.35101C48.0916 6.36679 48.0916 6.39834 48.1041 6.41412C48.5518 6.47723 48.9125 6.20902 49.2607 5.87771C49.3477 5.79883 49.5965 5.86193 49.6711 5.95659C49.8825 6.27213 49.6213 6.44567 49.497 6.60344ZM50.5914 6.85587C50.5541 6.82432 50.5168 6.80854 50.467 6.77699C50.5168 6.6981 50.5541 6.60344 50.6038 6.52456C50.6411 6.58767 50.7157 6.65077 50.7157 6.6981C50.7157 6.76121 50.6411 6.80854 50.5914 6.85587ZM52.4817 6.80854C52.4444 6.84009 52.4195 6.87165 52.4071 6.87165C52.1957 6.72966 52.2081 6.60344 52.4195 6.50878C52.4693 6.57189 52.519 6.635 52.5812 6.6981C52.5439 6.71388 52.519 6.76121 52.4817 6.80854ZM55.2426 6.16169C55.1928 6.2248 55.1307 6.31946 55.0685 6.31946C54.7327 6.35101 54.3845 6.36679 54.0363 6.36679C54.0363 6.38257 54.0238 6.39834 54.0238 6.41412C54.0114 6.41412 53.999 6.41412 53.9865 6.41412C53.9741 6.87165 53.7378 6.99786 53.4269 6.93475C53.3771 6.91898 53.3398 6.87165 53.3025 6.80854C53.2652 6.74543 53.2279 6.68233 53.1906 6.61922C53.2155 6.58767 53.2403 6.55611 53.2776 6.50878C53.3025 6.47723 53.3398 6.44567 53.3647 6.44567C53.5761 6.41412 53.7751 6.41412 53.9865 6.39834C53.9865 6.38257 53.9865 6.36679 53.9865 6.35101C53.999 6.35101 54.0114 6.35101 54.0238 6.35101C54.0611 5.92504 54.285 5.78305 54.5959 5.83038C54.8073 5.86193 55.0063 5.92504 55.2053 5.98815C55.2426 6.0197 55.2675 6.14592 55.2426 6.16169ZM76.2477 12.078C76.0363 11.9675 76.0487 11.8256 76.2601 11.7467C76.285 11.7309 76.3472 11.8571 76.3969 11.9202C76.3472 11.9833 76.2726 12.0938 76.2477 12.078ZM80.8616 29.5271C80.8243 29.464 80.7746 29.4009 80.7248 29.3535C80.6751 29.2904 80.6502 29.2273 80.6378 29.1642C80.6253 29.0065 80.7248 28.8487 80.7746 28.6751C80.8492 28.7856 80.9238 28.9118 80.9984 29.0222C80.9611 29.1642 80.9114 29.3062 80.8741 29.4482C80.8741 29.4798 80.8616 29.4955 80.8616 29.5271ZM82.8763 12.6459C82.839 12.7406 82.7893 13.0246 82.6525 13.2139C82.5779 13.3243 82.3789 13.3243 82.2421 13.2928C82.0307 13.2455 82.0306 13.1192 82.1301 12.9142C82.2794 12.5986 82.3789 12.2515 82.5157 11.9202C82.553 11.8413 82.6152 11.7782 82.6649 11.7151C82.7395 11.8729 82.8266 12.0307 82.8763 12.1884C82.9012 12.2673 82.8763 12.3777 82.8763 12.6459ZM90.0521 13.1981C89.99 13.135 89.9153 13.0877 89.8532 13.0246C89.9029 12.9773 89.9527 12.8826 89.99 12.8826C90.0397 12.8826 90.077 12.9773 90.1143 13.0404C90.1019 13.0877 90.077 13.1508 90.0521 13.1981ZM92.9374 29.7637C92.925 29.8742 92.7757 29.9531 92.6887 30.0319C92.6762 30.0477 92.5643 29.9215 92.5519 29.8426C92.527 29.5902 92.5394 29.3378 92.527 29.1011C92.5146 29.1011 92.5021 29.0853 92.4897 29.0853C92.4772 29.0696 92.4772 29.038 92.4772 29.0065C92.3653 28.9591 92.241 28.9276 92.1912 28.8329C92.1042 28.6909 92.2161 28.5332 92.3529 28.6436C92.4275 28.7067 92.4524 28.8645 92.4897 29.0065C92.5146 29.0065 92.527 29.0222 92.5519 29.0222C92.5519 29.038 92.5519 29.0696 92.5519 29.0853C92.8503 29.1327 92.9996 29.3535 92.9374 29.7637ZM94.0194 12.4251C94.0442 12.3777 94.2681 12.4251 94.3427 12.5197C94.5044 12.6933 94.6288 12.9142 94.7655 13.1192C94.6909 13.1824 94.6412 13.2455 94.5666 13.277C94.2681 13.4348 93.9821 13.277 93.9199 12.9142C93.9074 12.7564 93.9572 12.5513 94.0194 12.4251ZM94.865 29.606C94.6661 29.6691 94.4298 29.6218 94.2183 29.6218V29.6375C94.0691 29.6375 93.9199 29.6849 93.7831 29.6218C93.6836 29.5744 93.609 29.4324 93.5468 29.2904C93.5343 29.2589 93.609 29.1327 93.6463 29.0538C93.9323 28.5489 94.3178 28.4069 94.7904 28.5174C95.0143 28.5805 95.1635 28.7067 95.2133 29.0222C95.2754 29.4324 95.0516 29.5429 94.865 29.606ZM96.5688 29.0222C96.4818 29.0065 96.4072 28.8329 96.3201 28.7225C96.4569 28.6594 96.5813 28.5489 96.7181 28.5647C96.8176 28.5805 96.8922 28.754 96.9917 28.8645C96.8424 28.9118 96.6932 29.0222 96.5688 29.0222ZM98.2477 12.6775C98.2229 12.6617 98.2104 12.6459 98.1856 12.6302C98.1607 12.6144 98.1483 12.5986 98.1234 12.5828C98.1731 12.504 98.2104 12.4093 98.2602 12.3304C98.2975 12.3935 98.3472 12.4408 98.3845 12.504C98.3472 12.5671 98.2975 12.6144 98.2477 12.6775ZM98.9691 4.58402C98.8447 4.58402 98.7079 4.47358 98.5835 4.41047C98.6706 4.31581 98.7576 4.14227 98.8571 4.12649C98.9815 4.11071 99.1059 4.23693 99.2551 4.31581C99.1432 4.41047 99.0561 4.56824 98.9691 4.58402ZM102.862 4.20537C102.911 4.2527 102.961 4.31581 102.998 4.36314C102.949 4.41047 102.899 4.4578 102.849 4.50513C102.799 4.47358 102.75 4.4578 102.712 4.42625C102.762 4.36314 102.812 4.28426 102.862 4.20537ZM103.309 13.7503C102.986 13.987 102.613 14.0343 102.314 13.7345C102.215 13.6241 102.165 13.1824 102.252 13.0561C102.501 12.6933 103.123 12.7248 103.421 13.0404C103.446 13.0561 103.446 13.1035 103.459 13.1508C103.459 13.1981 103.471 13.2455 103.471 13.277C103.409 13.4506 103.396 13.6872 103.309 13.7503ZM106.493 5.10465C106.307 5.19931 106.108 5.30975 105.958 5.00999C105.933 4.96266 105.933 4.85222 105.958 4.83644C106.083 4.77334 106.207 4.72601 106.331 4.67868C106.443 4.75756 106.555 4.85222 106.655 4.9311C106.593 4.99421 106.543 5.0731 106.493 5.10465ZM107.687 1.1289C107.438 1.19201 107.214 0.955358 107.339 0.79759C107.413 0.687153 107.575 0.608269 107.687 0.624045C107.749 0.624045 107.799 0.671376 107.849 0.734483C107.898 0.781813 107.948 0.84492 108.01 0.892251C107.898 0.971135 107.799 1.09735 107.687 1.1289ZM111.119 1.57065C111.095 1.60221 111.057 1.61798 111.032 1.63376C110.622 1.8073 110.149 1.68109 109.789 2.10706C109.677 2.24905 109.192 1.79153 109.167 1.5391C109.154 1.47599 109.167 1.34978 109.179 1.334C109.814 1.01846 110.448 1.01846 111.095 1.28667C111.119 1.30245 111.144 1.31822 111.157 1.36555C111.169 1.39711 111.194 1.42866 111.207 1.46021C111.182 1.50754 111.144 1.5391 111.119 1.57065ZM116.094 5.10465C116.044 5.10465 115.995 4.99421 115.945 4.9311C116.007 4.868 116.057 4.75756 116.119 4.75756C116.169 4.75756 116.218 4.88377 116.268 4.96266C116.206 5.00999 116.144 5.10465 116.094 5.10465ZM120.646 5.71994C120.497 5.76727 120.347 5.78305 120.198 5.78305C119.974 5.78305 119.738 5.76727 119.514 5.7515C119.514 5.76727 119.514 5.76727 119.514 5.78305C119.141 5.73572 118.768 5.73572 118.395 5.64106C118.308 5.62528 118.208 5.3413 118.208 5.18353C118.196 5.04154 118.32 4.88377 118.382 4.74178C119.017 5.5464 119.812 5.15198 120.546 5.23086C120.646 5.24664 120.733 5.43596 120.832 5.5464C120.77 5.60951 120.72 5.70417 120.646 5.71994ZM131.863 6.68233C131.839 6.71388 131.801 6.76121 131.764 6.79276C131.727 6.82432 131.702 6.85587 131.689 6.85587C131.465 6.71388 131.478 6.58767 131.702 6.49301C131.751 6.55611 131.814 6.61922 131.863 6.68233ZM132.896 6.91898C132.771 6.93475 132.547 6.82432 132.547 6.74543C132.51 6.39834 132.759 6.46145 132.921 6.41412C133.032 6.50878 133.132 6.60344 133.244 6.68233C133.119 6.76121 133.008 6.9032 132.896 6.91898ZM135.147 5.19931C135.147 5.21509 135.134 5.23086 135.134 5.24664C135.122 5.26242 135.109 5.26242 135.097 5.27819C135.072 5.73572 135.072 6.17747 135.022 6.61922C134.997 6.9032 134.885 6.88742 134.699 6.6981C134.226 6.2248 134.189 6.08281 134.575 5.64106C134.724 5.48329 134.91 5.38863 135.084 5.26242C135.084 5.23086 135.084 5.21509 135.084 5.18353C135.122 5.19931 135.134 5.19931 135.147 5.19931C135.221 4.47358 135.657 4.67868 136.017 4.6629C136.017 4.64712 136.017 4.63135 136.03 4.61557L136.067 4.6629C136.054 4.6629 136.042 4.6629 136.017 4.6629C135.967 5.45174 135.507 5.19931 135.147 5.19931ZM153.863 7.67626C153.814 7.94447 153.664 8.07068 153.416 8.03913C153.192 8.00758 153.018 7.92869 153.018 7.56583C153.018 7.18718 153.291 6.91898 153.577 7.02942C153.801 7.13985 153.913 7.34495 153.863 7.67626ZM161.077 47.4968C161.064 47.5126 160.927 47.4968 160.927 47.4811C160.878 47.1655 161.039 47.1497 161.188 47.134C161.201 47.1182 161.201 47.0866 161.213 47.0709L161.263 47.134C161.238 47.134 161.213 47.134 161.188 47.1497C161.164 47.2444 161.126 47.3706 161.077 47.4968ZM163.104 59.2663C162.892 59.3136 162.668 59.2821 162.445 59.2821C162.445 59.2663 162.445 59.2505 162.445 59.2348C162.146 59.2348 161.86 59.2505 161.562 59.2348C161.499 59.2348 161.375 59.1085 161.387 59.0928C161.437 58.935 161.487 58.7615 161.574 58.651C161.835 58.3197 162.109 58.0042 162.532 58.3513C162.706 58.509 162.917 58.5879 163.116 58.7299C163.24 58.8088 163.365 58.9192 163.477 59.0139C163.34 59.0928 163.228 59.2348 163.104 59.2663ZM167.481 58.6195C167.257 58.8403 167.021 59.219 166.785 59.2505C165.964 59.3294 165.143 59.2821 164.322 59.2663C164.161 59.2663 163.962 58.793 164.036 58.5879C164.099 58.4301 164.198 58.2093 164.298 58.2093C164.82 58.1777 165.342 58.1935 165.865 58.1935C165.865 58.1619 165.865 58.1304 165.865 58.0988C166.387 58.1462 166.897 58.1777 167.419 58.2408C167.481 58.2408 167.581 58.3355 167.593 58.3986C167.606 58.4617 167.531 58.5721 167.481 58.6195ZM169.322 58.6352C169.148 58.935 169.061 59.3136 168.911 59.6292C168.762 59.9289 168.514 59.8343 168.327 59.7238C168.066 59.5661 168.103 59.219 168.203 58.9981C168.389 58.5879 168.625 58.2093 169.036 58.1777C169.135 58.1935 169.21 58.2093 169.272 58.225C169.484 58.3039 169.459 58.4144 169.322 58.6352ZM176.212 57.4047C175.677 57.9884 175.403 58.7141 175.329 59.5818C175.316 59.6765 175.055 59.8185 174.956 59.7712C173.799 59.2348 172.605 58.793 171.536 58.0042C171.386 57.8937 171.399 57.7517 171.573 57.5782C172.356 56.7578 173.127 56.3792 173.973 56.4107C174.757 56.1898 175.316 57.1996 176.1 57.026C176.286 56.9945 176.348 57.2469 176.212 57.4047Z" fill="#FFA800"/>
</svg>
