<svg width="14" height="14" viewBox="0 0 14 14" fill="none" xmlns="http://www.w3.org/2000/svg">
<path fill-rule="evenodd" clip-rule="evenodd" d="M11.414 4.01842L3.17512 10.5275L2.61719 9.82129L10.856 3.31222L11.414 4.01842Z" fill="#113A75"/>
<path fill-rule="evenodd" clip-rule="evenodd" d="M10.5041 3.59039C8.8434 4.90246 8.64016 7.43507 9.87054 8.99243L10.1495 9.34553L10.8557 8.7876L10.5767 8.4345C9.64258 7.25209 9.80627 5.28874 11.0621 4.29659L11.415 4.01778L10.8571 3.31158L10.5041 3.59039Z" fill="#113A75"/>
<path fill-rule="evenodd" clip-rule="evenodd" d="M11.0619 4.29532C9.40114 5.60738 6.89021 5.21905 5.65982 3.66169L5.38086 3.30859L6.08706 2.75066L6.36602 3.10376C7.30021 4.28621 9.24814 4.58127 10.5039 3.58912L10.8569 3.31031L11.4148 4.0165L11.0619 4.29532Z" fill="#113A75"/>
</svg>
