<svg width="527" height="73" viewBox="0 0 527 73" fill="none" xmlns="http://www.w3.org/2000/svg">
<path d="M521.156 54.0758C519.961 54.0758 518.605 53.8864 517.636 54.1073C515.667 54.5491 513.407 54.4702 511.567 54.975C510.146 55.3537 508.596 55.2906 507.144 55.6692C505.174 56.1741 503.947 55.7008 502.914 54.3755C502.43 53.7444 501.009 53.4447 499.686 53.6971C499.137 53.8075 498.652 54.0284 498.104 54.0284C493.939 54.06 489.774 54.0915 485.641 54.0442C484.124 54.0284 482.962 53.2238 481.218 53.4447C480.734 53.0503 480.25 52.6401 479.701 52.2614C479.217 51.9301 478.28 51.5988 477.699 51.8355C475.148 52.8609 471.759 51.8512 469.208 52.7505C469.079 52.7978 468.304 52.4665 467.916 52.2614C467.271 51.9143 468.078 51.7723 468.401 51.583C468.917 51.2517 469.66 51.157 470.499 51.1413C471.662 51.1097 472.856 51.0939 474.018 51.0151C474.438 50.9835 474.374 50.7942 474.018 50.6049C473.534 50.3524 473.599 50.1473 474.309 50.0053C474.664 49.9422 475.31 49.8791 475.31 49.8002C475.31 49.4374 474.697 49.4847 474.18 49.4689C472.436 49.39 470.758 49.4532 469.079 48.9325C466.948 48.2699 464.494 47.7966 461.976 48.7274C461.589 48.8694 460.846 48.8063 460.232 48.8063C458.263 48.8063 456.261 48.8063 454.292 48.8063C452.71 48.8063 451.128 48.8379 449.837 48.2857C447.641 48.3488 445.865 47.5442 443.605 47.6388C441.249 47.7493 438.859 47.6862 436.47 47.7019C433.758 48.5381 430.723 48.1279 427.85 48.2383C426.171 48.3015 424.718 48.2383 423.653 47.5126C423.007 47.0709 422.006 47.0551 420.973 47.0866C420.231 47.1024 419.488 47.0709 418.745 47.0551C418.778 46.7396 419.197 46.566 419.779 46.566C428.689 46.5345 437.6 46.5187 446.511 46.5029C447.06 46.5029 447.738 46.5976 448.158 46.7553C448.997 47.0709 449.546 46.8815 450.095 46.5818C450.773 46.2031 451.418 45.9349 452.484 46.3609C452.871 46.5187 453.614 46.4713 454.195 46.4871C457.488 46.5976 460.91 46.2505 464.042 47.0393C468.013 47.0551 471.984 47.0866 475.923 47.0866C476.504 47.0866 477.182 47.0709 477.602 46.9131C478.635 46.5187 479.798 46.5187 480.992 46.5345C483.155 46.566 484.866 46.282 485.448 45.1145C485.544 44.941 485.932 44.8148 486.19 44.657C486.545 44.4204 486.545 44.4046 488.063 44.6097C488.644 44.6886 489.193 44.7832 489.709 44.5624C490.452 44.231 490.968 44.3415 491.646 44.657C492.486 45.0514 491.905 45.2723 491.453 45.5721C491.259 45.7141 491.194 45.9665 491.291 46.1085C491.646 46.5187 492.228 46.282 492.615 46.1243C493.164 45.8876 493.68 45.9665 494.262 46.0296L498.652 46.1243C499.427 45.8403 500.073 46.0454 500.816 46.2189C501.526 46.3767 502.753 46.0454 502.979 45.6194C503.205 45.225 502.979 44.8463 501.913 44.7832C501.72 44.7675 501.526 44.7359 501.364 44.6886C501.203 44.6412 501.042 44.5624 500.945 44.4835C500.912 44.4519 501.138 44.3099 501.268 44.3099C502.817 44.2468 504.367 44.1995 505.917 44.1206C506.595 44.0891 506.95 43.4738 507.854 43.884C509.178 44.4835 510.986 43.8682 512.342 44.3415C512.632 44.4519 513.084 44.657 513.278 44.6097C514.505 44.3415 515.667 44.0259 516.862 43.7262C517.766 44.2153 518.476 43.8208 519.38 43.6789C520.284 43.5211 521.349 43.6473 522.318 43.5842C522.608 43.5684 522.867 43.3791 523.125 43.2844C522.964 43.2213 522.834 43.1267 522.673 43.1109C520.994 42.8585 519.122 43.2371 517.507 42.7638C515.861 42.2589 514.02 42.606 512.309 42.4325C511.922 42.4009 511.405 42.4798 511.147 42.3694C509.242 41.5805 506.982 41.9119 504.851 41.8961C497.91 41.8488 490.968 41.8488 484.059 41.8172C483.607 41.8172 482.897 41.7541 483.446 41.3123C483.833 40.9968 484.059 40.6182 484.124 40.2395C484.221 39.782 484.608 39.5453 485.544 39.5296C487.126 39.5138 488.708 39.5138 490.29 39.4822C490.581 39.4665 491.13 39.2614 491.098 39.1667C491.033 38.9143 490.775 38.6618 490.549 38.4252C490.484 38.3779 490.258 38.3621 490.064 38.3463C489.58 37.589 488.224 37.731 487.223 37.8888C486.319 38.0308 485.674 38.3779 484.77 37.8572C484.285 37.5732 483.607 37.3366 482.897 37.1946C481.702 36.958 481.702 36.8475 482.897 36.6109C483.575 36.4689 484.156 36.1849 484.77 35.964L487.901 35.0647C489.064 34.7808 490.129 34.8754 491.259 35.1594C491.937 35.3172 492.97 35.5223 493.454 35.3803C495.23 34.8912 497.232 35.0016 499.04 34.6703C499.266 34.6388 499.427 34.339 499.395 34.1812C499.363 34.0235 499.072 33.771 498.814 33.7553C497.652 33.6606 496.489 33.6448 495.327 33.5502C494.94 33.5186 495.004 33.3135 495.392 33.1242C495.779 32.9507 495.811 32.7771 495.488 32.6824C493.971 32.2407 491.872 32.9507 490.549 32.0829C489.968 32.3354 489.354 32.5878 488.773 32.856C488.127 33.14 487.32 33.1084 486.545 33.0926C485.48 33.0611 485.674 32.4773 485.222 32.3354C483.607 31.7989 485.77 30.8839 484.221 30.3633C483.93 30.2686 484.124 29.8111 484.156 29.5271C484.156 29.4482 484.35 29.3535 484.479 29.2904C484.737 29.1642 485.028 29.2273 485.222 29.4798C485.383 29.6533 485.383 29.9215 485.609 29.9846C486.448 30.1897 486.384 29.7953 486.545 29.5744C486.836 29.1169 487.611 29.0222 488.386 29.0222C490.549 29.0065 492.744 29.038 494.907 29.0222C495.585 29.0222 496.07 28.612 496.005 28.1545C495.94 27.7443 495.811 27.3815 494.81 27.3026C494.165 27.2552 493.842 27.0817 493.713 26.7346C493.584 26.356 494.036 26.1035 495.295 26.1666C497.393 26.2613 499.686 25.7249 501.494 26.6715C504.238 26.7346 506.982 26.8608 509.468 26.1035C510.017 25.93 510.211 25.6618 510.082 25.3778C510.017 25.2358 509.565 25.0307 509.307 25.0465C508.08 25.0623 507.079 24.9203 506.046 24.5416C505.013 24.163 503.624 25.2989 502.462 24.4785C500.46 24.7941 498.233 24.7941 496.36 25.1727C492.873 25.8984 489.419 25.5356 485.932 25.4567C485.674 25.4567 485.351 24.9992 485.254 24.7467C485.157 24.4785 485.028 24.163 485.674 23.9579L489.871 23.4846C490.71 24.021 491.969 22.9324 492.744 23.6581C493.971 23.4846 495.23 23.311 496.457 23.1217C496.618 23.0902 496.748 22.9955 496.877 22.9324C496.715 22.8693 496.586 22.7746 496.425 22.7431C496.07 22.68 495.682 22.6326 495.295 22.6326C494.165 22.6169 493.293 22.6169 494.294 21.8596C494.714 21.5283 493.745 21.5125 493.293 21.5125C487.546 21.4967 481.799 21.4967 476.052 21.4809C474.47 21.4809 472.888 21.4967 471.306 21.4967C469.724 21.4809 469.886 21.1654 470.596 20.6448C470.758 20.5343 470.047 20.1872 469.918 19.919C469.369 18.9251 468.046 18.5149 466.012 18.5622C464.817 18.578 463.622 18.6253 462.46 18.578C459.78 18.4676 456.972 18.8778 454.421 18.0732C454.163 17.9943 453.356 18.2309 452.904 18.3887C452.323 18.578 451.774 18.5622 451.257 18.4202C450.611 18.2467 450.773 17.9154 451.031 17.663C451.677 17.0003 452.355 16.3377 453.033 15.6909C450.741 15.5489 450.644 15.5015 451.515 14.4287C451.903 13.9396 451.225 14.0185 450.805 13.9081C449.481 13.5452 449.449 13.4979 449.966 12.8668C450.095 12.7091 450.289 12.5513 450.482 12.4093C450.127 12.362 449.74 12.22 449.417 12.2673C448.868 12.3304 448.061 12.6775 447.932 12.6144C446.156 11.7467 444.735 12.6459 443.186 12.8195C442.669 12.8668 441.959 13.2455 441.765 13.1666C439.86 12.4882 437.148 13.0246 435.372 12.2042C435.631 11.4311 436.664 11.0367 438.181 11.0052C439.731 10.9736 441.184 11.0052 442.734 11.3523C445.542 11.9833 446.576 11.6836 447.803 10.4845C448.125 10.169 448.061 9.97967 447.641 9.77457C446.931 9.42748 446.188 9.04884 445.155 9.45904C444.316 9.77457 443.25 10.0586 442.475 9.8219C440.506 9.22239 438.407 9.28549 436.244 9.25394C436.018 9.25394 435.825 9.03307 435.631 8.92263C435.792 8.85952 435.921 8.74908 436.083 8.73331C437.633 8.6702 439.182 8.63865 440.732 8.57554C440.861 8.57554 440.99 8.4651 441.152 8.40199C440.99 8.33889 440.829 8.22845 440.667 8.22845C438.375 8.18112 436.018 7.83403 433.823 8.51243C433.661 8.57554 433.145 8.4651 432.919 8.37044C431.983 7.97602 431.175 8.10224 430.304 8.44932C429.561 8.74908 428.657 8.71753 428.399 8.29156C428.011 7.64471 427.689 7.64471 426.494 7.91291C424.815 8.29156 424.686 8.21267 423.395 7.34495C422.878 6.99786 422.491 7.15563 422.071 7.32917C421.231 7.67626 420.553 8.26 419.23 7.64471C419.036 7.55005 418.39 7.53427 418.132 7.62893C415.388 8.52821 412.417 7.94447 409.544 7.94447C408.22 7.28184 407.123 7.7867 405.896 8.08646C405.024 8.29156 403.959 7.96024 403.151 7.43961C402.57 7.06097 401.989 6.50878 401.214 6.4299C399.535 6.25635 397.727 6.44567 396.178 5.87771C395.952 5.79883 395.177 6.08281 394.628 6.16169C393.918 6.25635 393.207 6.33524 392.497 6.41412C392.4 6.71388 392.045 6.93475 391.464 6.95053C388.3 7.09252 385.233 6.98208 382.521 5.98815C381.52 5.62528 380.745 5.90926 380.487 6.50878C380.358 6.82432 379.809 6.99786 379.163 6.9032C378.259 6.76121 377.387 6.55611 376.516 6.35101C375.999 6.24058 375.935 6.05126 376.322 5.94082C377 5.7515 377.71 5.60951 378.388 5.45174C379.066 5.29397 379.744 5.12043 380.422 4.94688C379.841 4.58402 379.034 4.67868 378.259 4.6629C377.581 4.64712 377.323 4.44202 376.968 4.1896C375.805 3.35343 375.321 3.3061 374.74 4.00027C373.642 5.23086 371.382 5.48329 369.187 5.79883C368.767 5.86193 368.089 5.64106 367.637 5.49907C367.25 5.37285 367.831 4.868 368.606 4.64712C368.929 4.55246 369.348 4.50513 369.639 4.39469C369.962 4.26848 369.833 3.74785 369.477 3.65319C367.185 3.05367 364.796 2.73813 362.213 3.03789C361.955 3.06945 361.793 3.32187 361.664 3.47964C361.471 3.70052 361.632 3.90561 362.116 3.93717C363.085 4.01605 364.053 4.06338 365.022 4.07916C365.7 4.09494 366.249 4.23693 366.217 4.53668C366.184 4.78911 365.894 5.08887 365.539 5.27819C364.086 5.95659 362.375 6.35101 360.308 6.38257C358.403 6.41412 356.402 6.25635 354.691 6.9032C354.497 6.96631 353.98 6.84009 353.625 6.79276C353.722 6.635 353.754 6.46145 353.948 6.31946C354.561 5.89349 354.465 5.15198 356.111 5.12043C356.563 5.10465 357.015 4.77334 357.467 4.58402C357.596 4.52091 357.79 4.36314 357.79 4.34736C357.532 4.23693 357.273 4.09494 356.951 4.04761C355.465 3.7794 354.561 4.48936 353.302 4.58402C353.27 4.04761 353.399 3.43231 351.623 3.49542C351.236 3.51119 350.687 3.54275 350.493 3.44809C349.428 2.92745 348.556 2.97478 347.717 3.55853C347.168 3.93717 346.587 3.95294 345.844 3.63741C345.102 3.32187 344.456 3.59008 343.778 3.76362C342.164 4.17382 340.549 4.22115 338.871 3.71629C337.515 3.3061 336.029 2.84857 334.286 3.41653C334.092 3.47964 333.576 3.33765 333.285 3.24299C331.671 2.70658 329.895 2.72236 328.345 3.17988C325.892 3.90561 322.825 2.94323 320.565 3.95294C319.79 3.68474 319.047 3.38498 318.789 2.91168C318.401 2.8959 318.046 2.8959 317.659 2.86435C317.368 2.84857 314.592 2.88012 314.172 2.88012C313.591 2.88012 312.978 2.88012 312.429 2.81702C311.88 2.76969 311.815 2.61192 312.106 2.4226C312.751 2.02818 312.719 1.8073 311.525 1.75997C309.846 1.68109 308.684 2.31216 307.198 2.50148C307.424 2.73813 307.941 3.05367 307.812 3.21144C307.457 3.60586 305.229 3.54275 304.745 3.17988C304.325 2.84857 304.777 3.29032 305.1 2.94323C305.358 2.65925 305.552 2.39104 304.809 2.34371C303.647 2.28061 302.452 2.32794 301.258 2.32794C300.257 2.32794 299.288 2.32794 298.287 2.28061C297.158 2.23328 295.995 2.39104 294.898 1.99662C293.8 1.61798 292.96 2.51726 291.766 2.28061C291.604 2.24905 291.346 2.29638 291.185 2.24905C290.604 2.12284 290.248 1.91774 290.313 1.60221C290.507 0.529385 290.539 0.529385 289.151 0.529385C287.762 0.529385 286.084 0.75026 285.083 0.434724C283.178 -0.149016 281.273 0.0560817 279.368 0.00875138C278.432 -0.00702539 277.334 -0.0228022 276.527 0.166519C275.494 0.418947 276.14 1.03424 275.978 1.49177C275.817 1.90196 275.462 2.2175 274.88 2.46993C274.654 2.56459 274.299 2.61192 273.976 2.64347C273.912 2.64347 273.686 2.50148 273.686 2.4226C273.621 2.23328 273.654 2.04396 273.621 1.83886C273.395 0.403171 273.298 0.371617 270.716 1.00269C269.715 1.23934 268.714 1.47599 267.713 1.69687C267.681 1.77575 267.681 1.88619 267.584 1.93352C266.099 2.80124 265.97 2.84857 264.581 2.15439C263.225 1.61798 262.063 1.64954 260.707 1.91774C259.997 2.05973 258.964 2.13862 258.641 2.40682C257.834 3.13255 257.026 3.66896 255.122 3.55853C254.928 3.54275 254.508 3.81095 254.476 3.96872C254.314 4.47358 253.895 4.67868 253.088 4.26848C251.925 3.70052 250.924 3.14833 249.181 3.90561C248.697 4.11071 247.276 4.1896 246.986 4.03183C245.662 3.27454 244.306 3.7794 243.434 4.07916C241.432 4.77334 239.14 4.868 237.3 4.47358C235.363 4.06338 233.522 4.09494 231.585 4.06338C230.003 4.03183 228.421 4.07916 226.839 4.03183C226.258 4.01605 225.903 3.79518 225.838 3.49542C224.676 3.47964 223.288 3.27454 222.448 3.52697C220.253 4.15804 217.928 3.9845 215.636 4.07916C214.894 4.11071 214.216 4.33159 213.505 4.47358C212.956 4.58402 212.343 4.6629 211.923 4.41047C211.826 4.34736 212.246 4.12649 212.311 3.95294C212.504 3.59008 212.666 3.22721 212.73 2.86435C212.763 2.72236 212.375 2.56459 212.182 2.4226C212.052 2.50148 211.859 2.56459 211.826 2.64347C211.31 3.82673 209.663 4.12649 207.436 4.03183C206.273 3.9845 205.111 4.04761 204.046 3.66896C203.69 3.54275 202.851 3.54275 202.464 3.66896C201.398 4.00027 200.042 4.26848 199.17 3.90561C197.814 3.33765 197.007 4.20537 196.136 4.01605C194.844 3.71629 193.779 3.85828 192.52 4.01605C191.228 4.17382 189.808 4.03183 188.452 3.96872C187.903 3.93717 187.967 3.7794 188.322 3.55853C188.645 3.35343 189.033 3.02211 188.904 2.81702C188.452 2.15439 187.806 2.75391 187.225 2.81702C185.546 3.00634 183.609 2.6908 182.188 3.43231C180.477 3.3692 178.701 3.73207 177.022 3.17988C176.441 2.99056 175.57 2.92745 174.827 2.91168C173.051 2.88012 171.276 2.91168 169.5 2.8959C166.756 2.88012 164.27 3.73207 161.461 3.52697C161.299 3.51119 161.106 3.60586 160.976 3.66896C160.88 3.71629 160.783 3.81095 160.815 3.84251C160.912 3.92139 161.073 4.01605 161.235 4.03183C161.719 4.09494 162.591 4.09494 162.429 4.39469C162.268 4.69445 161.622 5.18353 160.847 4.99421C160.04 4.78911 159.62 4.69445 158.91 5.05732C158.458 5.29397 158.071 5.76727 157.231 5.57795C156.908 5.49907 156.941 5.0731 156.844 4.78911C156.812 4.69445 156.941 4.56824 156.844 4.50513C156.65 4.39469 156.23 4.22115 156.134 4.2527C155.294 4.50513 154.326 4.85222 153.518 4.39469C152.55 3.84251 151.936 4.82067 151.129 4.44202C150.29 4.04761 149.838 4.37892 149.257 4.63135C148.45 5.00999 148.611 5.49907 148.417 5.97237C148.288 6.27213 147.642 6.39834 147.029 6.31946C146.706 6.28791 146.383 6.11436 146.254 5.97237C146.125 5.79883 146.222 5.59373 146.19 5.40441C146.06 4.77334 145.996 4.85222 143.962 4.39469C142.832 4.12649 141.799 3.88984 140.701 4.23693C138.861 4.82067 137.085 4.91533 135.212 4.30003C133.792 4.44202 132.371 4.89955 131.048 4.14227C130.918 4.07916 130.208 4.12649 129.982 4.23693C129.014 4.69445 127.851 4.6629 126.657 4.64712C125.075 4.63135 123.493 4.64712 121.911 4.63135C120.781 4.63135 120.07 4.83644 119.877 5.42018C119.812 5.67261 119.425 5.73572 119.07 5.60951C118.392 5.38863 117.81 5.12043 117.552 5.8146C117.326 6.44567 116.132 6.91898 116.261 7.66049C116.325 8.0549 115.357 8.22845 114.485 8.00758C113.807 7.84981 113.129 7.3765 112.451 7.61316C111.289 8.03913 109.933 8.05491 108.641 8.26C108.48 8.29156 108.383 8.38622 108.286 8.44932C108.609 8.54399 108.964 8.62287 109.287 8.73331C109.578 8.82797 110.126 8.92263 110.126 9.01729C110.126 9.41171 108.028 9.99545 107.382 9.79035C106.607 9.5537 105.897 9.25394 105.671 8.78064C105.025 8.93841 104.412 9.1435 103.734 9.22239C102.959 9.31705 102.313 9.17506 102.12 8.74908C100.118 9.17506 98.6974 10.3583 95.9854 9.91656C94.5002 10.737 92.2402 10.2637 90.5291 10.6896C88.6242 11.1629 86.7517 11.6362 84.8468 12.1095C84.1688 12.2831 83.4585 12.4408 82.8128 12.6459C82.4577 12.7564 82.1025 12.7722 81.8765 12.5355C80.8757 11.4154 77.3888 11.9833 76.6139 10.6423C76.4525 10.3425 74.1925 10.3583 74.0311 10.6896C73.4822 11.6362 71.9325 11.5889 70.5119 11.8098C70.2859 11.8413 70.3182 12.2831 70.2214 12.5355C72.2877 12.7091 72.5137 14.3183 75.1934 14.0343C75.6777 13.987 75.7745 14.2078 75.5162 14.4129C75.2579 14.6023 74.5799 14.8389 75.4839 15.0598C75.6454 15.0913 75.8714 15.1071 76.0328 15.1071C77.5825 15.044 79.3259 15.3753 80.5851 14.8231C82.3285 14.0659 83.3294 15.328 84.7822 15.0913C85.1374 15.0282 85.4279 14.8705 85.7508 14.76C86.1059 14.6338 86.4611 14.6969 86.5257 14.9336C86.5902 15.0913 86.4934 15.4227 86.2997 15.4384C84.2979 15.7224 82.1348 15.754 80.2299 16.2431C75.6454 16.0537 71.8357 17.7892 67.1865 17.4894C67.0251 17.4736 66.8637 17.5999 66.67 17.6156C64.7974 17.805 63.3445 19.1775 60.9877 18.1205C60.1482 18.3414 58.7922 18.4676 58.534 18.8147C57.4362 20.1399 54.7565 19.9506 52.7871 20.2977C50.8822 20.629 48.5254 20.0768 46.6528 20.8183C45.2323 19.8402 43.9731 20.7237 42.6171 20.8656C41.4548 20.9919 39.6791 19.9664 40.3571 19.5404C41.7454 18.6727 41.2288 17.7103 41.4871 16.7795C41.5517 16.4955 41.9714 16.3219 42.5525 16.2746C42.714 15.8802 43.2305 15.7066 44.07 15.6909C44.974 15.6909 45.9103 15.7066 46.1685 15.1387C47.46 14.9967 47.2985 14.5076 47.234 14.0343C47.1694 13.5768 46.6205 13.3717 45.7488 13.3559C44.6511 13.3243 43.8117 13.5926 43.2305 13.987C42.6817 14.3498 42.3588 14.8231 41.8423 15.2018C41.3903 15.5173 40.6477 15.7855 39.8405 15.612C39.4531 15.5331 39.2271 15.186 39.0334 14.9494C38.9043 14.7758 39.0334 14.5392 38.872 14.3814C38.7105 14.2394 38.3554 14.1132 38.0325 14.0501C37.3545 13.9396 36.8057 14.1447 36.7411 14.4287C36.5797 15.1071 36.7411 15.8329 34.578 15.7066C34.2228 15.6909 33.8031 15.7697 33.5125 15.8802C30.0257 16.9846 26.442 17.4105 22.5031 16.3693C21.9866 16.2273 20.9857 16.4166 20.2754 16.5428C19.7588 16.6375 19.3068 16.8741 18.8871 17.0792C18.0477 17.4579 17.1114 17.5367 16.3366 17.1108C14.9806 16.3693 13.7214 15.9906 11.9134 16.8426C11.2677 17.1581 10.2346 17.3001 9.33056 17.4736C7.65171 17.7734 6.90914 18.3256 6.84457 19.2091C6.81228 19.8402 7.26428 20.5501 6.102 21.1339C5.61771 21.3705 6.52171 21.5598 6.81228 21.7491C7.26428 22.0331 7.74857 21.97 8.20057 21.7491C8.78171 21.4809 9.23371 21.1812 9.29828 20.771C9.29828 20.6921 9.65342 20.5659 9.65342 20.5659C9.91171 20.6605 10.2991 20.7552 10.3314 20.8656C10.7188 22.4275 10.5574 22.538 7.68399 23.311C6.48942 23.6266 5.32714 23.9737 4.19714 24.3365C3.90657 24.4312 3.77743 24.6363 3.55143 24.7783C3.90657 24.8414 4.26171 24.9676 4.61685 24.9676C5.58542 24.9992 6.58628 24.9834 7.58714 24.9992C8.91085 25.0307 8.91085 25.0465 9.26599 26.1666C9.58885 26.2455 10.0408 26.2929 10.1054 26.4033C10.3314 26.7504 10.1377 27.2237 10.5574 27.4919C11.3646 28.0441 11.5583 28.4385 10.2668 28.8802C9.49199 29.1485 8.87856 29.5586 8.20057 29.89C9.71799 30.9154 8.03914 30.7419 6.81228 30.8523C6.102 30.9154 5.48857 31.231 4.746 31.3414C3.29314 31.5623 2.13086 32.1776 0.452 32.0672C0.322857 32.0514 0.161428 32.1776 0 32.2407C0.258286 32.3511 0.484285 32.5405 0.742571 32.5562C3.29314 32.5878 5.84371 32.572 8.39428 32.6036C8.55571 32.6036 8.94314 32.9033 8.87856 32.9349C8.29742 33.3135 7.29657 33.6291 7.07057 34.055C6.68314 34.7808 5.90828 34.9543 4.55228 34.8912C3.97114 34.8596 3.35771 34.8754 2.84114 34.9701C1.87257 35.1594 2.67971 35.3803 2.87343 35.5854C3.03485 35.7431 3.164 35.9167 3.32543 36.0745C3.90657 36.248 4.45543 36.5162 5.06885 36.5478C6.81228 36.6266 6.90914 37.1788 6.90914 37.7941C8.91085 37.9046 10.2346 37.2262 11.7197 36.8791C13.3986 36.5004 14.69 36.4846 15.8846 37.2104C16.5303 37.6048 17.3697 37.7941 18.4674 37.7626C19.6297 37.731 20.8243 37.8099 22.0188 37.8099C23.3748 37.8099 23.504 38.2201 23.6331 38.7565C23.7946 39.3718 24.0528 39.4665 24.7631 39.214C26.442 38.6145 28.7988 39.3718 30.284 38.5041C30.4131 38.6776 30.6714 38.8354 30.6714 39.0089C30.6714 39.3402 30.284 39.498 29.5737 39.5453C29.2185 39.5769 28.928 39.7189 28.5728 39.8135C28.8957 39.9082 29.154 40.0502 29.5091 40.0818C30.0903 40.1291 30.7037 40.1449 31.2848 40.1133C32.996 40.0186 34.1583 40.2869 34.8363 41.123C35.0945 41.4386 36.4505 41.2177 36.612 40.8075C36.7088 40.5235 36.5797 40.2237 36.7088 39.9398C36.7734 39.8135 37.1931 39.7347 37.4514 39.6558C37.4837 39.64 37.742 39.782 37.8388 39.8609C39.098 40.9021 40.3894 41.0284 41.3257 40.1291C42.1328 39.3402 43.1014 38.9616 44.9094 38.9616C46.4591 38.9458 48.2671 39.2614 49.494 38.7407C51.2697 37.9992 52.3674 39.072 53.8202 38.9458C54.3691 38.8985 54.9502 38.8512 55.4991 38.7723C56.048 38.6934 56.5322 38.5356 57.0811 38.4725C57.8237 38.3779 58.2434 39.0563 59.0828 38.725C59.7285 38.4725 60.6002 38.5041 61.2137 38.3305C63.4091 37.7626 65.766 37.8415 68.0905 37.8257C69.0914 37.8099 70.06 37.7941 71.0608 37.8099C71.8034 37.8257 73.0625 37.6679 73.1594 38.0466C73.2885 38.4567 72.0617 38.3148 71.4159 38.3936C69.9308 38.5672 68.7362 39.0878 66.9928 39.0247C65.2817 38.9616 63.8288 39.64 61.9562 39.5769C60.5357 39.5296 60.342 39.8451 61.2137 40.7286C61.6011 41.1388 61.1491 41.2492 60.6648 41.2808C59.6962 41.3439 58.6954 41.3281 57.7268 41.3755C57.5654 41.3755 57.404 41.4859 57.2425 41.5332C57.4685 41.6437 57.6945 41.8014 57.9528 41.833C58.534 41.8803 59.1151 41.8488 59.7285 41.8803C59.89 41.8961 60.1805 42.0381 60.1482 42.0696C60.0191 42.1958 59.8254 42.4009 59.5994 42.4167C58.8245 42.464 58.0174 42.4483 57.2425 42.4325C56.3385 42.4167 55.9834 42.1958 55.7897 41.7383C55.2408 40.492 54.466 40.1449 52.5288 40.1291C51.1405 40.1133 49.7523 40.1291 48.364 40.1291L42.9077 40.9337C41.5517 41.2808 41.5517 42.0538 40.7445 42.5745C40.454 42.748 40.5508 42.9373 41.0997 42.9689C42.0683 43.032 43.0691 42.9847 44.0377 43.032C44.6188 43.0636 45.0063 43.2844 45.0063 43.6C42.94 44.0259 41.0997 44.657 38.6783 44.8148C36.386 44.9726 34.2228 45.4616 31.8014 45.3354C30.6714 45.2881 29.4768 45.2408 28.3791 45.6194C27.2168 46.0296 26.4097 45.1461 25.1828 45.3354C24.4403 45.4459 23.4717 45.3196 22.9228 45.509C21.5023 46.0296 19.888 45.8718 18.3383 45.9192C17.1437 45.9665 15.9491 45.998 14.7868 45.9192C13.2694 45.8245 12.43 46.5187 10.9448 46.5502C9.26599 46.5818 9.26599 46.7396 9.36285 47.7335C9.45971 48.759 10.9448 49.2954 13.1726 49.0114C15.1743 48.759 17.0146 48.6485 18.5643 49.5005C18.9194 49.7056 19.5651 49.9265 20.0494 49.9107C22.1803 49.8476 24.3757 50.242 26.4097 49.6109C27.4751 49.2796 28.6697 49.39 29.7351 49.7371C30.058 49.8318 30.5745 49.9738 30.8005 49.9107C32.6085 49.3743 33.9968 49.8949 35.4497 50.2735C36.3214 50.4944 37.1931 50.6995 38.0325 50.9204C39.7437 51.3779 41.8745 50.9204 43.4888 51.5672C44.8125 50.952 46.4591 51.0939 48.0088 51.1886C49.7845 51.299 51.076 50.9835 52.1091 50.3209C52.5611 50.0369 53.0777 50.1473 53.562 50.3367C54.2722 50.6206 55.0148 50.6206 55.6928 50.3367C56.3062 50.1 56.8228 49.8002 57.4685 49.5794C57.5331 49.5636 57.5654 49.5478 57.5977 49.532C57.5977 49.5636 57.63 49.6267 57.8882 49.674C58.0174 49.7056 58.1465 49.8634 58.082 49.9107C57.7268 50.3209 57.3071 50.7311 56.9197 51.1413C56.3385 51.3464 55.6605 51.5357 55.1762 51.7881C54.0462 52.3561 54.5628 53.0818 54.7565 53.7129C54.8857 54.0915 56.048 53.9969 56.7905 54.0758C57.3394 54.1231 57.856 54.2808 58.3402 54.4386C58.6631 54.5333 59.0505 54.7226 59.0505 54.8646C59.0505 55.2117 58.4048 55.1959 57.856 55.2117C57.0811 55.2117 56.1448 55.2275 55.9188 55.6534C55.6928 56.0478 55.2408 56.3318 54.692 56.6C54.0785 56.8998 53.3682 56.9629 52.5288 56.9313C51.6248 56.8998 51.1405 56.7105 50.9791 56.2529C50.85 55.9059 50.3334 55.8743 49.8168 56.111C49.3971 56.3161 49.0097 56.5527 48.5254 56.6947C48.0734 56.8209 47.4277 56.9156 46.9434 56.8525C46.2977 56.7736 45.8134 56.2845 45.0063 56.6947C44.3605 57.026 43.0045 56.8525 42.714 57.4678C42.6494 57.6413 42.3588 57.7991 42.1651 57.9568C41.9068 57.7202 41.6485 57.4993 41.4225 57.2627C41.132 57.0102 40.7123 56.9787 40.6154 57.2153C40.2603 58.1462 38.8397 58.1777 37.516 58.0199C32.996 57.452 32.996 57.4204 29.2185 57.9568C27.6688 58.1777 26.1514 58.2408 24.7308 57.736C23.8268 57.4046 22.7291 57.4204 21.9866 57.6571C20.9211 57.9884 19.8557 58.0673 18.6934 58.1304C17.9186 58.1619 17.5311 58.651 18.08 59.0139C18.9194 59.5976 19.1131 60.4811 21.018 60.6073C22.374 61.4277 24.182 61.617 26.2483 61.5697C28.4114 61.5224 30.6068 61.4435 32.77 61.5697C35.03 61.7117 36.6443 60.6862 38.9688 60.9229C40.6477 61.0964 41.2611 59.7554 42.94 59.9132C44.5865 60.0709 46.0717 60.7651 47.7828 60.0394C48.1057 59.8974 48.3317 59.992 48.7514 60.1183C50.398 60.56 52.0768 60.5127 53.7557 60.0709C54.6597 59.8343 54.4982 60.276 54.7242 60.4969C54.8857 60.6547 55.2731 60.9544 55.3377 60.9386C56.7905 60.6547 58.7922 60.8124 59.5025 59.8658C61.246 59.85 62.9894 59.8343 64.7328 59.8027C65.8628 59.7869 66.6054 59.992 66.7022 60.5916C68.2842 61.0964 69.9308 61.8853 71.8357 61.4277C73.3854 61.0491 74.8059 61.0491 76.3557 61.0175C77.7117 60.986 79.2937 61.128 80.3591 60.8282C82.2639 60.2918 84.2334 60.3549 86.0414 60.4653C87.9139 60.5758 89.4636 59.6923 91.4977 60.3234C92.4985 60.6231 94.1774 60.4338 95.5334 60.4022C97.1476 60.3549 98.2131 61.1911 99.8596 60.9702C99.9565 60.7493 100.053 60.5127 100.699 60.5916C100.893 60.6231 100.99 60.8282 101.119 60.9702C101.442 61.0333 101.829 61.0806 102.055 61.2069C102.862 61.6171 103.702 61.6802 104.606 61.2857C105.187 61.0333 105.768 60.7809 106.381 60.5127C107.447 61.128 108.351 60.5758 109.352 60.4496C110.417 60.3234 112.064 61.2857 111.644 61.7748C111.515 61.9168 111.095 62.0746 110.772 62.0904C110.191 62.1377 109.384 62.185 109.061 62.043C107.866 61.5224 107.027 61.6959 106.22 62.2323C105.671 62.5952 105.058 62.6741 104.347 62.327C103.863 62.0904 103.282 62.1219 102.765 62.2639C101.99 62.4848 102.475 63.2578 101.022 63.2578C100.053 63.2421 99.0525 63.2894 98.0839 63.3052C97.8902 63.3052 97.6965 63.3052 97.5351 63.3052C96.5665 64.0151 96.0822 64.0151 95.1782 63.3052C94.7908 63.2894 94.4034 63.2736 93.9837 63.2578C93.5962 62.6899 92.9182 62.2639 91.5945 62.1535C91.4977 62.4217 91.1425 62.611 90.5937 62.6741C90.0125 62.7372 89.3991 62.6741 88.8502 62.753C88.5596 62.7845 88.2368 62.9896 88.1399 63.1474C87.9462 63.4472 88.3014 63.7154 88.8825 63.7942C89.4314 63.8731 90.0771 63.81 90.6259 63.8731C90.8842 63.9047 91.1102 64.0782 91.3362 64.1887C90.4968 64.5673 90.6582 65.3404 89.3991 65.5139C88.7211 65.6086 87.7525 65.5455 87.1714 65.3561C85.6539 64.8671 84.4271 64.9302 82.9097 65.3877C80.9402 65.9872 78.7448 66.3185 76.2911 66.1765C74.5477 66.0819 72.5459 66.3974 71.0608 66.0819C69.156 65.6875 67.4448 65.3877 65.5722 65.8768C63.8934 66.3027 61.7302 66.2081 60.4711 67.0758C60.2451 67.2336 59.212 67.3282 58.9214 67.2178C57.9851 66.8549 57.3071 66.8865 56.5322 67.3125C55.6928 67.7858 54.8211 67.9278 53.4651 67.6122C51.4957 67.1705 49.3648 67.0916 47.3631 67.6753C46.2331 68.0066 45.1031 67.9435 44.1023 67.5807C43.4565 67.344 43.166 67.5649 42.6494 67.6596C41.9714 67.7858 41.2288 67.8331 40.4863 67.912C39.9697 68.7166 38.0971 69.111 37.742 69.9945C37.7097 70.1049 36.6765 70.2154 36.1923 70.1681C35.4497 70.1049 34.804 69.8525 34.0614 69.7579C32.7377 69.5843 31.2848 69.3634 30.1225 69.8052C28.6374 70.3574 27.3783 70.3258 25.8286 69.8525C25.0537 69.6159 25.0537 70.0734 25.0214 70.3101C24.9891 70.7834 24.8923 71.2724 26.3128 71.3671C27.0554 71.4144 27.798 71.5406 28.5083 71.6826C30.4454 72.1086 32.6731 71.9035 34.578 72.4872C35.2883 72.7081 36.5151 72.503 37.4837 72.5346C38.3554 72.5504 39.0011 72.4241 39.55 72.0928C40.3248 71.6195 41.1643 71.304 42.3265 71.8404C43.3597 71.5722 44.3928 71.3355 45.3937 71.0358C45.7811 70.9096 45.9425 70.9411 46.3623 71.0831C46.9757 71.2882 47.7505 71.3986 48.4608 71.5722C50.3657 72.0455 52.1414 72.7081 54.1754 72.9605C56.3062 73.2288 57.856 72.0455 59.9868 71.9351C60.5357 71.9035 61.1168 71.8246 61.6334 71.6984C62.4728 71.4933 63.6674 71.3513 64.0225 71.0042C64.5714 70.4836 64.7005 70.4363 65.9597 70.6098C69.0268 71.02 69.5757 70.8938 75.3548 69.8052C76.1942 69.6474 76.8077 69.6632 77.4534 69.9472C78.0991 70.2312 78.8417 70.2943 79.5197 69.9787C80.2945 69.6159 81.2631 69.5212 82.2639 69.6001C83.6199 69.7263 84.5562 69.4108 85.2665 68.9217C86.1705 68.3222 86.7839 68.7955 87.6234 68.9532C88.3659 69.0952 89.0762 68.9217 89.2377 68.4799C90.3677 68.4799 91.5945 68.2591 92.5631 68.7008C93.5639 69.1583 94.7908 69.0164 95.9531 69.0164C96.8248 69.0164 97.4382 68.8586 97.5996 68.3853C97.6642 68.2275 97.9871 67.9435 98.2131 67.9435C100.182 67.9278 102.12 67.9435 104.089 67.9593C105.38 68.8428 106.381 67.8173 107.576 67.8331C108.028 67.8331 108.189 67.5333 107.866 67.4545C106.672 67.1547 105.413 66.9023 104.186 66.6183C104.024 66.5867 103.895 66.4921 103.734 66.429C103.863 66.3659 103.96 66.2712 104.089 66.2554C106.22 66.0188 108.415 65.7821 110.126 66.7287C111.224 67.3282 112.516 67.2967 113.904 67.2651C114.098 67.2651 114.324 67.2809 114.485 67.2494C114.679 67.2336 114.969 67.1547 114.969 67.1231C114.937 66.9811 114.905 66.8076 114.711 66.6972C114.356 66.4605 113.936 66.2554 113.516 66.0503C113.064 65.8452 113.129 65.719 113.71 65.6401C115.518 65.4193 117.165 65.5928 118.747 66.0819C118.973 66.145 119.457 66.003 119.812 65.9557C119.715 65.7979 119.715 65.5928 119.489 65.4981C119.07 65.2773 119.07 65.1668 119.586 65.0879C120.167 65.0091 120.652 65.0406 121.233 65.1826C122.782 65.577 122.847 65.5455 123.783 64.8828C124.138 64.6304 124.461 64.4095 125.107 64.4569C125.462 64.4884 125.785 64.6146 126.14 64.6777C128.594 65.0564 131.08 65.2457 133.469 64.5673C134.05 64.4095 134.728 64.2833 135.083 64.4726C136.246 65.1037 138.15 64.804 139.345 65.3246C140.055 65.6401 140.798 65.5297 141.444 65.2615C142.348 64.8828 143.219 64.4884 144.059 64.0782C144.769 63.7311 145.124 64.1098 145.447 64.2675C146.706 64.8986 146.642 65.151 145.156 65.5455C144.059 65.8294 143.994 65.9241 144.769 66.2712C145.156 66.4447 145.512 66.7445 146.222 66.4447C147.384 65.9399 148.127 65.0248 149.838 65.0564C152.324 65.0879 154.81 64.7093 157.36 65.3246C159.459 65.8294 161.945 65.8294 163.85 64.804C164.205 64.6146 164.851 64.4253 165.367 64.4253C167.53 64.3938 169.694 64.4253 171.857 64.4411C172.825 65.1826 173.988 64.2833 174.762 64.4726C176.603 64.9302 178.056 64.5989 179.444 64.1413C180.412 63.8258 181.09 63.7942 182.059 64.094C182.672 64.2833 183.512 64.3149 184.287 64.3622C185.288 64.4253 185.578 64.7093 185.546 65.1353C185.546 65.3246 185.514 65.5297 185.578 65.719C185.675 65.9872 185.869 66.2554 186.03 66.5236C186.934 66.3343 186.676 65.9399 186.708 65.5928C186.74 65.4035 186.644 65.1984 186.74 65.0091C186.805 64.8355 186.966 64.6304 187.225 64.5358C187.483 64.4411 187.967 64.3938 188.322 64.4253C188.871 64.4726 188.936 64.6462 188.645 64.8197C188.419 64.9775 188.096 65.1353 188.032 65.3088C187.903 65.577 187.935 65.9083 188.581 66.0503C189.388 66.2239 191.067 66.0976 191.39 65.8768C191.842 65.5612 191.39 65.9872 191.067 65.6401C190.841 65.4035 190.292 65.2141 190.905 64.9459C192.552 64.2044 194.392 63.7785 196.717 63.8258C197.847 63.8573 198.589 63.952 198.718 64.5831C198.783 64.8513 199.17 64.8828 199.558 64.7251C199.881 64.6146 200.365 64.3938 200.526 64.4411C201.947 64.8355 204.013 64.6304 204.724 65.7032C205.079 66.2396 206.144 66.1923 206.822 65.6086C207.242 65.2615 207.339 64.8197 208.081 65.4666C208.307 65.6717 208.146 66.1608 209.082 65.8294C210.18 65.4508 211.794 65.4666 212.472 64.7882C212.73 64.5358 212.795 64.1413 213.215 64.0467C214.086 63.8258 214.474 64.3149 214.99 64.5358C215.636 64.804 216.346 64.9775 217.154 64.9144C219.155 64.7251 221.06 63.9836 223.159 64.7724C224.87 64.0467 226.936 64.3622 228.841 64.3622C230.972 64.3622 233.232 64.1256 235.104 64.8986C236.848 64.804 238.624 65.1195 240.302 64.6462C240.787 64.5042 241.4 64.4253 241.949 64.4095C243.918 64.3622 245.952 64.236 247.89 64.378C250.182 64.5358 252.054 63.9205 254.153 63.8258C255.735 63.7627 257.317 63.7942 258.899 63.7942C260.287 63.7942 261.676 63.7627 263.064 63.7785C264.646 63.7785 266.454 63.5891 267.778 63.8889C269.327 64.236 270.554 64.3307 272.007 63.9678C275.332 64.9459 278.464 64.0782 281.467 63.5734C284.405 63.0843 287.214 63.1001 290.055 63.5103C291.023 63.6523 291.895 63.7785 292.896 63.7785C294.09 63.7942 295.64 63.5734 296.383 63.8731C297.868 64.4569 298.869 63.7785 300.096 63.7942C300.483 63.7942 300.903 63.7627 301.29 63.8258C305.293 64.3938 305.293 64.4253 309.652 63.9362C311.299 64.5989 312.848 63.4156 314.43 63.8731C315.334 64.1256 315.98 64.0467 316.981 63.9678C319.661 63.7469 322.373 63.6207 325.085 64.1729C327.086 64.5831 329.443 64.5831 331.413 64.1729C332.769 63.8731 334.06 63.8258 335.384 63.8416C338.096 63.8731 340.905 63.4629 343.423 64.3149C343.552 64.3622 343.875 64.3622 344.004 64.3149C345.844 63.5103 348.395 64.1413 350.171 63.6838C352.301 63.1316 354.4 63.2894 356.499 63.2421C358.662 63.1947 360.857 63.2421 363.053 63.2578C364.376 64.1729 366.217 63.3052 367.734 63.5891C369.639 63.9362 371.608 63.7469 373.545 63.8416C374.32 63.8889 375.095 63.9362 375.805 64.0782C377.517 64.4569 379.163 64.5042 380.874 64.0625C382.585 63.6049 384.813 63.9993 386.395 63.2578C386.686 63.1158 387.751 63.1474 388.106 63.3052C389.656 63.9678 391.464 63.7154 393.207 63.7942C396.113 63.9362 399.148 63.4629 401.86 64.3307C405.185 64.3307 408.543 64.6935 411.707 63.8416C413.451 64.0151 413.806 63.2263 414.677 62.8003C416.033 63.3367 417.745 63.3367 419.23 63.2105C421.716 63.0212 423.717 63.7785 426.074 63.7785C430.045 63.7627 433.984 63.7785 437.955 63.81C439.021 63.81 439.86 63.668 440.57 63.2736C441.216 62.895 442.249 62.7845 443.024 62.5321C444.38 62.0746 445.284 62.0588 446.705 62.469C447.932 62.8161 449.385 62.6899 450.321 62.0272C451.289 61.3646 452.774 61.27 454.034 61.5066C456.035 61.901 458.134 61.9799 460.136 62.2481C464.042 62.7845 465.979 62.8003 470.37 62.185C470.951 62.1061 471.468 62.043 472.017 62.2323C474.148 63.0212 476.634 62.4532 478.926 62.5952C480.088 62.6583 481.218 62.6583 482.284 62.2323C483.091 61.901 484.576 61.8695 484.931 62.2639C485.9 63.4156 487.385 63.3683 489.064 62.8476C489.903 62.5952 490.064 62.9423 490.516 63.037C491.485 63.2421 492.486 63.3052 493.293 62.9896C493.906 62.753 492.098 62.4059 493.196 62.1377C493.842 61.9799 494.94 62.1377 495.424 61.9326C497.232 61.1911 498.878 60.3391 500.59 59.5345C500.299 59.1085 499.912 58.6983 499.75 58.2566C499.524 57.7202 500.396 57.31 501.461 57.4047C503.366 57.5624 505.11 58.0831 507.111 57.9726C507.24 57.9726 507.434 58.0673 507.563 58.1304C507.822 58.2566 507.66 58.4932 507.176 58.4932C505.4 58.4617 506.014 59.6607 504.528 59.7238C504.496 59.992 504.496 60.276 504.367 60.5285C504.238 60.7967 503.947 60.7967 503.528 60.6704C503.108 60.5442 502.591 60.2287 502.139 60.6389C501.687 61.0491 501.268 61.4751 500.977 61.9168C500.783 62.2166 501.171 62.5163 501.752 62.5794C502.882 62.6899 504.076 62.6741 505.239 62.7845C505.981 62.8476 506.659 63.0685 507.402 63.1474C508.241 63.2578 509.113 62.9896 509.178 62.6425C509.242 62.1535 509.242 61.6802 509.274 61.1911C509.307 60.6073 508.693 60.3391 507.563 60.2445C507.047 60.1971 506.95 59.9605 507.273 59.8658C508.08 59.6134 509.178 59.4872 509.694 59.1401C510.727 58.4617 511.534 58.8877 512.535 59.0928C513.149 59.2348 513.633 59.0139 513.536 58.6983C513.472 58.4775 512.503 58.3039 513.407 58.0042C515.732 57.1996 518.734 57.594 521.156 56.884C521.543 56.7578 522.576 57.2311 523.157 57.1522C524.255 56.9945 525.256 56.6631 526.224 56.3476C527.29 56.0163 527.258 55.2275 526.128 54.8804C524.416 54.6122 522.996 54.0758 521.156 54.0758ZM489.903 38.3936C489.903 38.3779 489.935 38.3621 489.968 38.3305L490.064 38.3779C490 38.3936 489.935 38.3936 489.903 38.3936C489.806 38.5199 489.677 38.6461 489.548 38.7723C489.516 38.7881 489.193 38.7723 489.193 38.7565C489.064 38.441 489.451 38.4094 489.903 38.3936ZM485.77 22.8062C485.835 22.7904 485.996 22.8535 486.093 22.8851C486.093 22.9482 486.061 22.9955 486.061 23.0586C485.835 23.0271 485.609 22.9797 485.383 22.9482C485.512 22.9008 485.609 22.8377 485.77 22.8062ZM466.916 21.055C467.045 21.1023 467.142 21.1654 467.271 21.2127C467.142 21.2601 467.013 21.3074 466.883 21.3547C466.754 21.3232 466.657 21.3074 466.528 21.2758C466.657 21.2127 466.786 21.1339 466.916 21.055ZM466.173 23.2322C466.205 23.2322 466.205 23.2322 466.238 23.2322C466.238 23.2322 466.238 23.2479 466.27 23.2637C466.851 23.2637 467.4 23.2479 467.981 23.2637C469.595 23.3268 470.564 22.4275 472.372 22.6326C473.696 22.7904 475.116 22.68 476.504 22.6957C478.086 22.6957 479.668 22.68 481.218 22.6957C482.736 22.7115 483.317 23.3268 482.671 24.1157C482.607 24.1945 482.413 24.2577 482.284 24.3208C482.154 24.2577 481.896 24.1945 481.864 24.1157C481.67 23.6108 481.25 23.2322 479.991 23.2953C479.216 23.3268 478.345 23.2006 477.667 23.3268C476.795 23.4846 476.085 23.8317 474.987 23.8159C472.243 23.7528 469.498 23.7528 466.754 23.6897C466.593 23.6897 466.431 23.4373 466.27 23.2795C466.238 23.2795 466.238 23.2795 466.205 23.2795C466.173 23.2479 466.173 23.2479 466.173 23.2322C465.624 23.2322 465.075 23.2322 464.526 23.2164C464.365 23.2164 464.107 23.0428 464.139 23.0271C464.301 22.9008 464.494 22.7273 464.753 22.6957C465.592 22.6169 466.141 22.7746 466.173 23.2322ZM463.913 20.3923C464.204 20.4712 464.462 20.5659 464.753 20.6448C464.204 20.8656 463.622 21.1023 463.041 21.3074C463.041 21.3074 462.719 21.1812 462.686 21.1023C462.622 21.0076 462.622 20.8972 462.654 20.8183C462.783 20.5659 463.267 20.3923 463.913 20.3923ZM442.669 17.4736C443.153 17.4894 443.379 17.4579 443.573 17.5052C443.928 17.5683 444.251 17.6787 444.574 17.7576C444.251 17.8523 443.928 17.9469 443.573 18.0258C443.412 18.0574 443.153 18.0574 442.992 18.0258C442.443 17.9469 441.927 17.8365 441.41 17.7418C441.927 17.6314 442.411 17.521 442.669 17.4736ZM435.663 17.5999C435.792 17.5999 435.954 17.5683 436.051 17.5999C436.341 17.6945 436.276 17.8207 435.824 17.8996C435.76 17.9154 435.566 17.805 435.502 17.7418C435.469 17.7103 435.599 17.6472 435.663 17.5999ZM434.404 12.4251C434.533 12.3304 434.888 12.2989 435.179 12.2515C435.179 12.2358 435.211 12.2042 435.211 12.1884L435.308 12.2358C435.276 12.2515 435.211 12.2515 435.179 12.2515C435.082 12.3935 435.017 12.5513 434.824 12.6144C434.501 12.7091 434.21 12.5671 434.404 12.4251ZM429.561 17.1423C429.561 17.1266 433.694 17.5841 433.694 17.5999C433.726 17.663 433.791 17.7261 433.791 17.805C433.758 18.0732 432.144 18.5938 431.498 18.5465C430.53 18.4834 429.497 17.9312 429.4 17.4105C429.367 17.3159 429.496 17.2212 429.561 17.1423ZM427.656 17.5525C427.785 17.6156 427.882 17.663 428.011 17.7261C427.882 17.7734 427.753 17.8207 427.624 17.8681C427.495 17.8365 427.366 17.805 427.269 17.7892C427.366 17.7103 427.527 17.6314 427.656 17.5525ZM77.6148 13.2297C77.3888 13.1508 77.3242 12.9457 77.1951 12.7879C77.1951 12.7879 77.1951 12.7879 77.1628 12.7879C76.6139 12.7722 76.0328 12.7722 75.4839 12.7406C75.3225 12.7248 75.0965 12.5671 75.0965 12.5671C75.2902 12.4408 75.4839 12.2831 75.7422 12.2515C76.6462 12.1411 77.1305 12.3462 77.1628 12.8037C77.1628 12.8037 77.1628 12.8037 77.1628 12.8195C77.4857 12.8826 77.9054 12.9142 78.0345 13.0404C78.2605 13.1666 77.9377 13.3243 77.6148 13.2297ZM45.7811 14.6969C45.9748 14.76 46.0394 14.9178 46.1362 15.0598C46.2008 15.0598 46.2331 15.0756 46.2977 15.0756L46.2008 15.1229C46.1685 15.1071 46.1685 15.0756 46.1685 15.044C45.878 14.9967 45.5551 14.9809 45.3937 14.8862C45.1354 14.76 45.4583 14.6023 45.7811 14.6969ZM48.7837 29.9215C49.0742 29.8426 49.3648 29.7164 49.6877 29.7006C50.398 29.6533 50.9468 29.8742 50.624 30.0319C50.398 30.1424 49.9782 30.2213 49.6877 30.1897C49.3648 30.1739 49.0742 30.0162 48.7837 29.9215ZM34.9331 19.2564C35.1268 19.3984 35.2883 19.5562 35.482 19.6982C35.3528 19.8559 35.2237 20.0137 35.0945 20.1715C34.8685 20.0926 34.3843 19.9979 34.4165 19.9506C34.5457 19.7139 34.7717 19.4931 34.9331 19.2564ZM29.9288 19.4142C30.1871 19.4457 30.6391 19.4931 30.6714 19.5719C30.7683 19.8086 30.736 20.061 30.7037 20.2977C30.736 20.2977 30.7683 20.3135 30.8328 20.3135C30.8651 20.345 30.8651 20.3608 30.8974 20.3923C31.3171 20.4081 31.7045 20.4397 31.6077 20.7394C31.6077 20.7552 31.2526 20.7868 31.2526 20.7552C31.1234 20.6448 31.0265 20.5028 30.8974 20.3923C30.8328 20.3923 30.7683 20.3923 30.7037 20.3923C30.7037 20.3608 30.7037 20.345 30.7037 20.3135C29.9288 20.2661 29.5414 20.0295 29.6383 19.6193C29.6383 19.5404 29.832 19.4142 29.9288 19.4142ZM24.2143 19.8717C24.3434 19.9348 24.4726 20.0137 24.6017 20.0768C24.4726 20.1399 24.3111 20.1872 24.182 20.2504C24.0528 20.1872 23.8591 20.1084 23.8591 20.061C23.8591 19.9821 24.0851 19.919 24.2143 19.8717ZM13.6568 35.3014C13.4954 35.2383 13.334 35.1752 13.1403 35.1278C13.2694 35.0805 13.3986 34.9859 13.4954 34.9859C13.6246 34.9859 13.7214 35.0963 13.8183 35.1436C13.786 35.191 13.7214 35.2541 13.6568 35.3014ZM14.916 32.3985C14.3348 32.7613 13.6891 33.1242 12.6237 33.0611C12.3331 33.0453 11.9457 32.8875 11.8488 32.7613C11.752 32.6193 11.8166 32.3669 12.0103 32.2565C12.7206 31.8778 13.6891 31.9567 14.6254 32.0356C14.7868 32.0514 14.916 32.146 15.0774 32.1934C15.0128 32.2565 14.9806 32.3354 14.916 32.3985ZM15.0451 31.1521C14.8837 31.3414 14.5608 31.3099 14.2057 31.1205C13.4631 30.7419 12.4946 30.8208 11.5583 30.7735C11.2677 30.7577 11.0094 30.5999 10.7188 30.5053C11.0417 30.4264 11.3323 30.3002 11.6551 30.2528C12.0103 30.2055 12.3977 30.237 12.7851 30.237V30.2528C13.334 30.2528 13.9474 30.2055 14.464 30.2686C14.7546 30.3002 15.0774 30.4895 15.1743 30.6315C15.3034 30.7892 15.1743 30.9943 15.0451 31.1521ZM15.8846 21.9858C15.7231 21.7491 15.4971 21.5283 15.4003 21.2916C15.4003 21.2601 15.8523 21.1654 16.1106 21.1181C16.2397 21.2758 16.4657 21.4336 16.4334 21.5756C16.4011 21.7176 16.0783 21.8438 15.8846 21.9858ZM27.798 34.3075C27.6043 34.4494 27.2168 34.5283 26.9908 34.6545C26.6034 34.8439 26.3451 34.8281 26.1837 34.5757C26.1191 34.4968 26.1191 34.4179 26.0868 34.3548C26.0546 34.0077 26.4743 33.8499 27.0554 33.8184C27.3783 33.8026 27.7334 33.8815 28.0563 33.913C27.9594 34.0235 27.9594 34.197 27.798 34.3075ZM67.5094 32.2091C67.2188 32.3827 66.3148 32.5562 66.0242 32.4616C65.1525 32.2091 64.5714 32.004 63.5705 32.43C62.828 32.7456 61.6334 32.6824 60.8262 32.3669C60.0191 32.0514 59.5671 32.1934 58.9214 32.4773C57.5977 33.0453 57.5008 33.0611 56.2094 32.4616C55.1117 31.9567 54.692 32.0672 54.4337 32.7456C54.3691 32.8875 53.9171 33.0769 53.6265 33.0926C52.658 33.1558 51.6571 33.1242 50.6562 33.1558C48.3317 33.2031 46.0394 33.0926 43.7794 33.6448C42.6494 33.913 40.5508 34.0866 40.0988 32.8875C39.9697 32.5878 39.1303 32.5405 38.5814 32.6351C37.8711 32.7613 37.1608 32.9507 36.5474 33.1873C35.03 33.7868 33.2543 33.7237 31.4785 33.7553C30.3163 33.7868 29.7351 33.5186 29.4445 32.9507C29.2831 32.6036 28.7666 32.3196 28.3791 32.004C25.6671 31.9883 22.9228 31.6727 20.3723 32.4773C19.7911 32.6667 18.8548 32.3354 18.8871 31.8621C18.9194 31.1679 18.4351 30.7892 17.0146 30.7104C16.8531 30.6946 16.7563 30.5841 16.6271 30.521C16.7886 30.4579 16.95 30.3633 17.1114 30.3633C17.8863 30.3475 18.6611 30.2844 19.4037 30.3633C20.2431 30.4421 24.5371 30.4264 25.4734 30.3159C26.216 30.237 27.0554 30.1897 27.798 30.2528C28.6697 30.3159 29.5414 30.5999 30.4131 30.6157C31.1234 30.6315 31.8337 30.379 32.544 30.2528C32.7054 30.2213 32.9637 30.237 33.1251 30.2686C33.4803 30.3475 33.9968 30.4106 34.0614 30.5368C34.2551 30.7892 34.3197 31.1205 33.7063 31.2941C33.222 31.4361 32.6408 31.4992 32.1565 31.6727C31.8014 31.7989 31.9951 32.3985 32.4148 32.4142C33.5771 32.4458 34.7394 32.5247 35.9017 32.4773C36.5151 32.4458 36.6443 32.0987 36.612 31.7989C36.5797 31.4834 35.0945 31.2783 36.1923 30.8997C36.5797 30.7735 37.2577 30.8523 37.8388 30.8523C37.8388 30.8366 37.8388 30.8208 37.8388 30.805C37.8711 30.805 37.9034 30.805 37.968 30.805C38.0971 30.6315 38.194 30.3948 38.3231 30.379C39.6791 30.3002 41.0351 30.2213 42.3911 30.2528C43.6503 30.2844 44.6834 30.1739 45.652 29.7795C46.0717 29.606 47.2663 29.8111 47.1371 29.9373C46.9757 30.1108 46.6528 30.237 46.3945 30.3948C45.8457 30.7104 45.2 30.8366 44.3283 30.8208C42.1974 30.805 40.0665 30.805 37.9357 30.805C37.9357 30.8208 37.9034 30.8366 37.9034 30.8523C37.8711 30.8523 37.8388 30.8523 37.8065 30.8523C37.8388 31.1363 37.742 31.4361 37.968 31.6727C38.3554 32.0829 39.2594 32.0198 40.0343 32.004C40.6154 32.004 41.4225 32.0829 41.7777 31.9409C43.2951 31.3099 45.1031 31.4519 46.8465 31.4203C48.59 31.3888 50.4625 31.5781 51.8508 30.8366C54.5951 30.8839 57.3717 30.8839 60.0837 31.0417C60.8262 31.089 61.3105 31.1048 62.0854 31.0259C63.9902 30.8523 65.992 30.8839 67.9291 30.8523C68.1228 30.8523 68.5102 31.1205 68.4457 31.1994C68.2197 31.5465 67.9937 31.9252 67.5094 32.2091ZM72.0294 31.2152C71.3514 31.2783 71.3191 31.0732 71.2868 30.8681C71.2545 30.8681 71.2222 30.8523 71.1899 30.8366C71.1577 30.8208 71.1577 30.7892 71.1577 30.7735C70.8671 30.7261 70.5119 30.7104 70.3505 30.5999C70.1245 30.4579 70.4474 30.3002 70.8025 30.3948C70.9962 30.4579 71.0608 30.6315 71.1577 30.7735C71.1899 30.7735 71.2545 30.7892 71.2868 30.7892C71.2868 30.8208 71.2868 30.8366 71.3191 30.8681C71.5774 30.9155 71.868 30.9628 72.1262 31.0417C72.1262 31.0417 72.0617 31.1994 72.0294 31.2152ZM45.4583 43.9944C45.2645 43.9313 45.2 43.7735 45.1354 43.6473C45.0708 43.6473 45.0385 43.6315 44.974 43.6315L45.0708 43.5842C45.1031 43.6 45.1031 43.6315 45.1031 43.6631C45.3937 43.7104 45.7165 43.742 45.8457 43.8209C46.0717 43.9628 45.7811 44.1048 45.4583 43.9944ZM52.5934 43.9628C52.432 43.9471 52.2382 43.6789 52.2705 43.5369C52.3028 43.3949 52.5934 43.2687 52.7871 43.1424C52.9485 43.2687 53.2068 43.3949 53.2714 43.5211C53.3037 43.742 53.2714 44.0259 52.5934 43.9628ZM57.404 51.583C57.2102 51.5199 57.1457 51.3464 57.0488 51.2044C57.0165 51.2044 56.952 51.1886 56.9197 51.1886L57.0165 51.1413C57.0488 51.157 57.0488 51.1886 57.0488 51.2044C57.3394 51.2517 57.6945 51.2833 57.8237 51.3779C58.0174 51.5357 57.7268 51.6777 57.404 51.583ZM59.2442 59.9132C59.212 59.8816 59.212 59.8658 59.1797 59.8343C58.7922 59.8027 58.3402 59.8027 58.4694 59.4714C58.4694 59.4556 58.8245 59.4399 58.8568 59.4556C58.986 59.5661 59.0828 59.6923 59.1797 59.8185C59.2442 59.8185 59.3088 59.8343 59.3734 59.8343L59.2442 59.9132ZM60.9231 50.9677C60.794 50.81 60.568 50.6522 60.6002 50.5102C60.6325 50.3682 60.9554 50.242 61.246 50.0527C61.4074 50.3367 61.5688 50.5575 61.6011 50.7942C61.6011 50.8415 61.1491 50.9046 60.9231 50.9677ZM68.1874 54.5491C68.0582 54.4859 67.9291 54.4228 67.7999 54.344C67.9291 54.2808 68.0905 54.1704 68.2197 54.1704C68.3811 54.1704 68.478 54.2966 68.6071 54.3597C68.478 54.4228 68.3488 54.4859 68.1874 54.5491ZM75.3548 37.6837C75.2257 37.6206 75.0965 37.5575 74.9674 37.4944C75.0965 37.4313 75.2579 37.3366 75.3871 37.3366C75.5485 37.3366 75.6777 37.447 75.8068 37.5101C75.6454 37.5732 75.5162 37.6206 75.3548 37.6837ZM93.2411 33.6133C93.1119 33.5975 92.9828 33.5028 92.8536 33.4397C92.9828 33.3766 93.1442 33.3135 93.2734 33.2504C93.4025 33.3135 93.5316 33.3924 93.6608 33.4555C93.4994 33.5028 93.3702 33.6133 93.2411 33.6133ZM98.2131 32.9191C98.0839 33.0138 97.7934 33.0453 97.5028 33.0769C97.5028 33.1084 97.4705 33.14 97.4705 33.1558C97.4059 33.1558 97.3414 33.1558 97.2768 33.1558C97.1476 33.282 97.0508 33.4082 96.9216 33.5344C96.8894 33.5502 96.5342 33.5186 96.5342 33.5028C96.4697 33.2031 96.8571 33.1715 97.2768 33.1715C97.3091 33.1558 97.3091 33.1242 97.3414 33.1084C97.4059 33.0926 97.4705 33.0926 97.5028 33.0769C97.5674 32.9507 97.6319 32.8087 97.7934 32.7456C98.1162 32.6509 98.4068 32.7771 98.2131 32.9191ZM106.349 32.5405C106.058 32.6667 105.768 32.7929 105.445 32.9191C105.09 33.0611 104.735 32.998 104.638 32.7298C104.476 32.3038 105.025 32.004 105.897 32.004C106.058 32.0356 106.252 32.0514 106.414 32.0987C106.769 32.2091 106.736 32.3669 106.349 32.5405ZM89.4637 68.1171C89.3022 68.2591 89.2054 68.4168 89.0762 68.5588C89.1085 68.5588 89.1085 68.5746 89.1408 68.5746L89.0117 68.6219C89.0439 68.6062 89.0439 68.5746 89.0762 68.5588C87.7525 68.2275 86.3965 67.912 84.8791 67.8962C84.7177 67.8962 84.5885 67.7858 84.4271 67.7227C84.5885 67.6596 84.7177 67.5491 84.8791 67.5491C86.4288 67.5176 87.9785 67.4229 89.4959 67.5176C90.3999 67.5649 89.6897 67.8962 89.4637 68.1171ZM92.9505 63.5891C93.0797 63.4945 93.4348 63.4629 93.7254 63.4156C93.7254 63.384 93.7576 63.3683 93.7576 63.3367L93.8545 63.384C93.8222 63.3998 93.7576 63.3998 93.6931 63.3998C93.5962 63.5418 93.5316 63.6996 93.3379 63.7627C93.0474 63.8889 92.7568 63.7311 92.9505 63.5891ZM95.9208 67.1705C95.1136 67.4229 94.2419 67.5964 93.3056 67.8331C93.1442 67.77 92.7245 67.6753 92.7245 67.5807C92.6922 66.9969 92.6922 66.429 91.7236 65.9872C92.0142 65.9083 92.4016 65.719 92.5631 65.7506C93.7576 66.0188 94.9199 66.3185 96.0499 66.6656C96.2114 66.6972 96.1145 67.1074 95.9208 67.1705ZM119.457 60.9229C118.004 61.0806 116.906 61.7906 115.228 61.6013C115.228 61.6171 115.26 61.6171 115.26 61.6328C115.228 61.6486 115.163 61.6486 115.131 61.6486C115.034 61.7906 114.969 61.9484 114.776 62.0115C114.453 62.1061 114.162 61.9641 114.356 61.8221C114.485 61.7275 114.84 61.6959 115.098 61.6486C115.098 61.6328 115.131 61.6013 115.131 61.5855C115.163 61.5855 115.163 61.5855 115.195 61.5855C115.034 61.1595 114.356 61.0649 113.581 60.986C113.097 60.9229 112.968 60.6862 113.29 60.6073C114.485 60.3391 115.68 60.0394 116.939 59.8658C117.972 59.7238 118.747 60.0867 119.36 60.4653C119.78 60.6704 119.844 60.8755 119.457 60.9229ZM119.554 7.40806C119.263 7.5185 118.94 7.36073 119.134 7.20296C119.263 7.1083 119.618 7.07675 119.909 7.02942C119.909 7.01364 119.941 6.98208 119.941 6.96631C119.974 6.96631 120.006 6.96631 120.038 6.96631C120.103 6.54034 120.684 6.4299 121.491 6.46145C121.652 6.47723 121.943 6.55611 121.911 6.58767C121.846 6.71388 121.749 6.9032 121.588 6.91898C121.071 6.96631 120.555 6.95053 120.038 6.96631C120.038 6.98208 120.006 6.99786 120.006 7.01364C119.974 7.02942 119.909 7.02942 119.877 7.02942C119.812 7.15563 119.78 7.32917 119.554 7.40806ZM122.879 31.8621C122.524 31.9094 122.137 31.9252 121.491 31.9567C121.168 31.8936 120.652 31.7832 120.135 31.6727C120.684 31.5938 121.2 31.4834 121.749 31.4361C122.104 31.4045 122.492 31.4519 122.879 31.4992C123.041 31.515 123.17 31.6254 123.331 31.6885C123.202 31.7516 123.041 31.8463 122.879 31.8621ZM128.497 6.60344C127.561 7.06097 126.431 7.07675 125.301 6.82432C125.075 6.77699 125.01 6.58767 124.881 6.4299C124.816 6.4299 124.752 6.4299 124.687 6.4299C124.687 6.39834 124.655 6.38257 124.623 6.35101C124.203 6.35101 123.816 6.31946 123.912 6.00392C123.912 5.98815 124.268 5.95659 124.3 5.97237C124.429 6.09859 124.526 6.2248 124.623 6.35101C124.687 6.35101 124.752 6.35101 124.816 6.35101C124.849 6.36679 124.849 6.39834 124.881 6.41412C126.043 6.47723 126.98 6.20902 127.884 5.87771C128.11 5.79883 128.755 5.86193 128.949 5.95659C129.498 6.27213 128.82 6.44567 128.497 6.60344ZM131.338 6.85587C131.241 6.82432 131.144 6.80854 131.015 6.77699C131.144 6.6981 131.241 6.60344 131.37 6.52456C131.467 6.58767 131.661 6.65077 131.661 6.6981C131.661 6.76121 131.467 6.80854 131.338 6.85587ZM136.246 6.80854C136.149 6.84009 136.084 6.87165 136.052 6.87165C135.503 6.72966 135.535 6.60344 136.084 6.50878C136.213 6.57189 136.342 6.635 136.504 6.6981C136.407 6.71388 136.342 6.76121 136.246 6.80854ZM143.413 6.16169C143.284 6.2248 143.122 6.31946 142.961 6.31946C142.089 6.35101 141.185 6.36679 140.281 6.36679C140.281 6.38257 140.249 6.39834 140.249 6.41412C140.217 6.41412 140.184 6.41412 140.152 6.41412C140.12 6.87165 139.506 6.99786 138.699 6.93475C138.57 6.91898 138.473 6.87165 138.376 6.80854C138.28 6.74543 138.183 6.68233 138.086 6.61922C138.15 6.58767 138.215 6.55611 138.312 6.50878C138.376 6.47723 138.473 6.44567 138.538 6.44567C139.087 6.41412 139.603 6.41412 140.152 6.39834C140.152 6.38257 140.152 6.36679 140.152 6.35101C140.184 6.35101 140.217 6.35101 140.249 6.35101C140.346 5.92504 140.927 5.78305 141.734 5.83038C142.283 5.86193 142.8 5.92504 143.316 5.98815C143.413 6.0197 143.478 6.14592 143.413 6.16169ZM197.944 12.078C197.395 11.9675 197.427 11.8256 197.976 11.7467C198.04 11.7309 198.202 11.8571 198.331 11.9202C198.202 11.9833 198.008 12.0938 197.944 12.078ZM209.922 29.5271C209.825 29.464 209.696 29.4009 209.566 29.3535C209.437 29.2904 209.373 29.2273 209.34 29.1642C209.308 29.0065 209.566 28.8487 209.696 28.6751C209.889 28.7856 210.083 28.9118 210.277 29.0222C210.18 29.1642 210.051 29.3062 209.954 29.4482C209.954 29.4798 209.922 29.4955 209.922 29.5271ZM215.152 12.6459C215.055 12.7406 214.926 13.0246 214.571 13.2139C214.377 13.3243 213.86 13.3243 213.505 13.2928C212.956 13.2455 212.956 13.1192 213.215 12.9142C213.602 12.5986 213.86 12.2515 214.216 11.9202C214.312 11.8413 214.474 11.7782 214.603 11.7151C214.797 11.8729 215.023 12.0307 215.152 12.1884C215.216 12.2673 215.152 12.3777 215.152 12.6459ZM233.781 13.1981C233.619 13.135 233.426 13.0877 233.264 13.0246C233.393 12.9773 233.522 12.8826 233.619 12.8826C233.748 12.8826 233.845 12.9773 233.942 13.0404C233.91 13.0877 233.845 13.1508 233.781 13.1981ZM241.271 29.7637C241.239 29.8742 240.851 29.9531 240.625 30.0319C240.593 30.0477 240.302 29.9215 240.27 29.8426C240.206 29.5902 240.238 29.3378 240.206 29.1011C240.173 29.1011 240.141 29.0853 240.109 29.0853C240.076 29.0696 240.076 29.038 240.076 29.0065C239.786 28.9591 239.463 28.9276 239.334 28.8329C239.108 28.6909 239.398 28.5332 239.754 28.6436C239.947 28.7067 240.012 28.8645 240.109 29.0065C240.173 29.0065 240.206 29.0222 240.27 29.0222C240.27 29.038 240.27 29.0696 240.27 29.0853C241.045 29.1327 241.432 29.3535 241.271 29.7637ZM244.08 12.4251C244.144 12.3777 244.726 12.4251 244.919 12.5197C245.339 12.6933 245.662 12.9142 246.017 13.1192C245.823 13.1824 245.694 13.2455 245.5 13.277C244.726 13.4348 243.983 13.277 243.822 12.9142C243.789 12.7564 243.918 12.5513 244.08 12.4251ZM246.275 29.606C245.759 29.6691 245.145 29.6218 244.596 29.6218V29.6375C244.209 29.6375 243.822 29.6849 243.466 29.6218C243.208 29.5744 243.014 29.4324 242.853 29.2904C242.821 29.2589 243.014 29.1327 243.111 29.0538C243.854 28.5489 244.855 28.4069 246.082 28.5174C246.663 28.5805 247.05 28.7067 247.179 29.0222C247.341 29.4324 246.76 29.5429 246.275 29.606ZM250.698 29.0222C250.472 29.0065 250.279 28.8329 250.053 28.7225C250.408 28.6594 250.731 28.5489 251.086 28.5647C251.344 28.5805 251.538 28.754 251.796 28.8645C251.409 28.9118 251.021 29.0222 250.698 29.0222ZM255.057 12.6775C254.992 12.6617 254.96 12.6459 254.896 12.6302C254.831 12.6144 254.799 12.5986 254.734 12.5828C254.863 12.504 254.96 12.4093 255.089 12.3304C255.186 12.3935 255.315 12.4408 255.412 12.504C255.315 12.5671 255.186 12.6144 255.057 12.6775ZM256.93 4.58402C256.607 4.58402 256.252 4.47358 255.929 4.41047C256.155 4.31581 256.381 4.14227 256.639 4.12649C256.962 4.11071 257.285 4.23693 257.672 4.31581C257.382 4.41047 257.156 4.56824 256.93 4.58402ZM267.035 4.20537C267.164 4.2527 267.293 4.31581 267.39 4.36314C267.261 4.41047 267.132 4.4578 267.003 4.50513C266.874 4.47358 266.744 4.4578 266.648 4.42625C266.777 4.36314 266.906 4.28426 267.035 4.20537ZM268.197 13.7503C267.358 13.987 266.389 14.0343 265.614 13.7345C265.356 13.6241 265.227 13.1824 265.453 13.0561C266.099 12.6933 267.713 12.7248 268.488 13.0404C268.552 13.0561 268.552 13.1035 268.585 13.1508C268.585 13.1981 268.617 13.2455 268.617 13.277C268.456 13.4506 268.423 13.6872 268.197 13.7503ZM276.462 5.10465C275.978 5.19931 275.462 5.30975 275.074 5.00999C275.01 4.96266 275.01 4.85222 275.074 4.83644C275.397 4.77334 275.72 4.72601 276.043 4.67868C276.333 4.75756 276.624 4.85222 276.882 4.9311C276.721 4.99421 276.592 5.0731 276.462 5.10465ZM279.562 1.1289C278.916 1.19201 278.335 0.955358 278.658 0.79759C278.852 0.687153 279.271 0.608269 279.562 0.624045C279.723 0.624045 279.852 0.671376 279.982 0.734483C280.111 0.781813 280.24 0.84492 280.401 0.892251C280.111 0.971135 279.852 1.09735 279.562 1.1289ZM288.473 1.57065C288.408 1.60221 288.311 1.61798 288.247 1.63376C287.181 1.8073 285.954 1.68109 285.018 2.10706C284.728 2.24905 283.468 1.79153 283.404 1.5391C283.372 1.47599 283.404 1.34978 283.436 1.334C285.083 1.01846 286.729 1.01846 288.408 1.28667C288.473 1.30245 288.537 1.31822 288.57 1.36555C288.602 1.39711 288.666 1.42866 288.699 1.46021C288.634 1.50754 288.537 1.5391 288.473 1.57065ZM301.387 5.10465C301.258 5.10465 301.129 4.99421 301 4.9311C301.161 4.868 301.29 4.75756 301.452 4.75756C301.581 4.75756 301.71 4.88377 301.839 4.96266C301.678 5.00999 301.516 5.10465 301.387 5.10465ZM313.203 5.71994C312.816 5.76727 312.429 5.78305 312.041 5.78305C311.46 5.78305 310.847 5.76727 310.266 5.7515C310.266 5.76727 310.266 5.76727 310.266 5.78305C309.297 5.73572 308.328 5.73572 307.36 5.64106C307.134 5.62528 306.875 5.3413 306.875 5.18353C306.843 5.04154 307.166 4.88377 307.327 4.74178C308.974 5.5464 311.04 5.15198 312.945 5.23086C313.203 5.24664 313.43 5.43596 313.688 5.5464C313.526 5.60951 313.397 5.70417 313.203 5.71994ZM342.325 6.68233C342.261 6.71388 342.164 6.76121 342.067 6.79276C341.97 6.82432 341.905 6.85587 341.873 6.85587C341.292 6.71388 341.324 6.58767 341.905 6.49301C342.035 6.55611 342.196 6.61922 342.325 6.68233ZM345.005 6.91898C344.682 6.93475 344.101 6.82432 344.101 6.74543C344.004 6.39834 344.65 6.46145 345.069 6.41412C345.36 6.50878 345.618 6.60344 345.909 6.68233C345.586 6.76121 345.295 6.9032 345.005 6.91898ZM350.849 5.19931C350.849 5.21509 350.816 5.23086 350.816 5.24664C350.784 5.26242 350.752 5.26242 350.719 5.27819C350.655 5.73572 350.655 6.17747 350.526 6.61922C350.461 6.9032 350.171 6.88742 349.686 6.6981C348.459 6.2248 348.363 6.08281 349.363 5.64106C349.751 5.48329 350.235 5.38863 350.687 5.26242C350.687 5.23086 350.687 5.21509 350.687 5.18353C350.784 5.19931 350.816 5.19931 350.849 5.19931C351.042 4.47358 352.172 4.67868 353.109 4.6629C353.109 4.64712 353.109 4.63135 353.141 4.61557L353.238 4.6629C353.205 4.6629 353.173 4.6629 353.109 4.6629C352.979 5.45174 351.785 5.19931 350.849 5.19931ZM399.439 7.67626C399.309 7.94447 398.922 8.07068 398.276 8.03913C397.695 8.00758 397.243 7.92869 397.243 7.56583C397.243 7.18718 397.953 6.91898 398.696 7.02942C399.277 7.13985 399.568 7.34495 399.439 7.67626ZM418.164 47.4968C418.132 47.5126 417.777 47.4968 417.777 47.4811C417.648 47.1655 418.067 47.1497 418.455 47.134C418.487 47.1182 418.487 47.0866 418.519 47.0709L418.649 47.134C418.584 47.134 418.519 47.134 418.455 47.1497C418.39 47.2444 418.293 47.3706 418.164 47.4968ZM423.427 59.2663C422.878 59.3136 422.297 59.2821 421.716 59.2821C421.716 59.2663 421.716 59.2505 421.716 59.2348C420.941 59.2348 420.198 59.2505 419.423 59.2348C419.262 59.2348 418.939 59.1085 418.971 59.0928C419.101 58.935 419.23 58.7615 419.456 58.651C420.134 58.3197 420.844 58.0042 421.942 58.3513C422.394 58.509 422.943 58.5879 423.459 58.7299C423.782 58.8088 424.105 58.9192 424.395 59.0139C424.04 59.0928 423.75 59.2348 423.427 59.2663ZM434.791 58.6195C434.21 58.8403 433.597 59.219 432.983 59.2505C430.853 59.3294 428.722 59.2821 426.591 59.2663C426.171 59.2663 425.655 58.793 425.848 58.5879C426.01 58.4301 426.268 58.2093 426.526 58.2093C427.882 58.1777 429.238 58.1935 430.594 58.1935C430.594 58.1619 430.594 58.1304 430.594 58.0988C431.95 58.1462 433.274 58.1777 434.63 58.2408C434.791 58.2408 435.05 58.3355 435.082 58.3986C435.114 58.4617 434.921 58.5721 434.791 58.6195ZM439.57 58.6352C439.118 58.935 438.892 59.3136 438.504 59.6292C438.117 59.9289 437.471 59.8343 436.987 59.7238C436.309 59.5661 436.406 59.219 436.664 58.9981C437.148 58.5879 437.762 58.2093 438.827 58.1777C439.085 58.1935 439.279 58.2093 439.441 58.225C439.989 58.3039 439.925 58.4144 439.57 58.6352ZM457.456 57.4047C456.068 57.9884 455.357 58.7141 455.164 59.5818C455.131 59.6765 454.453 59.8185 454.195 59.7712C451.193 59.2348 448.093 58.793 445.316 58.0042C444.929 57.8937 444.961 57.7517 445.413 57.5782C447.447 56.7578 449.449 56.3792 451.645 56.4107C453.679 56.1898 455.131 57.1996 457.165 57.026C457.65 56.9945 457.811 57.2469 457.456 57.4047Z" fill="#FFA800"/>
</svg>
