<svg width="26" height="19" viewBox="0 0 26 19" fill="none" xmlns="http://www.w3.org/2000/svg">
<path d="M6.375 10.2031L12.625 16.4531C13.7969 17.625 15.8281 16.8047 15.8281 15.125V12.3516C20.4375 12.5469 20.5547 13.5625 19.8906 15.8672C19.3828 17.5469 21.2969 18.9141 22.7422 17.9375C24.7344 16.5703 25.8281 14.8516 25.8281 12.3516C25.8281 6.76562 20.8281 5.67188 15.8281 5.47656V2.66406C15.8281 0.984375 13.7969 0.164062 12.625 1.33594L6.375 7.58594C5.63281 8.28906 5.63281 9.5 6.375 10.2031ZM7.70312 8.875L13.9531 2.625V7.3125C18.6406 7.3125 23.9531 7.58594 23.9531 12.3516C23.9531 14.5391 22.8203 15.6328 21.6875 16.375C23.2891 11.0625 19.3047 10.4375 13.9531 10.4375V15.125L7.70312 8.875ZM1.375 7.58594C0.632812 8.28906 0.632812 9.5 1.375 10.2031L7.625 16.4531C8.40625 17.2734 9.57812 17.1562 10.2812 16.4531L2.70312 8.875L10.2812 1.33594C9.57812 0.632812 8.40625 0.515625 7.625 1.33594L1.375 7.58594Z" fill="#092D3C"/>
</svg>
