<svg width="51" height="48" viewBox="0 0 51 48" fill="none" xmlns="http://www.w3.org/2000/svg">
<g clip-path="url(#clip0_104_93)">
<path d="M8.52625 28.4177C8.27625 28.384 8.01791 28.4766 7.83458 28.6619L4.45125 32.0808C4.25125 32.2829 4.16791 32.5693 4.22625 32.8556C4.28458 33.1335 4.47625 33.3608 4.74291 33.4703L13.5512 36.8724L16.9179 45.7735C17.0179 46.0429 17.2429 46.2366 17.5262 46.2956C17.5846 46.3124 17.6429 46.3124 17.7012 46.3124C17.9179 46.3124 18.1346 46.2282 18.2929 46.0682L21.6762 42.6493C21.8596 42.464 21.9429 42.2114 21.9179 41.9503L21.0762 34.8008L29.4179 27.3145L37.6762 40.3672C37.8096 40.5777 38.0346 40.7208 38.2846 40.7545C38.3179 40.7545 38.3429 40.763 38.3762 40.763C38.5929 40.763 38.8096 40.6787 38.9679 40.5187L42.2429 37.2093C42.4429 37.0072 42.5262 36.7293 42.4679 36.4514L38.9929 18.7335L42.5012 15.584C44.0762 14.1608 45.8096 10.8177 45.8846 8.12295C45.9179 6.86821 45.5929 5.89137 44.9179 5.20926C43.8596 4.13979 42.0012 3.94611 39.6929 4.66189C37.8679 5.22611 35.9762 6.31242 34.8762 7.424C34.7929 7.50821 34.7096 7.59242 34.6596 7.65979L31.5429 11.2051L14.0012 7.68505C13.7262 7.62611 13.4429 7.71874 13.2512 7.91242L9.97625 11.2135C9.80125 11.3903 9.70958 11.6429 9.73458 11.904C9.75958 12.1566 9.90125 12.384 10.1179 12.5187L23.0346 20.864L15.6512 29.2682L8.52625 28.4177ZM16.6096 30.7251L24.9262 21.2514C25.0846 21.0661 25.1596 20.8219 25.1262 20.5777C25.0929 20.3335 24.9512 20.1145 24.7512 19.9798L11.8846 11.6682L14.1096 9.41979L31.6679 12.9314C31.9596 12.9903 32.2596 12.8893 32.4512 12.6619L35.9012 8.73768C35.9429 8.68716 35.9929 8.64505 36.0346 8.59453C37.8012 6.80926 42.3596 5.00716 43.7179 6.37979C44.1346 6.80084 44.2096 7.52505 44.1929 8.05558C44.1346 10.2198 42.6512 13.1419 41.3679 14.304L37.5096 17.7735C37.2846 17.9756 37.1846 18.2703 37.2429 18.5651L40.7262 36.3082L38.5012 38.5566L30.2929 25.5798C30.1596 25.3693 29.9429 25.2345 29.7096 25.2008C29.4679 25.1672 29.2262 25.2429 29.0429 25.4029L19.8429 33.6556C19.5262 33.8072 19.3179 34.1356 19.3679 34.5061L20.2262 41.7398L18.0346 43.9545L15.0012 35.9461C14.9512 35.8198 14.8762 35.7187 14.7846 35.6345C14.7012 35.5419 14.6012 35.4661 14.4846 35.424L6.54291 32.3503L8.73458 30.1356L15.8846 30.9945C16.1596 31.0366 16.4262 30.9272 16.6096 30.7251Z" fill="white"/>
</g>
<defs>
<clipPath id="clip0_104_93">
<rect width="50" height="48" fill="white" transform="translate(0.0429688 0.00585938)"/>
</clipPath>
</defs>
</svg>
