<svg width="66" height="61" viewBox="0 0 66 61" fill="none" xmlns="http://www.w3.org/2000/svg">
<g clip-path="url(#clip0_3_1161)">
<path d="M11.5095 19.1587H9.36393C8.77145 19.1587 8.29114 19.6065 8.29114 20.1589C8.29114 20.7113 8.77145 21.1591 9.36393 21.1591H11.5095C12.102 21.1591 12.5823 20.7113 12.5823 20.1589C12.5823 19.6065 12.102 19.1587 11.5095 19.1587Z" fill="#4E3504"/>
<path d="M46.9119 12.1571C46.9119 15.4715 49.7937 18.1584 53.3486 18.1584C56.9036 18.1584 59.7854 15.4715 59.7854 12.1571C59.7854 8.84264 56.9036 6.15576 53.3486 6.15576C49.7952 6.15907 46.9154 8.84401 46.9119 12.1571ZM53.3486 8.1562C55.7186 8.1562 57.6398 9.94745 57.6398 12.1571C57.6398 14.3667 55.7186 16.1579 53.3486 16.1579C50.9787 16.1579 49.0575 14.3667 49.0575 12.1571C49.0575 9.94745 50.9787 8.1562 53.3486 8.1562Z" fill="#4E3504"/>
<path d="M54.4215 3.0642V2.155C54.4215 1.6026 53.9412 1.15479 53.3487 1.15479C52.7562 1.15479 52.2759 1.6026 52.2759 2.155V3.0642C52.2759 3.6166 52.7562 4.06442 53.3487 4.06442C53.9412 4.06442 54.4215 3.6166 54.4215 3.0642Z" fill="#4E3504"/>
<path d="M52.2759 21.2502V22.1594C52.2759 22.7118 52.7562 23.1596 53.3487 23.1596C53.9412 23.1596 54.4215 22.7118 54.4215 22.1594V21.2502C54.4215 20.6978 53.9412 20.25 53.3487 20.25C52.7562 20.25 52.2759 20.6978 52.2759 21.2502Z" fill="#4E3504"/>
<path d="M64.0767 11.1567H63.1015C62.509 11.1567 62.0287 11.6046 62.0287 12.157C62.0287 12.7094 62.509 13.1572 63.1015 13.1572H64.0767C64.6691 13.1572 65.1495 12.7094 65.1495 12.157C65.1495 11.6046 64.6691 11.1567 64.0767 11.1567Z" fill="#4E3504"/>
<path d="M43.5958 13.1572C44.1883 13.1572 44.6686 12.7094 44.6686 12.157C44.6686 11.6046 44.1883 11.1567 43.5958 11.1567H42.6206C42.0282 11.1567 41.5479 11.6046 41.5479 12.157C41.5479 12.7094 42.0282 13.1572 42.6206 13.1572H43.5958Z" fill="#4E3504"/>
<path d="M61.6929 4.37732C61.274 3.98686 60.5949 3.98686 60.176 4.37732L59.4872 5.01946C59.1805 5.30552 59.0888 5.73565 59.2548 6.10935C59.4208 6.48305 59.8119 6.72675 60.2457 6.72683C60.7821 6.72683 60.9645 6.47078 61.6929 5.79163C62.1117 5.40105 62.1117 4.76791 61.6929 4.37732Z" fill="#4E3504"/>
<path d="M45.0044 19.9368C45.4233 20.3273 46.1024 20.3273 46.5213 19.9368L47.2101 19.2947C47.6166 18.9022 47.6108 18.2784 47.197 17.8926C46.7832 17.5067 46.1141 17.5013 45.6931 17.8804L45.0044 18.5225C44.5856 18.9131 44.5856 19.5462 45.0044 19.9368Z" fill="#4E3504"/>
<path d="M61.0041 17.8804C60.5832 17.5013 59.9141 17.5067 59.5002 17.8926C59.0864 18.2784 59.0806 18.9022 59.4872 19.2947C60.1051 19.8708 60.3626 20.2299 60.9344 20.2299C61.3682 20.2298 61.7593 19.9861 61.9253 19.6124C62.0913 19.2387 61.9996 18.8086 61.6929 18.5225L61.0041 17.8804Z" fill="#4E3504"/>
<path d="M46.5213 4.37745C46.1004 3.9984 45.4313 4.00382 45.0175 4.38964C44.6036 4.77545 44.5978 5.3993 45.0044 5.79176C45.6223 6.36789 45.8798 6.72696 46.4516 6.72696C46.8854 6.72688 47.2765 6.48318 47.4425 6.10948C47.6085 5.73578 47.5168 5.30565 47.2101 5.01959L46.5213 4.37745Z" fill="#4E3504"/>
<path d="M64.0766 56.1668C50.8373 56.1668 51.6687 56.2458 51.2696 55.9828L44.8736 51.7199C44.3286 51.3581 43.6759 51.1643 43.0069 51.1657H40.2745C40.5384 50.4766 40.4719 50.6026 40.4719 45.6856L46.309 36.1625H56.0993L63.1455 47.665C63.3306 47.9843 63.6867 48.1851 64.076 48.1896C64.4653 48.194 64.8266 48.0015 65.0201 47.6866C65.2136 47.3716 65.2089 46.9836 65.0078 46.6728L53.0633 27.1775C52.68 26.5553 51.9687 26.1722 51.1991 26.1734C50.4295 26.1747 49.7196 26.5601 49.3386 27.1835L40.4751 41.6527V25.0491C41.5263 24.0494 41.829 22.5582 41.2422 21.2695C40.6555 19.9809 39.2946 19.1481 37.7931 19.1588H29.7042L23.7609 13.6176C22.7337 12.6679 21.3411 12.1419 19.8946 12.1573C19.8474 12.0358 19.7923 11.9172 19.7294 11.8022C21.9168 9.35392 21.8749 5.78735 19.6304 3.38436C17.3859 0.981368 13.6026 0.452522 10.701 2.13617C7.79937 3.81983 6.63745 7.21811 7.95863 10.1568H4.00001C2.22254 10.1568 0.781616 11.5003 0.781616 13.1575V16.1581C0.783917 16.8696 1.19276 17.526 1.85441 17.8805V30.1612C1.85441 31.8184 3.29534 33.1618 5.0728 33.1618V58.1673H1.85441C1.26192 58.1673 0.781616 58.6151 0.781616 59.1675C0.781616 59.7199 1.26192 60.1677 1.85441 60.1677H15.8866C16.8266 60.1672 17.7194 59.7835 18.3304 59.1175L23.4799 53.5163C23.6863 53.2961 23.9837 53.1687 24.2973 53.1662C44.6107 53.1662 43.2129 53.0772 43.627 53.3502L50.023 57.6131C50.568 57.9749 51.2207 58.1687 51.8897 58.1673H64.0766C64.6691 58.1673 65.1494 57.7194 65.1494 57.167C65.1494 56.6146 64.6691 56.1668 64.0766 56.1668ZM51.2031 28.1768L54.8731 34.162H47.5363L51.2031 28.1768ZM36.4886 50.8587C36.2905 50.6757 36.1805 50.4255 36.1839 50.1655V26.1603C36.8995 26.2032 37.6179 26.1835 38.3295 26.1013V50.1655C38.3273 50.5714 38.0622 50.9359 37.6585 51.0879C37.2547 51.2399 36.7925 51.1493 36.4886 50.8587ZM38.9871 21.6523C39.4199 22.116 39.5096 22.7774 39.2143 23.3269C38.919 23.8765 38.2971 24.2054 37.6397 24.1599H36.1839V21.1592C37.9186 21.1592 38.4025 21.0522 38.9871 21.6523ZM34.0383 21.1592V24.1599H28.8031C27.7132 24.1224 26.6981 23.6331 26.0353 22.8256L28.065 20.4651L28.1841 20.5761C28.5854 20.9479 29.1277 21.1574 29.6935 21.1592H34.0383ZM26.5384 19.0418L24.5097 21.4033L22.9971 19.993C22.6905 19.7064 22.2289 19.6204 21.8277 19.775C21.4266 19.9296 21.1649 20.2944 21.1648 20.6991V30.1612H19.0192V17.8805C19.6808 17.526 20.0897 16.8696 20.092 16.1581V14.1697C20.8978 14.1988 21.6629 14.5074 22.2376 15.0349L26.5384 19.0418ZM6.1456 23.1597C4.96062 23.1597 4.00001 22.264 4.00001 21.1592V18.1586H16.8736V21.1592C16.8736 22.264 15.913 23.1597 14.728 23.1597H6.1456ZM14.374 3.15532C16.2154 3.15637 17.895 4.13661 18.7006 5.68049C19.5061 7.22437 19.2967 9.06144 18.1609 10.4129C17.3327 10.0718 17.5033 10.1568 10.3746 10.1568C9.38085 8.77891 9.28303 7.00239 10.1202 5.53683C10.9573 4.07127 12.593 3.15552 14.374 3.15532ZM2.92721 13.1575C2.92721 12.6051 3.40752 12.1573 4.00001 12.1573H16.8736C17.4661 12.1573 17.9464 12.6051 17.9464 13.1575V16.1581H2.92721V13.1575ZM4.00001 30.1612V24.604C4.64942 24.964 5.39008 25.1559 6.1456 25.1601V27.1605C6.1456 27.7129 6.62591 28.1607 7.2184 28.1607C7.81089 28.1607 8.2912 27.7129 8.2912 27.1605V25.1601H12.5824V27.1605C12.5824 27.7129 13.0627 28.1607 13.6552 28.1607C14.2477 28.1607 14.728 27.7129 14.728 27.1605V25.1601C15.4835 25.1559 16.2242 24.964 16.8736 24.604C16.8736 30.5983 16.9336 30.3352 16.7309 30.6563C16.5404 30.968 16.1855 31.1607 15.8008 31.1614H5.0728C4.48031 31.1614 4.00001 30.7136 4.00001 30.1612ZM17.2845 32.8118C17.6198 32.6353 17.9273 32.4165 18.1985 32.1616H21.1648C24.1257 32.1649 26.5252 34.402 26.5287 37.1627V46.1647H21.0392L20.092 39.0911C20.0504 38.0145 19.1018 37.162 17.9464 37.1627H15.8008C14.6397 37.1547 13.6856 38.0149 13.6552 39.0971L12.651 53.1662H7.2184V33.1618C16.6429 33.1618 16.364 33.2619 17.2845 32.8118ZM7.2184 58.1673V55.1666H13.6552C14.8402 55.1666 15.8008 56.0622 15.8008 57.167V58.1673H7.2184ZM17.8777 56.5379C17.6116 54.9962 16.4049 53.741 14.7902 53.3262L15.8008 39.1631H17.9464C17.9466 39.2046 17.9494 39.246 17.955 39.2872C19.2337 48.8132 19.0192 46.2057 19.0192 51.1657C19.0246 52.2052 19.8829 53.0676 20.9942 53.1502L17.8777 56.5379ZM21.1648 51.1657V48.1651H27.6015C28.7865 48.1651 29.7471 49.0607 29.7471 50.1655V51.1657H21.1648ZM28.6743 46.3067V37.1627C28.665 34.0747 26.485 31.3576 23.3104 30.4772V23.1137L25.0086 24.697C26.0175 25.6315 27.381 26.1573 28.8031 26.1603H34.0383C34.0383 52.426 33.9557 50.4326 34.2325 51.1657H31.8927V50.1655C31.8854 48.3467 30.5632 46.7614 28.6743 46.3067Z" fill="#4E3504"/>
</g>
<defs>
<clipPath id="clip0_3_1161">
<rect width="64.3678" height="60.013" fill="white" transform="translate(0.781616 0.654785)"/>
</clipPath>
</defs>
</svg>
