<svg width="70" height="65" viewBox="0 0 70 65" fill="none" xmlns="http://www.w3.org/2000/svg">
<g clip-path="url(#clip0_3_1112)">
<path d="M39.4076 41.2793C39.4076 47.194 44.5503 51.9888 50.8941 51.9888C57.2375 51.9888 62.3802 47.194 62.3802 41.2793C62.3802 35.3651 57.2375 30.5703 50.8941 30.5703C44.5531 30.5768 39.4145 35.3677 39.4076 41.2793ZM50.8941 32.7119C55.9692 32.7119 60.0832 36.5476 60.0832 41.2793C60.0832 46.011 55.9692 49.8467 50.8941 49.8467C45.8191 49.8467 41.7051 46.011 41.7051 41.2793C41.7106 36.5502 45.8214 32.7171 50.8941 32.7119Z" fill="#4E3504"/>
<path d="M44.3306 62.6982H57.4585V64.8399H44.3306V62.6982Z" fill="#4E3504"/>
<path d="M39.4076 58.4141H62.3807V60.5561H39.4076V58.4141Z" fill="#4E3504"/>
<path d="M14.1375 58.4141H16.4349V60.5561H14.1375V58.4141Z" fill="#4E3504"/>
<path d="M7.24585 60.5562H9.54288V62.6982H7.24585V60.5562Z" fill="#4E3504"/>
<path d="M14.2524 52.3879C20.2501 42.6488 24.0133 31.8543 25.3033 20.6886L35.9859 30.5892C36.1995 30.7876 36.4882 30.8995 36.7899 30.9007C36.852 30.9012 36.9146 30.8964 36.9757 30.8869C37.3399 30.8316 37.6532 30.6165 37.8177 30.3089C39.9831 26.2792 39.1351 21.4092 35.7134 18.2255L34.7741 17.3493H42.8534C43.4878 17.3498 44.0026 16.8706 44.0026 16.2792C44.0031 16.1634 43.9827 16.0485 43.9437 15.9392C42.4183 11.662 38.1254 8.77765 33.2908 8.78197H31.7978L37.5341 3.40263C37.9817 2.98355 37.9799 2.30567 37.5304 1.88832C37.4433 1.80753 37.3432 1.74013 37.2334 1.68915C32.9095 -0.331939 27.6833 0.458264 24.2663 3.65018L23.1694 4.67283C22.8117 5.00852 22.4794 5.36625 22.1736 5.74386C21.8715 5.36625 21.5415 5.00852 21.1866 4.67283L20.0897 3.65018C16.6755 0.460425 11.4521 -0.329779 7.13098 1.68915C6.56333 1.95356 6.33302 2.59687 6.61662 3.12569C6.6713 3.22808 6.74359 3.3214 6.83024 3.40263L12.5731 8.78197H11.0652C6.23061 8.77765 1.93729 11.662 0.412267 15.9392C0.211155 16.5 0.535992 17.1065 1.13794 17.294C1.25518 17.3308 1.37844 17.3493 1.50263 17.3493H9.57398L8.63469 18.2255C5.213 21.4092 4.365 26.2792 6.52996 30.3089C6.69493 30.6165 7.00818 30.8316 7.37195 30.8869C7.43358 30.8964 7.49567 30.9012 7.55823 30.9007C7.86175 30.9007 8.15276 30.7889 8.36777 30.5892L18.3154 21.3695C17.0837 31.6318 12.9382 41.4019 6.30614 49.6721C4.76212 49.294 3.19679 48.9964 1.61755 48.7812L0.899755 48.7138L0.669913 50.8459L1.33951 50.9068C2.48826 51.0602 3.62959 51.2767 4.7649 51.5216C4.53506 51.7904 4.30522 52.0634 4.0675 52.3283L5.82931 53.7022C14.6565 43.9173 19.9187 31.7696 20.8562 19.0136L22.1782 17.7887L23.168 18.7064C21.9604 32.3481 16.9382 45.4566 8.60225 56.7243L10.4836 57.9517C11.3868 56.7498 12.2482 55.5025 13.0832 54.2314C18.4563 56.6275 23.2005 60.0929 26.9818 64.3835L28.7584 63.0265C26.5225 60.4921 23.9609 58.2235 21.1305 56.2724H69.2723V54.1303H17.7274C16.6013 53.4965 15.4391 52.9223 14.2524 52.3879ZM36.3682 27.9214L24.232 16.6715C27.3362 15.8074 30.6986 16.5915 33.0007 18.7168L34.0976 19.7398C36.3956 21.8784 37.2649 25.012 36.3682 27.9214ZM41.1008 15.2077H31.5902C29.3752 14.2248 26.8761 13.9466 24.4753 14.4162C26.1467 12.2249 28.852 10.9236 31.7362 10.924H33.2867C36.5336 10.9193 39.5267 12.5602 41.1008 15.2077ZM24.7899 6.18713L25.8872 5.16449C28.1829 3.02156 31.5452 2.21062 34.6671 3.04706L27.858 9.43306C25.6481 10.1913 23.751 11.5799 22.4354 13.4009C21.9011 10.781 22.7825 8.08336 24.7936 6.18713H24.7899ZM18.4623 5.16449L19.5591 6.18713C20.0707 6.67404 20.5147 7.21928 20.8803 7.80945C20.3599 8.9375 20.0629 10.1433 20.0026 11.3695C18.9716 10.5296 17.7839 9.87374 16.4994 9.43306L9.6889 3.04706C12.8098 2.21106 16.1713 3.022 18.4655 5.16449H18.4623ZM11.0615 10.924H12.6124C15.4984 10.9214 18.2074 12.2223 19.8807 14.4149C17.4813 13.947 14.9832 14.2253 12.7695 15.2077H3.25517C4.82885 12.5615 7.81958 10.921 11.0652 10.924H11.0615ZM7.98779 27.9214C7.09113 25.012 7.96092 21.8784 10.2589 19.7398L11.3557 18.7168C13.0082 17.18 15.2491 16.3198 17.5837 16.3267C18.4452 16.3271 19.302 16.4416 20.1291 16.6672L7.98779 27.9214Z" fill="#4E3504"/>
</g>
<defs>
<clipPath id="clip0_3_1112">
<rect width="68.9655" height="64.2997" fill="white" transform="translate(0.310364 0.57959)"/>
</clipPath>
</defs>
</svg>
