<svg width="63" height="59" viewBox="0 0 63 59" fill="none" xmlns="http://www.w3.org/2000/svg">
<path d="M61.6552 56.2764H56.2672V40.0508L58.6379 42.8136C58.8534 43.0648 59.1767 43.2155 59.5 43.2155C59.7155 43.2155 59.9849 43.1653 60.2004 43.0146C60.6853 42.6629 60.7392 42.0601 60.3621 41.608L58.0453 38.8954L61.4397 39.6991C61.5474 39.6991 61.6013 39.7493 61.709 39.7493C62.194 39.7493 62.625 39.4479 62.7328 38.9958C62.8944 38.4433 62.5172 37.8907 61.9246 37.7902L59.6616 37.2376L61.9246 36.6851C62.5172 36.5344 62.8405 35.9818 62.7328 35.4795C62.5711 34.9269 61.9784 34.6255 61.4397 34.7259L58.0453 35.5297L60.3621 32.817C60.7392 32.3649 60.6853 31.7621 60.2004 31.4105C59.7155 31.0588 59.069 31.1091 58.6918 31.5612L56.3211 34.3241V30.1546C56.3211 29.6021 55.8362 29.15 55.2435 29.15C54.6509 29.15 54.1659 29.6021 54.1659 30.1546V34.5752L51.2026 31.511C50.8254 31.1091 50.125 31.0588 49.694 31.4105C49.2629 31.7621 49.209 32.4152 49.5862 32.817L52.0647 35.379L49.0474 34.6757C48.4547 34.525 47.8621 34.8766 47.7543 35.4292C47.7543 35.5297 47.7004 35.5799 47.7004 35.6804C47.7004 36.1325 48.0237 36.5344 48.5086 36.6348L50.7715 37.1874L48.5086 37.74C48.0237 37.8405 47.7004 38.2423 47.7004 38.6944C47.7004 38.7949 47.7004 38.8451 47.7543 38.9456C47.8621 39.3977 48.2931 39.6991 48.778 39.6991C48.8858 39.6991 48.9397 39.6991 49.0474 39.6489L52.0647 38.9456L49.5862 41.5075C49.209 41.9094 49.209 42.5625 49.694 42.9141C49.8017 43.115 50.0711 43.2155 50.3405 43.2155C50.6099 43.2155 50.9332 43.115 51.1487 42.8639L54.1121 39.7996V56.2764H47.6465V2.02352H48.7241C49.3168 2.02352 49.8017 1.57142 49.8017 1.01884C49.8017 0.466267 49.3168 0.0141602 48.7241 0.0141602H14.2414C13.6487 0.0141602 13.1638 0.466267 13.1638 1.01884C13.1638 1.57142 13.6487 2.02352 14.2414 2.02352H15.319V9.55864H1.31034C0.717671 9.55864 0.232758 10.0107 0.232758 10.5633C0.232758 11.1159 0.717671 11.568 1.31034 11.568H2.38793V56.2764H1.31034C0.717671 56.2764 0.232758 56.7285 0.232758 57.2811C0.232758 57.8336 0.717671 58.2857 1.31034 58.2857H61.6552C62.2478 58.2857 62.7328 57.8336 62.7328 57.2811C62.7328 56.7285 62.2478 56.2764 61.6552 56.2764ZM11.0086 56.2764H8.85345V48.2389H11.0086V56.2764ZM15.319 56.2764H13.1638V47.2342C13.1638 46.6817 12.6789 46.2296 12.0862 46.2296H7.77586C7.18319 46.2296 6.69827 46.6817 6.69827 47.2342V56.2764H4.5431V11.568H15.319V56.2764ZM25.556 56.2764H21.7845V52.0065C21.7845 51.052 22.5927 50.2483 23.6703 50.2483H25.556V56.2764ZM30.4052 56.2764H27.7112V48.6408C27.7112 47.0835 28.8427 45.7272 30.4052 45.3253V56.2764ZM35.2543 56.2764H32.5603V45.3756C34.1228 45.7774 35.2543 47.0835 35.2543 48.691V56.2764ZM41.181 56.2764H37.4095V50.2483H39.2953C40.319 50.2483 41.181 51.0018 41.181 52.0065V56.2764ZM45.4914 56.2764H43.3362V52.0065C43.3362 49.9469 41.5582 48.2389 39.2953 48.2389H37.4095C37.194 45.4258 34.6616 43.2155 31.5905 43.2155H31.4289C28.3578 43.2155 25.8254 45.4258 25.6099 48.2389H23.6703C21.4612 48.2389 19.6293 49.8966 19.6293 52.0065V56.2764H17.4741V2.02352H45.4914V56.2764Z" fill="#4E3504"/>
<path d="M25.0172 3.53076H20.7069C20.1142 3.53076 19.6293 3.98287 19.6293 4.53544V10.5635C19.6293 11.1161 20.1142 11.5682 20.7069 11.5682H25.0172C25.6099 11.5682 26.0948 11.1161 26.0948 10.5635V4.53544C26.0948 3.98287 25.6099 3.53076 25.0172 3.53076ZM23.9396 9.55886H21.7845V5.54013H23.9396V9.55886Z" fill="#4E3504"/>
<path d="M33.6379 3.53076H29.3276C28.7349 3.53076 28.25 3.98287 28.25 4.53544V10.5635C28.25 11.1161 28.7349 11.5682 29.3276 11.5682H33.6379C34.2306 11.5682 34.7155 11.1161 34.7155 10.5635V4.53544C34.7155 3.98287 34.2306 3.53076 33.6379 3.53076ZM32.5603 9.55886H30.4052V5.54013H32.5603V9.55886Z" fill="#4E3504"/>
<path d="M42.2586 3.53076H37.9483C37.3556 3.53076 36.8707 3.98287 36.8707 4.53544V10.5635C36.8707 11.1161 37.3556 11.5682 37.9483 11.5682H42.2586C42.8513 11.5682 43.3362 11.1161 43.3362 10.5635V4.53544C43.3362 3.98287 42.8513 3.53076 42.2586 3.53076ZM41.181 9.55886H39.0259V5.54013H41.181V9.55886Z" fill="#4E3504"/>
<path d="M25.0172 13.0752H20.7069C20.1142 13.0752 19.6293 13.5273 19.6293 14.0799V20.108C19.6293 20.6605 20.1142 21.1127 20.7069 21.1127H25.0172C25.6099 21.1127 26.0948 20.6605 26.0948 20.108V14.0799C26.0948 13.5273 25.6099 13.0752 25.0172 13.0752ZM23.9396 19.1033H21.7845V15.0846H23.9396V19.1033Z" fill="#4E3504"/>
<path d="M33.6379 13.0752H29.3276C28.7349 13.0752 28.25 13.5273 28.25 14.0799V20.108C28.25 20.6605 28.7349 21.1127 29.3276 21.1127H33.6379C34.2306 21.1127 34.7155 20.6605 34.7155 20.108V14.0799C34.7155 13.5273 34.2306 13.0752 33.6379 13.0752ZM32.5603 19.1033H30.4052V15.0846H32.5603V19.1033Z" fill="#4E3504"/>
<path d="M42.2586 13.0752H37.9483C37.3556 13.0752 36.8707 13.5273 36.8707 14.0799V20.108C36.8707 20.6605 37.3556 21.1127 37.9483 21.1127H42.2586C42.8513 21.1127 43.3362 20.6605 43.3362 20.108V14.0799C43.3362 13.5273 42.8513 13.0752 42.2586 13.0752ZM41.181 19.1033H39.0259V15.0846H41.181V19.1033Z" fill="#4E3504"/>
<path d="M25.0172 22.6196H20.7069C20.1142 22.6196 19.6293 23.0717 19.6293 23.6243V29.6524C19.6293 30.205 20.1142 30.6571 20.7069 30.6571H25.0172C25.6099 30.6571 26.0948 30.205 26.0948 29.6524V23.6243C26.0948 23.0717 25.6099 22.6196 25.0172 22.6196ZM23.9396 28.6477H21.7845V24.629H23.9396V28.6477Z" fill="#4E3504"/>
<path d="M33.6379 22.6196H29.3276C28.7349 22.6196 28.25 23.0717 28.25 23.6243V29.6524C28.25 30.205 28.7349 30.6571 29.3276 30.6571H33.6379C34.2306 30.6571 34.7155 30.205 34.7155 29.6524V23.6243C34.7155 23.0717 34.2306 22.6196 33.6379 22.6196ZM32.5603 28.6477H30.4052V24.629H32.5603V28.6477Z" fill="#4E3504"/>
<path d="M42.2586 22.6196H37.9483C37.3556 22.6196 36.8707 23.0717 36.8707 23.6243V29.6524C36.8707 30.205 37.3556 30.6571 37.9483 30.6571H42.2586C42.8513 30.6571 43.3362 30.205 43.3362 29.6524V23.6243C43.3362 23.0717 42.8513 22.6196 42.2586 22.6196ZM41.181 28.6477H39.0259V24.629H41.181V28.6477Z" fill="#4E3504"/>
<path d="M25.0172 32.1641H20.7069C20.1142 32.1641 19.6293 32.6162 19.6293 33.1687V39.1968C19.6293 39.7494 20.1142 40.2015 20.7069 40.2015H25.0172C25.6099 40.2015 26.0948 39.7494 26.0948 39.1968V33.1687C26.0948 32.6162 25.6099 32.1641 25.0172 32.1641ZM23.9396 38.1922H21.7845V34.1734H23.9396V38.1922Z" fill="#4E3504"/>
<path d="M12.0862 13.0752H7.77586C7.18319 13.0752 6.69827 13.5273 6.69827 14.0799V20.108C6.69827 20.6605 7.18319 21.1127 7.77586 21.1127H12.0862C12.6789 21.1127 13.1638 20.6605 13.1638 20.108V14.0799C13.1638 13.5273 12.6789 13.0752 12.0862 13.0752ZM11.0086 19.1033H8.85345V15.0846H11.0086V19.1033Z" fill="#4E3504"/>
<path d="M12.0862 22.6196H7.77586C7.18319 22.6196 6.69827 23.0717 6.69827 23.6243V29.6524C6.69827 30.205 7.18319 30.6571 7.77586 30.6571H12.0862C12.6789 30.6571 13.1638 30.205 13.1638 29.6524V23.6243C13.1638 23.0717 12.6789 22.6196 12.0862 22.6196ZM11.0086 28.6477H8.85345V24.629H11.0086V28.6477Z" fill="#4E3504"/>
<path d="M12.0862 32.1641H7.77586C7.18319 32.1641 6.69827 32.6162 6.69827 33.1687V39.1968C6.69827 39.7494 7.18319 40.2015 7.77586 40.2015H12.0862C12.6789 40.2015 13.1638 39.7494 13.1638 39.1968V33.1687C13.1638 32.6162 12.6789 32.1641 12.0862 32.1641ZM11.0086 38.1922H8.85345V34.1734H11.0086V38.1922Z" fill="#4E3504"/>
<path d="M33.6379 32.1641H29.3276C28.7349 32.1641 28.25 32.6162 28.25 33.1687V39.1968C28.25 39.7494 28.7349 40.2015 29.3276 40.2015H33.6379C34.2306 40.2015 34.7155 39.7494 34.7155 39.1968V33.1687C34.7155 32.6162 34.2306 32.1641 33.6379 32.1641ZM32.5603 38.1922H30.4052V34.1734H32.5603V38.1922Z" fill="#4E3504"/>
<path d="M42.2586 32.1641H37.9483C37.3556 32.1641 36.8707 32.6162 36.8707 33.1687V39.1968C36.8707 39.7494 37.3556 40.2015 37.9483 40.2015H42.2586C42.8513 40.2015 43.3362 39.7494 43.3362 39.1968V33.1687C43.3362 32.6162 42.8513 32.1641 42.2586 32.1641ZM41.181 38.1922H39.0259V34.1734H41.181V38.1922Z" fill="#4E3504"/>
</svg>
