<svg width="70" height="66" viewBox="0 0 70 66" fill="none" xmlns="http://www.w3.org/2000/svg">
<path d="M68.7041 57.9219C68.2159 57.3985 67.3652 57.3432 66.8038 57.7984C65.3675 58.9627 64.0383 60.1698 62.1537 60.6554C60.0588 61.1952 58.0678 60.7692 56.1718 59.8853L63.1867 37.8798C63.3613 37.3324 63.1175 36.744 62.5936 36.448L56.1035 32.7816V22.0751C56.1035 21.3816 55.5004 20.8192 54.7565 20.8192H52.0625V17.0516C52.0625 16.3582 51.4595 15.7958 50.7156 15.7958H46.4726V12.0282C46.4726 11.3348 45.8695 10.7724 45.1256 10.7724H38.5927V1.98144C38.5927 1.28796 37.9897 0.725586 37.2458 0.725586H31.8578C31.1139 0.725586 30.5109 1.28796 30.5109 1.98144V10.7724H23.978C23.2341 10.7724 22.631 11.3348 22.631 12.0282V15.7958H18.388C17.6441 15.7958 17.0411 16.3582 17.0411 17.0516V20.8192H14.3471C13.6032 20.8192 13.0001 21.3816 13.0001 22.0751V32.7816L6.51009 36.4479C5.98612 36.7439 5.74245 37.3323 5.91702 37.8797C5.91702 37.8797 12.9147 59.8307 12.9177 59.8402C12.7982 59.4655 10.6428 59.2187 10.2617 59.1728C6.3397 58.6996 3.35735 60.5313 0.532194 62.8216C-0.0292277 63.2768 -0.0884948 64.0698 0.399516 64.5933C0.865437 65.0928 1.73249 65.1767 2.2997 64.717C5.21026 62.358 8.49163 60.5597 12.3427 62.3552C15.8265 63.9792 19.4326 64.6755 23.0612 62.8952C25.9872 61.4593 28.8107 60.2194 32.0766 61.6691L35.4342 63.1598C38.3068 64.4353 41.5864 64.4059 44.4319 63.0792C46.1854 62.2618 47.9676 61.174 49.9705 61.0456C51.9339 60.9199 53.831 61.6014 55.5561 62.4063C57.835 63.4688 60.503 63.681 62.9502 63.0306C65.2044 62.4314 66.8448 61.093 68.5713 59.6934C69.1328 59.2384 69.1921 58.4454 68.7041 57.9219ZM53.4095 23.3309V31.2597L39.3743 23.3309H53.4095ZM33.2048 3.23729H35.8988V10.7724H33.2048V3.23729ZM25.325 13.2841H43.7786V15.7958H25.325V13.2841ZM15.6941 23.3309H29.7293L15.6941 31.2597V23.3309ZM33.2048 59.3883C33.2051 59.1651 31.2847 58.7534 31.0335 58.7027C28.6892 58.2296 26.1725 58.53 24.0472 59.573C22.5052 60.3296 21.0175 61.2124 19.2539 61.4241C19.2506 61.4245 19.2474 61.4249 19.2442 61.4253C18.2137 61.542 17.159 61.4713 16.1617 61.2002L8.79551 38.0937L33.2048 24.3044C33.2048 24.3044 33.2048 59.3869 33.2048 59.3883ZM19.735 20.8192V18.3075H49.3686V20.8192H19.735ZM53.6819 58.8789C53.6968 58.4903 49.9051 58.4938 49.651 58.5188C47.313 58.7494 45.2903 59.871 43.227 60.8329C40.7895 61.9692 38.2815 61.6425 35.8988 60.5842V24.3044L60.3081 38.0937L53.6819 58.8789Z" fill="#4E3504"/>
</svg>
