<svg width="20" height="20" viewBox="0 0 20 20" fill="none" xmlns="http://www.w3.org/2000/svg">
<path d="M10.001 16.7222C9.43008 16.7222 8.87824 16.5131 8.44707 16.1333C6.40145 14.3316 2.96973 10.7532 2.96973 7.03125C2.96973 3.15422 6.12395 0 10.001 0C13.878 0 17.0322 3.15422 17.0322 7.03125C17.0322 10.7532 13.6005 14.3316 11.5548 16.1333C11.1237 16.5131 10.5719 16.7222 10.001 16.7222ZM10.001 1.5625C6.98551 1.5625 4.53223 4.01578 4.53223 7.03125C4.53223 10.255 7.99223 13.6505 9.4798 14.9608C9.62547 15.0891 9.81055 15.1598 10.001 15.1598C10.1914 15.1598 10.3765 15.0891 10.5221 14.9608C12.0097 13.6505 15.4697 10.255 15.4697 7.03125C15.4697 4.01578 13.0164 1.5625 10.001 1.5625Z" fill="#113A75"/>
<path d="M10.001 20C7.84023 20 5.79863 19.7445 4.25223 19.2806C3.4532 19.0409 2.8134 18.7528 2.35047 18.4245C1.57086 17.8716 1.40723 17.2767 1.40723 16.875C1.40723 16.4486 1.59094 15.82 2.46609 15.2466C2.9882 14.9046 3.7066 14.6098 4.60137 14.3705C5.01809 14.259 5.44648 14.5064 5.55797 14.9233C5.66945 15.3401 5.42199 15.7684 5.00516 15.8799C3.48086 16.2877 3.02766 16.7493 2.97281 16.875C3.02605 16.9963 3.45836 17.4412 4.90516 17.8428C6.28648 18.2263 8.09621 18.4375 10.001 18.4375C11.9057 18.4375 13.7155 18.2263 15.0968 17.8428C16.5436 17.4412 16.9759 16.9963 17.0291 16.875C16.9743 16.7494 16.5211 16.2877 14.9968 15.8799C14.58 15.7684 14.3325 15.3401 14.444 14.9233C14.5555 14.5065 14.9836 14.2589 15.4006 14.3705C16.2954 14.6098 17.0138 14.9046 17.5359 15.2467C18.411 15.82 18.5947 16.4486 18.5947 16.875C18.5947 17.2767 18.4311 17.8716 17.6515 18.4245C17.1886 18.7528 16.5488 19.0409 15.7497 19.2806C14.2033 19.7445 12.1617 20 10.001 20Z" fill="#113A75"/>
<path d="M10.001 10.1562C8.27785 10.1562 6.87598 8.75437 6.87598 7.03125C6.87598 5.30813 8.27785 3.90625 10.001 3.90625C11.7241 3.90625 13.126 5.30813 13.126 7.03125C13.126 8.75437 11.7241 10.1562 10.001 10.1562ZM10.001 5.46875C9.13941 5.46875 8.43848 6.16969 8.43848 7.03125C8.43848 7.89281 9.13941 8.59375 10.001 8.59375C10.8625 8.59375 11.5635 7.89281 11.5635 7.03125C11.5635 6.16969 10.8625 5.46875 10.001 5.46875Z" fill="#113A75"/>
</svg>
