<svg width="99" height="88" viewBox="0 0 99 88" fill="none" xmlns="http://www.w3.org/2000/svg">
<g clip-path="url(#clip0_262_41)">
<path d="M36.027 10.9613C34.1075 9.04262 31.091 8.69538 28.7813 10.123L22.077 14.2655C20.1505 15.4581 17.9813 17.475 17.243 20.0356C14.3215 30.1727 19.8516 44.1647 30.7286 56.1192C32.0259 57.5433 34.1282 59.6409 35.5556 60.9353C47.5364 71.7844 61.5611 77.3024 71.7212 74.3867C74.2876 73.6501 76.3091 71.4893 77.5044 69.5637L81.6529 62.8746C83.0837 60.57 82.7357 57.5605 80.8126 55.6418L71.8162 46.6657C69.8791 44.733 66.6834 44.733 64.7462 46.6657L58.9419 52.4568C58.2564 53.1373 56.6427 53.3197 55.9009 52.8111C53.5454 51.208 51.2146 49.3736 48.9611 47.3286C47.6603 46.1535 45.5404 44.0349 44.3626 42.7406C42.3131 40.4887 40.4779 38.1665 38.8677 35.82C38.3614 35.0764 38.5407 33.4663 39.2228 32.7824L45.027 26.9948C46.9641 25.0621 46.9641 21.8736 45.027 19.9408L36.027 10.9613ZM33.6715 13.3114L42.668 22.291C43.3325 22.954 43.3325 23.9782 42.668 24.6412L36.8672 30.4323C34.9477 32.3474 34.547 35.4027 36.1149 37.6931C37.8129 40.1695 39.743 42.6144 41.8946 44.9785C43.1919 46.4026 45.2942 48.5002 46.7216 49.7945C49.0876 51.9377 51.538 53.8634 54.02 55.5576C56.3158 57.1221 59.3778 56.7257 61.2974 54.8105L67.1016 49.0194C67.7661 48.3564 68.7927 48.3564 69.4571 49.0194L78.4536 57.9955C79.2938 58.8338 79.4451 60.1176 78.8192 61.1243L74.6638 67.8134C73.9184 69.013 71.7598 70.9141 70.7965 71.1878C62.5876 73.5449 49.2109 68.8096 37.7953 58.4691C36.4946 57.294 34.3746 55.1753 33.1934 53.881C22.829 42.4877 18.0869 29.1485 20.4494 20.9547C20.7236 19.9901 22.6256 17.8363 23.8279 17.0927L30.5357 12.9502C31.5482 12.3258 32.8313 12.4731 33.6715 13.3114Z" fill="#113A75"/>
</g>
<defs>
<clipPath id="clip0_262_41">
<rect width="99" height="88" fill="white"/>
</clipPath>
</defs>
</svg>
