<svg width="80" height="100" viewBox="0 0 80 100" fill="none" xmlns="http://www.w3.org/2000/svg">
<g clip-path="url(#clip0_263_52)">
<path d="M56.6667 65.8332H23.3333C19.1341 65.8332 15.1068 64.165 12.1375 61.1957C9.16815 58.2264 7.5 54.1991 7.5 49.9998V29.9998C7.5 25.8006 9.16815 21.7733 12.1375 18.804C15.1068 15.8347 19.1341 14.1665 23.3333 14.1665H56.6667C60.8659 14.1665 64.8932 15.8347 67.8625 18.804C70.8318 21.7733 72.5 25.8006 72.5 29.9998V49.9998C72.5 54.1991 70.8318 58.2264 67.8625 61.1957C64.8932 64.165 60.8659 65.8332 56.6667 65.8332ZM23.3333 19.1665C20.4629 19.1753 17.7125 20.3195 15.6827 22.3492C13.653 24.379 12.5088 27.1294 12.5 29.9998V49.9998C12.5088 52.8703 13.653 55.6207 15.6827 57.6505C17.7125 59.6802 20.4629 60.8244 23.3333 60.8332H56.6667C59.5371 60.8244 62.2875 59.6802 64.3173 57.6505C66.347 55.6207 67.4912 52.8703 67.5 49.9998V29.9998C67.4912 27.1294 66.347 24.379 64.3173 22.3492C62.2875 20.3195 59.5371 19.1753 56.6667 19.1665H23.3333Z" fill="#113A75"/>
<path d="M40.0007 42.4996C36.4752 42.5055 33.049 41.3322 30.2674 39.1663L18.9007 30.3329C18.6158 30.1416 18.3735 29.8936 18.1886 29.6045C18.0038 29.3153 17.8804 28.9912 17.8263 28.6524C17.7721 28.3135 17.7883 27.9671 17.8738 27.6348C17.9593 27.3025 18.1123 26.9913 18.3233 26.7206C18.5343 26.45 18.7988 26.2257 19.1002 26.0617C19.4017 25.8977 19.7337 25.7976 20.0755 25.7675C20.4174 25.7373 20.7617 25.7779 21.0872 25.8867C21.4127 25.9954 21.7123 26.17 21.9674 26.3996L33.334 35.2329C35.243 36.7087 37.5877 37.5094 40.0007 37.5094C42.4136 37.5094 44.7583 36.7087 46.6673 35.2329L58.034 26.3996C58.2891 26.17 58.5887 25.9954 58.9142 25.8867C59.2396 25.7779 59.584 25.7373 59.9258 25.7675C60.2677 25.7976 60.5997 25.8977 60.9011 26.0617C61.2026 26.2257 61.467 26.45 61.678 26.7206C61.889 26.9913 62.042 27.3025 62.1276 27.6348C62.2131 27.9671 62.2293 28.3135 62.1751 28.6524C62.1209 28.9912 61.9976 29.3153 61.8128 29.6045C61.6279 29.8936 61.3855 30.1416 61.1007 30.3329L49.734 39.1663C46.9523 41.3322 43.5261 42.5055 40.0007 42.4996Z" fill="#113A75"/>
</g>
<defs>
<clipPath id="clip0_263_52">
<rect width="80" height="100" fill="white"/>
</clipPath>
</defs>
</svg>
