<svg width="101" height="101" viewBox="0 0 101 101" fill="none" xmlns="http://www.w3.org/2000/svg">
<g clip-path="url(#clip0_262_24)">
<path d="M79.2926 43.7135C76.5524 -1.07632 11.0671 10.5479 23.2725 53.3223C24.1907 56.0051 28.1826 54.7139 27.372 52.0096C21.741 36.3288 33.7921 18.9871 50.5019 19.224C64.0056 19.224 74.9916 30.2101 74.9916 43.7138C74.9916 61.8516 55.4986 76.3735 50.5166 79.7882C47.1523 77.439 37.1525 69.9361 31.041 59.8426C29.5418 57.4502 25.9301 59.631 27.3612 62.0735C35.2912 75.1649 48.7805 83.8298 49.3507 84.1962C50.0465 84.6373 50.936 84.6445 51.639 84.2105C52.7688 83.5111 79.2992 66.8155 79.2992 43.7168L79.2926 43.7135Z" fill="#113A75"/>
<path d="M44.9003 90.957C42.0741 91.0037 42.0705 95.2144 44.9003 95.261H56.1012C58.9275 95.2144 58.9311 91.0037 56.1012 90.957H44.9003Z" fill="#113A75"/>
<path d="M62.5592 49.8326C65.8052 50.5428 65.7836 46.0702 65.9091 43.9003C65.0662 23.4598 35.9351 23.4634 35.0931 43.9003C34.9353 56.1342 49.2964 63.6697 59.256 56.5722C61.555 54.9187 59.1627 51.4648 56.8098 53.0321C54.9448 54.3233 52.7641 55.0047 50.5009 55.0047C44.3785 55.0047 39.3964 50.0229 39.3964 43.9002C39.9954 29.1735 61.0095 29.1772 61.6054 43.9002C61.8278 45.9375 59.7795 48.8642 62.5592 49.8326Z" fill="#113A75"/>
</g>
<defs>
<clipPath id="clip0_262_24">
<rect width="101" height="101" fill="white"/>
</clipPath>
</defs>
</svg>
