<svg width="60" height="60" viewBox="0 0 60 60" fill="none" xmlns="http://www.w3.org/2000/svg">
<path d="M55.7866 26.1595C55.5569 19.6148 52.9066 13.4948 48.2528 8.84105C43.375 3.9623 36.8922 1.27637 29.9997 1.27637C16.0788 1.27637 4.7041 12.3567 4.21379 26.1595C2.08941 27.1036 0.602539 29.2298 0.602539 31.7011V38.5092C0.602539 41.8523 3.32223 44.5729 6.66629 44.5729C8.83004 44.5729 10.5897 42.8132 10.5897 40.6495V29.5598C10.5897 27.5282 9.0316 25.8717 7.05066 25.6748C7.78191 13.6495 17.7925 4.08887 29.9997 4.08887C36.1422 4.08887 41.9182 6.48324 46.2654 10.8304C50.2572 14.8223 52.5935 20.0254 52.945 25.6757C50.966 25.8745 49.4107 27.5301 49.4107 29.5598V40.6486C49.4107 42.697 50.9932 44.3639 52.9975 44.5373V47.3395C52.9975 50.4951 50.4297 53.062 47.2741 53.062H43.0357C42.8275 52.4676 42.5013 51.9182 42.0438 51.4626C41.2422 50.6573 40.1735 50.2139 39.0354 50.2139H34.6666C34.0394 50.2139 33.4375 50.347 32.8863 50.6039C31.3825 51.2948 30.4113 52.8117 30.4113 54.4682C30.4113 55.6064 30.8547 56.6751 31.6582 57.4748C32.4616 58.2801 33.5303 58.7236 34.6666 58.7236H39.0354C40.8466 58.7236 42.4432 57.5526 43.0385 55.8745H47.2741C51.9813 55.8745 55.81 52.0457 55.81 47.3395V44.0367C57.9213 43.087 59.3969 40.9682 59.3969 38.5073V31.6992C59.3969 29.2298 57.91 27.1036 55.7866 26.1595ZM7.77629 29.5598V40.6486C7.77629 41.2607 7.27848 41.7595 6.66535 41.7595C4.87285 41.7595 3.4141 40.3007 3.4141 38.5082V31.7001C3.4141 29.9067 4.87285 28.4489 6.66535 28.4489C7.27848 28.4489 7.77629 28.9476 7.77629 29.5598ZM40.4463 54.7701C40.3066 55.432 39.7122 55.9129 39.0344 55.9129H34.6657C34.2813 55.9129 33.9203 55.7629 33.6447 55.4873C33.3729 55.2164 33.2229 54.8545 33.2229 54.4701C33.2229 53.9086 33.5519 53.3957 34.0675 53.1586C34.2513 53.0723 34.4529 53.0282 34.6657 53.0282H39.0344C39.4188 53.0282 39.7797 53.1773 40.0544 53.4529C40.3263 53.7239 40.4763 54.0857 40.4763 54.4701C40.4772 54.5732 40.466 54.6764 40.4463 54.7701ZM56.5844 38.5082C56.5844 40.3007 55.1257 41.7595 53.3332 41.7595C52.721 41.7595 52.2222 41.2617 52.2222 40.6486V29.5598C52.2222 28.9476 52.72 28.4489 53.3332 28.4489C55.1257 28.4489 56.5844 29.9076 56.5844 31.7001V38.5082Z" fill="#113A75"/>
<path d="M39.1052 38.9927C42.3911 38.9927 45.0639 36.3189 45.0639 33.0339V20.8923C45.0639 19.3042 44.4433 17.808 43.3164 16.6811C42.1896 15.5542 40.6943 14.9336 39.1052 14.9336H20.8933C17.6074 14.9336 14.9346 17.6064 14.9346 20.8923V33.0339C14.9346 36.3198 17.6074 38.9927 20.8933 38.9927H21.0049V42.1389C21.0049 43.3389 21.7202 44.4039 22.8264 44.853C23.1836 44.9964 23.5549 45.0677 23.9224 45.0677C24.6883 45.0677 25.4346 44.7639 25.9811 44.1986L31.2152 38.9927H39.1052ZM29.6449 36.5889L23.9805 42.2223C23.9552 42.2486 23.9364 42.2683 23.883 42.2448C23.8183 42.2186 23.8183 42.1764 23.8183 42.1389V37.5864C23.8183 36.8102 23.1893 36.1802 22.4121 36.1802H20.8943C19.1589 36.1802 17.748 34.7683 17.748 33.0339V20.8923C17.748 19.157 19.1589 17.7461 20.8943 17.7461H39.1061C39.9443 17.7461 40.7327 18.0742 41.3289 18.6695C41.9252 19.2658 42.2524 20.0552 42.2524 20.8923V33.0339C42.2524 34.7692 40.8405 36.1802 39.1061 36.1802H30.6368C30.2646 36.1802 29.9083 36.3273 29.6449 36.5889Z" fill="#113A75"/>
<path d="M23.1684 25.1133C22.0247 25.1133 21.0938 26.0452 21.0938 27.188C21.0938 28.3308 22.0256 29.2627 23.1684 29.2627C24.3131 29.2627 25.245 28.3308 25.245 27.188C25.245 26.0452 24.3141 25.1133 23.1684 25.1133Z" fill="#113A75"/>
<path d="M29.9985 25.1133C28.8548 25.1133 27.9238 26.0452 27.9238 27.188C27.9238 28.3308 28.8557 29.2627 29.9985 29.2627C31.1441 29.2627 32.0751 28.3308 32.0751 27.188C32.0751 26.0452 31.1441 25.1133 29.9985 25.1133Z" fill="#113A75"/>
<path d="M36.8296 25.1133C35.6858 25.1133 34.7549 26.0452 34.7549 27.188C34.7549 28.3308 35.6868 29.2627 36.8296 29.2627C37.9743 29.2627 38.9061 28.3308 38.9061 27.188C38.9061 26.0452 37.9743 25.1133 36.8296 25.1133Z" fill="#113A75"/>
</svg>
