<svg width="48" height="48" viewBox="0 0 48 48" fill="none" xmlns="http://www.w3.org/2000/svg">
<path d="M20.8126 46.4766C20.8115 46.4766 20.8101 46.4766 20.8087 46.4766C19.4005 46.4755 18.0764 45.9261 17.081 44.9291L3.06139 30.8894C1.01079 28.835 1.01079 25.4921 3.06139 23.438L21.9601 4.50302C23.9077 2.55157 26.4991 1.47656 29.2566 1.47656H41.2469C44.1544 1.47656 46.5203 3.84192 46.5203 6.75V18.7034C46.5203 21.459 45.4464 24.0493 43.4969 25.9967L24.5394 44.9344C23.5435 45.9289 22.2199 46.4766 20.8126 46.4766ZM29.2566 4.99219C27.4395 4.99219 25.732 5.70053 24.4485 6.98648L5.54952 25.9214C4.86589 26.6064 4.86589 27.7204 5.54952 28.4054L19.5692 42.4451C19.9007 42.7772 20.3418 42.9607 20.8115 42.9609H20.8128C21.2819 42.9609 21.723 42.7783 22.0548 42.4471L41.0123 23.5096C42.2972 22.2264 43.0047 20.5192 43.0047 18.7034V6.75C43.0047 5.78073 42.2161 4.99219 41.2469 4.99219H29.2566ZM33.7759 19.3184C30.8681 19.3184 28.5024 16.953 28.5024 14.0449C28.5024 11.1368 30.8681 8.77148 33.7759 8.77148C36.6837 8.77148 39.0493 11.1368 39.0493 14.0449C39.0493 16.953 36.6837 19.3184 33.7759 19.3184ZM33.7759 12.2871C32.8066 12.2871 32.0181 13.0757 32.0181 14.0449C32.0181 15.0142 32.8066 15.8027 33.7759 15.8027C34.7454 15.8027 35.5337 15.0142 35.5337 14.0449C35.5337 13.0757 34.7454 12.2871 33.7759 12.2871Z" fill="#113A75"/>
</svg>
