<svg width="17" height="15" viewBox="0 0 17 15" fill="none" xmlns="http://www.w3.org/2000/svg">
<path d="M16.3799 2.174C15.0119 3.422 13.6799 4.874 12.3839 6.53C11.2559 7.958 10.2419 9.422 9.34194 10.922C8.52594 12.266 7.93194 13.418 7.55994 14.378C7.54794 14.414 7.52394 14.444 7.48794 14.468C7.45194 14.504 7.40994 14.522 7.36194 14.522C7.34994 14.534 7.33794 14.54 7.32594 14.54C7.24194 14.54 7.18194 14.516 7.14594 14.468L0.719938 7.934C0.707938 7.922 0.863938 7.766 1.18794 7.466C1.51194 7.154 1.82994 6.872 2.14194 6.62C2.48994 6.332 2.67594 6.2 2.69994 6.224L6.22794 8.996C7.25994 7.784 8.41794 6.584 9.70194 5.396C11.6339 3.62 13.6259 2.108 15.6779 0.86C15.7139 0.86 15.8519 1.028 16.0919 1.364L16.4519 1.886C16.4639 1.934 16.4639 1.988 16.4519 2.048C16.4399 2.096 16.4159 2.138 16.3799 2.174Z" fill="#4DA528"/>
</svg>
