<svg width="56" height="61" viewBox="0 0 56 61" fill="none" xmlns="http://www.w3.org/2000/svg">
<g clip-path="url(#clip0_57_122)">
<path d="M31.2313 37.4676C30.9353 37.4676 30.6513 37.3461 30.4473 37.1304C30.2333 36.9041 30.1286 36.5973 30.1597 36.2872L32.4728 13.4185C33.0239 7.97417 36.7448 3.45678 41.7324 2.17792C42.0563 2.09831 42.3991 2.1664 42.6621 2.37064C42.9255 2.57488 43.0785 2.88909 43.0775 3.22112L42.9534 35.9678C42.9513 36.5417 42.4959 37.012 41.9201 37.0351L31.275 37.4666C31.2602 37.4676 31.246 37.4676 31.2313 37.4676ZM40.9178 4.71365C37.492 6.17057 35.0247 9.59344 34.6162 13.6343L32.4271 35.2734L40.8032 34.934L40.9178 4.71365Z" fill="#113A75"/>
<path d="M36.491 53.6254C36.2128 53.6254 35.9446 53.5185 35.7438 53.3248C35.5319 53.1216 35.413 52.8419 35.4141 52.5486L35.4761 36.1748C35.4782 35.6008 35.9336 35.1305 36.5094 35.1075L41.832 34.8917C42.1233 34.8677 42.4114 34.9871 42.6228 35.1913C42.8347 35.3945 42.9536 35.6741 42.9525 35.9674L42.8905 52.3413C42.8884 52.9152 42.433 53.3855 41.8572 53.4086L36.5346 53.6243C36.5199 53.6254 36.5057 53.6254 36.491 53.6254ZM37.6263 37.2086L37.5721 51.4353L40.7403 51.3075L40.7945 37.0808L37.6263 37.2086Z" fill="#113A75"/>
<path d="M19.3738 53.6258C19.357 53.6258 19.3401 53.6258 19.3233 53.6258C18.2732 53.6121 17.2909 53.167 16.5574 52.3731C15.7634 51.5142 15.3558 50.3328 15.4395 49.1324L16.2797 20.4654L18.4325 20.5282L17.5901 49.2382C17.5454 49.896 17.7474 50.493 18.1418 50.9203C18.4704 51.2754 18.9 51.4744 19.3517 51.4807C19.7955 51.4765 20.2451 51.2953 20.5822 50.9423C20.9876 50.5171 21.1974 49.9159 21.1575 49.2927L20.4307 20.4685L22.5835 20.4141L23.3087 49.1974C23.3854 50.3736 22.9611 51.5634 22.1434 52.4202C21.3999 53.1984 20.4181 53.6258 19.3738 53.6258Z" fill="#113A75"/>
<path d="M19.3854 22.2303C15.7623 22.2303 12.9238 17.8187 12.9238 12.1869C12.9238 6.55614 15.7623 2.14453 19.3854 2.14453C23.0084 2.14453 25.8469 6.55614 25.8469 12.1869C25.8469 17.8187 23.0084 22.2303 19.3854 22.2303ZM19.3854 4.28959C17.0501 4.28959 15.0777 7.90623 15.0777 12.1869C15.0777 16.4686 17.0501 20.0853 19.3854 20.0853C21.7206 20.0853 23.6931 16.4686 23.6931 12.1869C23.6931 7.90623 21.7206 4.28959 19.3854 4.28959Z" fill="#113A75"/>
</g>
<defs>
<clipPath id="clip0_57_122">
<rect width="56" height="61" fill="white"/>
</clipPath>
</defs>
</svg>
