<svg width="60" height="60" viewBox="0 0 60 60" fill="none" xmlns="http://www.w3.org/2000/svg">
<g clip-path="url(#clip0_54_74)">
<path d="M52.8734 17.5415L30.7143 7.31419C30.2605 7.10751 29.7406 7.10751 29.2868 7.31419L7.12767 17.5415C6.48845 17.8376 6.09643 18.4939 6.14116 19.197L6.41814 23.6459C7.36631 38.3731 16.0509 51.4919 29.2378 58.1159C29.7172 58.3545 30.284 58.3545 30.7634 58.1159C43.9503 51.4913 52.635 38.3731 53.583 23.6459L53.86 19.197C53.9047 18.4939 53.5126 17.8376 52.8734 17.5415ZM50.1802 23.4307V23.4329C49.3301 36.6432 41.6919 48.4681 30.0006 54.6727C18.3093 48.4681 10.6708 36.6427 9.82096 23.4329L9.61641 20.1495L30.0006 10.7404L50.387 20.1495L50.1802 23.4307ZM28.2 35.3326L37.23 24.7987C37.522 24.4536 37.9417 24.2405 38.3934 24.2064C38.8451 24.1702 39.2925 24.3151 39.6356 24.6113C39.9807 24.9053 40.1916 25.325 40.2257 25.7767C40.2598 26.2284 40.1128 26.6759 39.8166 27.0189L29.5894 38.9507C29.2826 39.3108 28.8351 39.526 28.3621 39.543L28.2961 39.5452C27.8444 39.5452 27.4097 39.3662 27.0901 39.0466L20.2719 32.2284C19.6178 31.5593 19.6221 30.4898 20.2826 29.8271C20.9452 29.1666 22.0148 29.1623 22.6838 29.8165L28.2 35.3326Z" fill="#113A75"/>
</g>
<defs>
<clipPath id="clip0_54_74">
<rect width="60" height="60" fill="white"/>
</clipPath>
</defs>
</svg>
