<svg width="10" height="12" viewBox="0 0 10 12" fill="none" xmlns="http://www.w3.org/2000/svg">
<path d="M8.76615 2.64062C8.0013 1.03708 6.42502 0.0237029 4.65072 0.000406913C2.87255 -0.0228891 1.29626 0.955543 0.504234 2.56297C-0.318852 4.22863 -0.124728 6.15831 1.01672 7.60655L3.96352 11.3494C4.11494 11.5397 4.34012 11.6484 4.58084 11.6484C4.82155 11.6484 5.04674 11.5397 5.19815 11.3494L8.22261 7.5056C9.32135 6.10784 9.52712 4.24804 8.76615 2.6445V2.64062ZM7.61694 7.02415L4.57696 10.868L1.63015 7.1251C0.678946 5.91759 0.515881 4.29852 1.20308 2.90852C1.8631 1.57289 3.12491 0.780823 4.58472 0.780823H4.64296C6.1416 0.804119 7.42281 1.62336 8.06731 2.97841C8.7118 4.33346 8.54485 5.84382 7.61694 7.02415Z" fill="white"/>
<path d="M4.59737 2.39697C3.42875 2.39697 2.47754 3.34822 2.47754 4.51691C2.47754 5.68559 3.42875 6.63684 4.59737 6.63684C5.766 6.63684 6.71721 5.68559 6.71721 4.51691C6.71721 3.34822 5.766 2.39697 4.59737 2.39697ZM4.59737 5.85642C3.85582 5.85642 3.25404 5.25461 3.25404 4.51302C3.25404 3.77143 3.85582 3.16962 4.59737 3.16962C5.33893 3.16962 5.94071 3.77143 5.94071 4.51302C5.94071 5.25461 5.33893 5.85642 4.59737 5.85642Z" fill="white"/>
</svg>
