<svg width="38" height="38" viewBox="0 0 38 38" fill="none" xmlns="http://www.w3.org/2000/svg">
<path fill-rule="evenodd" clip-rule="evenodd" d="M26.4996 13.2393L12.5792 25.9432L11.4902 24.75L25.4106 12.0461L26.4996 13.2393Z" fill="white"/>
<path fill-rule="evenodd" clip-rule="evenodd" d="M24.8138 12.5908C22.0078 15.1516 21.9668 19.7118 24.3682 22.3431L24.9126 22.9397L26.1058 21.8507L25.5614 21.2541C23.7381 19.2563 23.7809 15.7204 25.9027 13.784L26.499 13.2398L25.4101 12.0466L24.8138 12.5908Z" fill="white"/>
<path fill-rule="evenodd" clip-rule="evenodd" d="M25.9032 13.7844C23.0972 16.3452 18.5523 15.9701 16.1509 13.3388L15.6064 12.7422L16.7996 11.6533L17.3441 12.2499C19.1674 14.2477 22.6925 14.5276 24.8143 12.5912L25.4106 12.0471L26.4995 13.2403L25.9032 13.7844Z" fill="white"/>
</svg>
