<svg width="27" height="27" viewBox="0 0 27 27" fill="none" xmlns="http://www.w3.org/2000/svg">
<path d="M17.3372 11.1651L24.1455 4.42909V7.19695C24.1455 7.78812 24.6299 8.26735 25.2274 8.26735C25.825 8.26735 26.3094 7.78812 26.3094 7.19695V1.84492C26.3094 1.80965 26.3075 1.77437 26.304 1.7392C26.3024 1.72334 26.2995 1.70799 26.2972 1.69239C26.2944 1.67347 26.2922 1.6545 26.2885 1.63569C26.2849 1.61772 26.2799 1.60031 26.2754 1.5827C26.2713 1.56649 26.2677 1.55019 26.2627 1.53413C26.2575 1.51682 26.2509 1.50011 26.2447 1.4832C26.2389 1.46719 26.2336 1.45104 26.227 1.43523C26.2204 1.41943 26.2126 1.40432 26.2053 1.38892C26.1975 1.37266 26.1902 1.35626 26.1816 1.3403C26.1736 1.32555 26.1645 1.3115 26.1558 1.29715C26.1464 1.28154 26.1375 1.26574 26.1272 1.25048C26.1165 1.23463 26.1045 1.21973 26.093 1.20447C26.0834 1.19178 26.0744 1.17873 26.0642 1.16634C26.0417 1.13929 26.0181 1.11325 25.9931 1.08852C25.9929 1.08832 25.9927 1.08811 25.9925 1.08791C25.9923 1.08771 25.9921 1.08761 25.992 1.08741C25.9669 1.06268 25.9406 1.03924 25.9133 1.01702C25.9007 1.00683 25.8876 0.997999 25.8747 0.988465C25.8593 0.977075 25.8442 0.965284 25.8282 0.954697C25.8128 0.944511 25.7968 0.93568 25.781 0.926347C25.7665 0.917767 25.7523 0.908786 25.7374 0.900858C25.7213 0.892328 25.7048 0.885102 25.6883 0.877426C25.6727 0.87015 25.6574 0.862473 25.6415 0.8559C25.6255 0.849377 25.6092 0.844058 25.5929 0.838338C25.5759 0.832267 25.559 0.825794 25.5416 0.820576C25.5253 0.815709 25.5088 0.812146 25.4924 0.808082C25.4746 0.803617 25.457 0.798699 25.4389 0.795137C25.4199 0.791424 25.4007 0.789166 25.3816 0.786456C25.3658 0.784249 25.3503 0.781238 25.3343 0.779683C25.2988 0.776271 25.2631 0.774414 25.2275 0.774414H19.8179C19.2204 0.774414 18.736 1.25365 18.736 1.84482C18.736 2.43599 19.2204 2.91523 19.8179 2.91523H22.6155L15.8071 9.65131C15.3846 10.0693 15.3846 10.7471 15.8071 11.1651C16.2296 11.5831 16.9147 11.5831 17.3372 11.1651Z" fill="white"/>
<path d="M9.31597 16.0738L2.5076 22.8098V20.0419C2.5076 19.4508 2.02322 18.9715 1.4257 18.9715C0.828127 18.9715 0.34375 19.4508 0.34375 20.0419V25.3941C0.34375 25.4293 0.345626 25.4646 0.349126 25.4997C0.350698 25.5155 0.35369 25.5309 0.355972 25.5465C0.358711 25.5654 0.360942 25.5844 0.364746 25.6032C0.368347 25.6212 0.373317 25.6385 0.37783 25.6561C0.381938 25.6724 0.385539 25.6887 0.390458 25.7048C0.395733 25.722 0.402275 25.7387 0.408411 25.7556C0.414244 25.7716 0.419569 25.7878 0.426162 25.8036C0.432755 25.8194 0.440565 25.8345 0.447918 25.8499C0.455678 25.8662 0.462981 25.8826 0.471602 25.8985C0.479615 25.9133 0.488693 25.9273 0.497365 25.9416C0.506798 25.9572 0.515724 25.9731 0.526019 25.9884C0.53672 26.0042 0.548638 26.0191 0.56015 26.0343C0.569786 26.0471 0.578712 26.0601 0.589007 26.0725C0.611474 26.0996 0.635157 26.1256 0.66016 26.1504C0.660363 26.1506 0.660464 26.1508 0.660667 26.1509C0.66087 26.1511 0.661073 26.1513 0.661276 26.1515C0.686278 26.1762 0.712599 26.1996 0.739934 26.2218C0.752461 26.232 0.765647 26.2408 0.778478 26.2503C0.793895 26.2617 0.808957 26.2736 0.824983 26.2841C0.84035 26.2943 0.856325 26.3032 0.872148 26.3125C0.886652 26.3211 0.900802 26.3301 0.915763 26.338C0.93189 26.3465 0.948474 26.3537 0.964905 26.3614C0.980475 26.3687 0.995791 26.3764 1.01172 26.3829C1.02769 26.3894 1.04397 26.3947 1.0602 26.4005C1.07729 26.4065 1.09418 26.413 1.11167 26.4183C1.1279 26.4231 1.14439 26.4267 1.16077 26.4308C1.17857 26.4352 1.19617 26.4401 1.21432 26.4437C1.23334 26.4474 1.25251 26.4496 1.27163 26.4523C1.2874 26.4545 1.30297 26.4576 1.31895 26.4591C1.35445 26.4626 1.39005 26.4644 1.42565 26.4644H6.83525C7.43277 26.4644 7.91715 25.9852 7.91715 25.394C7.91715 24.8028 7.43277 24.3236 6.83525 24.3236H4.03767L10.846 17.5876C11.2685 17.1696 11.2685 16.4918 10.846 16.0738C10.4235 15.6557 9.73847 15.6557 9.31597 16.0738Z" fill="white"/>
<path d="M26.0931 26.0342C26.1046 26.0191 26.1165 26.0042 26.1272 25.9884C26.1375 25.9732 26.1464 25.9573 26.1559 25.9416C26.1645 25.9273 26.1736 25.9133 26.1815 25.8986C26.1902 25.8827 26.1975 25.8662 26.2053 25.8499C26.2126 25.8346 26.2203 25.8195 26.227 25.8037C26.2336 25.7879 26.239 25.7717 26.2447 25.7557C26.2509 25.7388 26.2574 25.7221 26.2627 25.7049C26.2676 25.6888 26.2712 25.6724 26.2753 25.6562C26.2798 25.6386 26.2848 25.6212 26.2884 25.6033C26.2922 25.5845 26.2944 25.5655 26.2972 25.5466C26.2994 25.531 26.3024 25.5156 26.304 25.4998C26.3075 25.4646 26.3094 25.4293 26.3094 25.3941V20.0419C26.3094 19.4508 25.825 18.9715 25.2275 18.9715C24.63 18.9715 24.1456 19.4508 24.1456 20.0419V22.8098L17.3372 16.0738C16.9147 15.6557 16.2296 15.6557 15.8071 16.0738C15.3846 16.4918 15.3846 17.1696 15.8071 17.5876L22.6155 24.3236H19.8179C19.2204 24.3236 18.736 24.8028 18.736 25.394C18.736 25.9852 19.2204 26.4645 19.8179 26.4645H25.2275C25.2631 26.4645 25.2988 26.4626 25.3343 26.4592C25.3502 26.4576 25.3657 26.4546 25.3816 26.4524C25.4007 26.4497 25.4199 26.4475 25.4389 26.4437C25.457 26.4401 25.4746 26.4352 25.4924 26.4308C25.5088 26.4267 25.5253 26.4231 25.5415 26.4183C25.559 26.413 25.5759 26.4066 25.5929 26.4005C25.6091 26.3947 25.6255 26.3895 25.6414 26.3829C25.6574 26.3764 25.6726 26.3687 25.6881 26.3615C25.7046 26.3538 25.7213 26.3466 25.7374 26.338C25.7522 26.3301 25.7664 26.3211 25.7808 26.3126C25.7967 26.3033 25.8127 26.2944 25.8281 26.2842C25.8441 26.2736 25.8591 26.2619 25.8744 26.2505C25.8873 26.2409 25.9006 26.2321 25.9132 26.2219C25.9403 26.1998 25.9664 26.1766 25.9913 26.152C25.9917 26.1517 25.9921 26.1513 25.9924 26.151C25.9928 26.1506 25.9931 26.1502 25.9935 26.1498C26.0182 26.1252 26.0418 26.0994 26.0641 26.0725C26.0745 26.0601 26.0835 26.047 26.0931 26.0342Z" fill="white"/>
<path d="M4.03767 2.91528H6.83525C7.43277 2.91528 7.91715 2.43604 7.91715 1.84487C7.91715 1.25365 7.43277 0.774414 6.83525 0.774414H1.42565C1.39005 0.774414 1.35434 0.776271 1.3189 0.779733C1.30287 0.781288 1.28735 0.784249 1.27158 0.786506C1.25246 0.789216 1.23329 0.791424 1.21427 0.795137C1.19611 0.798699 1.17852 0.803617 1.16072 0.808082C1.14433 0.812146 1.12785 0.815709 1.11162 0.820576C1.09413 0.825794 1.07724 0.832317 1.06015 0.838389C1.04397 0.844159 1.02764 0.849427 1.01166 0.85595C0.995689 0.862523 0.980323 0.8702 0.964753 0.877526C0.948372 0.885153 0.931789 0.892378 0.915712 0.900908C0.900751 0.908836 0.886551 0.917867 0.871996 0.926448C0.856274 0.93573 0.840299 0.944511 0.824932 0.954697C0.808856 0.965334 0.793743 0.977176 0.778275 0.988616C0.765495 0.998099 0.75236 1.00688 0.739934 1.01702C0.684807 1.06177 0.634194 1.11185 0.588956 1.16639C0.578712 1.17868 0.569837 1.19168 0.560252 1.20437C0.548689 1.21968 0.53672 1.23463 0.525968 1.25053C0.515673 1.26574 0.506798 1.28149 0.497365 1.2971C0.488693 1.31145 0.479564 1.32555 0.471551 1.34035C0.46293 1.35626 0.455678 1.37261 0.447918 1.38887C0.440565 1.40427 0.432755 1.41948 0.426111 1.43528C0.419518 1.45109 0.414193 1.46719 0.408361 1.48325C0.402224 1.50016 0.395682 1.51687 0.390357 1.53418C0.385438 1.55024 0.381837 1.56654 0.377729 1.58275C0.373215 1.60036 0.368245 1.61777 0.364645 1.63574C0.360892 1.65455 0.35866 1.67352 0.355922 1.69244C0.35369 1.70804 0.350647 1.72344 0.349075 1.73925C0.345626 1.77432 0.34375 1.80955 0.34375 1.84482V7.19695C0.34375 7.78812 0.828128 8.26735 1.42565 8.26735C2.02317 8.26735 2.50755 7.78812 2.50755 7.19695V4.42909L9.31592 11.1651C9.73842 11.5831 10.4235 11.5831 10.846 11.1651C11.2685 10.7471 11.2685 10.0693 10.846 9.65131L4.03767 2.91528Z" fill="white"/>
</svg>
