<svg width="14" height="8" viewBox="0 0 14 8" fill="none" xmlns="http://www.w3.org/2000/svg">
<path d="M13.0961 3.6178L9.22803 0.157332C9.174 0.107774 9.10817 0.0681771 9.03475 0.0410843C8.96132 0.0139915 8.88193 0 8.80165 0C8.72138 0 8.64198 0.0139915 8.56856 0.0410843C8.49514 0.0681771 8.4293 0.107774 8.37528 0.157332C8.26166 0.262044 8.19875 0.39827 8.19875 0.539537C8.19875 0.680805 8.26166 0.817024 8.37528 0.921736L11.2115 3.45837H0.876185C0.712424 3.46829 0.559234 3.52959 0.447415 3.62994C0.335596 3.73029 0.273438 3.86225 0.273438 3.99929C0.273438 4.13633 0.335596 4.26829 0.447415 4.36864C0.559234 4.46899 0.712424 4.53029 0.876185 4.54021H11.2098L8.37357 7.07826C8.25996 7.18298 8.19704 7.3192 8.19704 7.46047C8.19704 7.60174 8.25996 7.73796 8.37357 7.84267C8.4276 7.89223 8.49343 7.93182 8.56685 7.95892C8.64028 7.98601 8.71967 8 8.79995 8C8.88023 8 8.95962 7.98601 9.03304 7.95892C9.10646 7.93182 9.1723 7.89223 9.22632 7.84267L13.0961 4.38932C13.2121 4.28419 13.2765 4.14649 13.2765 4.00356C13.2765 3.86063 13.2121 3.72293 13.0961 3.6178Z" fill="#FBAD17"/>
</svg>
