<svg width="52" height="54" viewBox="0 0 52 54" fill="none" xmlns="http://www.w3.org/2000/svg">
<g clip-path="url(#clip0_275_20)">
<path d="M38.0722 7.56445H14.8904C10.0964 7.56445 6.19727 11.4795 6.19727 16.2929V39.5687C6.19727 44.3822 10.0965 48.2972 14.8904 48.2972H38.0722C42.8662 48.2972 46.7654 44.3821 46.7654 39.5687V16.2929C46.7654 11.4795 42.8661 7.56445 38.0722 7.56445ZM43.8677 39.5687C43.8677 42.7783 41.2688 45.3877 38.0722 45.3877H14.8904C11.6939 45.3877 9.09499 42.7783 9.09499 39.5687V16.2929C9.09499 13.0834 11.6939 10.4739 14.8904 10.4739H38.0722C41.2688 10.4739 43.8677 13.0834 43.8677 16.2929V39.5687ZM26.4813 16.2929C20.0901 16.2929 14.8904 21.5137 14.8904 27.9308C14.8904 34.348 20.0901 39.5687 26.4813 39.5687C32.8726 39.5687 38.0722 34.348 38.0722 27.9308C38.0722 21.5137 32.8726 16.2929 26.4813 16.2929ZM26.4813 36.6593C21.6873 36.6593 17.7882 32.7442 17.7882 27.9308C17.7882 23.1175 21.6874 19.2024 26.4813 19.2024C31.2752 19.2024 35.1745 23.1175 35.1745 27.9308C35.1745 32.7442 31.2752 36.6593 26.4813 36.6593ZM39.1011 15.2599C39.3618 15.5363 39.5212 15.9145 39.5212 16.2928C39.5212 16.6711 39.3618 17.0493 39.1011 17.3257C38.8258 17.5875 38.4491 17.7476 38.0723 17.7476C37.6956 17.7476 37.3189 17.5875 37.0436 17.3257C36.7828 17.0493 36.6235 16.6711 36.6235 16.2928C36.6235 15.9145 36.7828 15.5363 37.0436 15.2599C37.5797 14.7362 38.5505 14.7217 39.1011 15.2599Z" fill="white"/>
</g>
<defs>
<clipPath id="clip0_275_20">
<rect width="51" height="54" fill="white" transform="translate(0.981445)"/>
</clipPath>
</defs>
</svg>
