<svg width="20" height="20" viewBox="0 0 20 20" fill="none" xmlns="http://www.w3.org/2000/svg">
<path d="M12.5 3.125C12.8452 3.125 13.125 2.84518 13.125 2.5C13.125 2.15483 12.8452 1.875 12.5 1.875H9.96233C8.43183 1.87499 7.23217 1.87499 6.2804 1.97811C5.30912 2.08334 4.52213 2.30193 3.8502 2.79013C3.44341 3.08568 3.08568 3.44341 2.79013 3.85019C2.30193 4.52213 2.08334 5.30912 1.97811 6.2804C1.87499 7.23217 1.87499 8.43183 1.875 9.96233V10.0377C1.87499 11.5682 1.87499 12.7678 1.97811 13.7196C2.08334 14.6909 2.30193 15.4778 2.79013 16.1498C3.08568 16.5566 3.44341 16.9143 3.85019 17.2098C4.52213 17.6981 5.30912 17.9167 6.2804 18.0219C7.23216 18.125 8.43183 18.125 9.96225 18.125H10.0377C11.5682 18.125 12.7678 18.125 13.7196 18.0219C14.6909 17.9167 15.4778 17.6981 16.1498 17.2098C16.5566 16.9143 16.9143 16.5566 17.2098 16.1498C17.6981 15.4778 17.9167 14.6909 18.0219 13.7196C18.125 12.7678 18.125 11.5682 18.125 10.0377V7.5C18.125 7.15482 17.8452 6.875 17.5 6.875C17.1548 6.875 16.875 7.15482 16.875 7.5V10C16.875 11.5763 16.8742 12.7083 16.7792 13.585C16.6854 14.4499 16.5062 14.9917 16.1986 15.4151C15.9802 15.7157 15.7157 15.9802 15.4151 16.1986C14.9917 16.5062 14.4499 16.6854 13.585 16.7792C12.7083 16.8742 11.5763 16.875 10 16.875C8.42367 16.875 7.29166 16.8742 6.41503 16.7792C5.55011 16.6854 5.00827 16.5062 4.58493 16.1986C4.28426 15.9802 4.01985 15.7157 3.8014 15.4151C3.49383 14.9917 3.31454 14.4499 3.22083 13.585C3.12586 12.7083 3.125 11.5763 3.125 10C3.125 8.42367 3.12586 7.29166 3.22083 6.41504C3.31454 5.55011 3.49383 5.00827 3.8014 4.58493C4.01985 4.28426 4.28426 4.01985 4.58493 3.8014C5.00827 3.49383 5.55011 3.31454 6.41504 3.22083C7.29166 3.12586 8.42367 3.125 10 3.125H12.5Z" fill="#113A75"/>
<path d="M5.273 12.1059C5.12098 12.4158 5.24897 12.7903 5.55887 12.9423C5.86877 13.0943 6.24323 12.9663 6.39525 12.6564L7.6122 10.1756C7.98939 9.40656 9.09804 9.44415 9.42229 10.2369C10.155 12.0277 12.6595 12.1126 13.5116 10.3754L14.7286 7.89453C14.8806 7.58462 14.7526 7.21016 14.4427 7.05816C14.1328 6.90614 13.7584 7.03413 13.6063 7.34403L12.3894 9.8249C12.0122 10.5939 10.9035 10.5563 10.5793 9.76356C9.84662 7.97271 7.34208 7.88787 6.48994 9.62506L5.273 12.1059Z" fill="#113A75"/>
<path fill-rule="evenodd" clip-rule="evenodd" d="M14.582 3.33333C14.582 4.48393 15.5148 5.41667 16.6654 5.41667C17.8159 5.41667 18.7487 4.48393 18.7487 3.33333C18.7487 2.18274 17.8159 1.25 16.6654 1.25C15.5148 1.25 14.582 2.18274 14.582 3.33333ZM15.832 3.33333C15.832 3.79357 16.2051 4.16667 16.6654 4.16667C17.1256 4.16667 17.4987 3.79357 17.4987 3.33333C17.4987 2.8731 17.1256 2.5 16.6654 2.5C16.2051 2.5 15.832 2.8731 15.832 3.33333Z" fill="#113A75"/>
</svg>
