<svg width="28" height="25" viewBox="0 0 28 25" fill="none" xmlns="http://www.w3.org/2000/svg">
<path d="M13.4829 4C10.4501 4 8 6.4501 8 9.48288C8 9.85982 8.0343 10.2196 8.10279 10.5795C8.51403 13.6978 12.4205 15.9767 13.5171 20.4144C14.5966 16.0452 19 12.824 19 9.48288H18.9657C18.9657 6.45013 16.5155 4 13.4828 4H13.4829ZM13.4829 6.17592C15.2134 6.17592 16.6184 7.58097 16.6184 9.31144C16.6184 11.0419 15.2133 12.447 13.4829 12.447C11.7524 12.447 10.3474 11.0419 10.3474 9.31144C10.3474 7.58097 11.7523 6.17592 13.4829 6.17592Z" fill="#113A75"/>
</svg>
