<svg width="14" height="13" viewBox="0 0 14 13" fill="none" xmlns="http://www.w3.org/2000/svg">
<path fill-rule="evenodd" clip-rule="evenodd" d="M7.5377 9.76048L10.1747 12.6088C10.4322 12.8869 10.8495 12.8869 11.107 12.6088L13.744 9.76048C14.0015 9.48239 14.0015 9.03159 13.744 8.7535C13.4866 8.47541 13.0692 8.47541 12.8118 8.7535L11.3001 10.3862L11.3001 0.712076C11.3001 0.318811 11.005 3.91132e-09 10.6409 3.77813e-09C10.2768 3.64495e-09 9.98161 0.318811 9.98161 0.712076L9.98161 10.3862L8.46998 8.7535C8.21252 8.47541 7.79516 8.47541 7.5377 8.7535C7.28024 9.03159 7.28024 9.48239 7.5377 9.76048ZM4.07495 0.208562C3.8175 -0.0695178 3.40007 -0.0695178 3.14262 0.208562L0.50559 3.05687C0.248137 3.33495 0.248137 3.78581 0.50559 4.06389C0.763043 4.34197 1.18047 4.34197 1.43792 4.06389L2.94953 2.43118L2.94953 12.1053C2.94953 12.4985 3.24469 12.8174 3.60879 12.8174C3.97288 12.8174 4.26804 12.4985 4.26804 12.1053L4.26804 2.43118L5.77968 4.06389C6.03714 4.34197 6.45449 4.34197 6.71196 4.06389C6.96942 3.78581 6.96942 3.33495 6.71196 3.05687L4.07495 0.208562Z" fill="#636A74"/>
</svg>
