<svg width="20" height="20" viewBox="0 0 20 20" fill="none" xmlns="http://www.w3.org/2000/svg">
<path d="M9.99926 16.8751L9.54926 16.4251C9.33676 16.1876 4.11801 10.9564 4.22426 6.25013C4.23234 5.49444 4.40025 4.74903 4.71694 4.06286C5.03364 3.37669 5.49195 2.7653 6.06176 2.26888C6.73185 1.63644 7.5394 1.16791 8.42102 0.900061C9.30265 0.632213 10.2344 0.572335 11.143 0.725127C12.4494 0.992698 13.6236 1.70275 14.4673 2.73547C15.311 3.76818 15.7726 5.06033 15.7743 6.39388C15.7743 10.7189 10.668 16.1626 10.4555 16.3939L9.99926 16.8751ZM10.118 1.87513C8.91124 1.90019 7.75618 2.36978 6.87426 3.19388C6.43849 3.5757 6.08846 4.04543 5.84717 4.57217C5.60588 5.09892 5.47879 5.67076 5.47426 6.25013C5.39301 9.70013 8.74926 13.6876 9.99926 15.0439C11.218 13.6439 14.5368 9.53138 14.5368 6.39388C14.5353 5.34937 14.1741 4.33724 13.5139 3.52787C12.8536 2.71851 11.9347 2.16133 10.9118 1.95013C10.6545 1.899 10.3928 1.87388 10.1305 1.87513H10.118Z" fill="#113A75"/>
<path d="M10 8.84375C9.50555 8.84375 9.0222 8.69713 8.61108 8.42243C8.19995 8.14772 7.87952 7.75727 7.6903 7.30046C7.50108 6.84364 7.45157 6.34098 7.54804 5.85602C7.6445 5.37107 7.8826 4.92562 8.23223 4.57598C8.58187 4.22635 9.02732 3.98825 9.51228 3.89179C9.99723 3.79532 10.4999 3.84483 10.9567 4.03405C11.4135 4.22327 11.804 4.5437 12.0787 4.95483C12.3534 5.36595 12.5 5.8493 12.5 6.34375C12.5 7.00679 12.2366 7.64268 11.7678 8.11152C11.2989 8.58036 10.663 8.84375 10 8.84375ZM10 5.09375C9.75277 5.09375 9.5111 5.16706 9.30554 5.30441C9.09998 5.44177 8.93976 5.63699 8.84515 5.8654C8.75054 6.0938 8.72579 6.34514 8.77402 6.58761C8.82225 6.83009 8.9413 7.05282 9.11612 7.22763C9.29093 7.40245 9.51366 7.5215 9.75614 7.56973C9.99861 7.61796 10.2499 7.59321 10.4784 7.4986C10.7068 7.40399 10.902 7.24378 11.0393 7.03821C11.1767 6.83265 11.25 6.59098 11.25 6.34375C11.25 6.01223 11.1183 5.69429 10.8839 5.45987C10.6495 5.22545 10.3315 5.09375 10 5.09375Z" fill="#113A75"/>
<path d="M18.9621 19.375H1.03711L3.28711 11.875H7.17461V13.125H4.21211L2.71211 18.125H17.2871L15.7871 13.125H12.6059V11.875H16.7121L18.9621 19.375Z" fill="#113A75"/>
</svg>
