<svg width="24" height="24" viewBox="0 0 24 24" fill="none" xmlns="http://www.w3.org/2000/svg">
<g clip-path="url(#clip0_216_1690)">
<path d="M14.4242 21.8594C14.2263 21.9087 14.0245 21.9525 13.8242 21.9894C13.3007 22.0868 12.9546 22.5903 13.0514 23.1143C13.0992 23.3721 13.2456 23.5868 13.4444 23.727C13.6493 23.8712 13.91 23.9363 14.1757 23.8869C14.4142 23.8426 14.6546 23.7905 14.8905 23.7317C15.4074 23.603 15.7224 23.0793 15.5934 22.5625C15.4648 22.0453 14.9415 21.7306 14.4242 21.8594Z" fill="#113A75"/>
<path d="M21.5613 8.92779C21.6288 9.13147 21.7579 9.29774 21.9208 9.41264C22.1625 9.58283 22.4787 9.6401 22.7804 9.54032C23.2863 9.37234 23.5604 8.82682 23.3931 8.32118C23.3168 8.09068 23.2322 7.85945 23.1421 7.63431C22.9442 7.13955 22.383 6.89867 21.888 7.09658C21.3935 7.29437 21.1525 7.85573 21.3506 8.35064C21.4263 8.53988 21.4972 8.73412 21.5613 8.92779Z" fill="#113A75"/>
<path d="M17.5604 20.4818C17.3902 20.5942 17.2145 20.7029 17.0375 20.8048C16.5759 21.0711 16.4177 21.6613 16.6839 22.1227C16.7562 22.2483 16.8525 22.3509 16.9634 22.4293C17.261 22.6387 17.6652 22.6701 18.0017 22.4762C18.2121 22.3548 18.4213 22.2258 18.624 22.0917C19.0684 21.7981 19.1907 21.1995 18.897 20.7549C18.6033 20.3102 18.0049 20.188 17.5604 20.4818Z" fill="#113A75"/>
<path d="M23.9902 11.6218C23.9692 11.0893 23.521 10.6748 22.9886 10.6956C22.4569 10.7166 22.0424 11.1653 22.0633 11.6976C22.0712 11.9011 22.0733 12.1077 22.0686 12.311C22.0611 12.6449 22.2244 12.9426 22.4781 13.1215C22.6292 13.228 22.8126 13.2924 23.0114 13.297C23.5436 13.3088 23.9847 12.8864 23.9965 12.3536C24.0018 12.1107 23.9998 11.8646 23.9902 11.6218Z" fill="#113A75"/>
<path d="M21.402 17.9438C20.975 17.6234 20.3709 17.7104 20.0511 18.1367C19.9286 18.2999 19.7996 18.4611 19.6675 18.6164C19.3224 19.0219 19.3712 19.6309 19.7767 19.9763C19.7998 19.9959 19.8231 20.014 19.8474 20.0309C20.2505 20.3151 20.8108 20.2498 21.1367 19.8673C21.2945 19.6821 21.4482 19.4895 21.5946 19.2945C21.9144 18.8683 21.8279 18.2637 21.402 17.9438Z" fill="#113A75"/>
<path d="M22.8218 14.4561C22.3134 14.2966 21.7719 14.5797 21.6126 15.0881C21.5516 15.2823 21.484 15.4775 21.4111 15.6686C21.2509 16.0894 21.4044 16.5524 21.7562 16.8005C21.8208 16.8458 21.8919 16.8843 21.9691 16.9135C22.4669 17.1034 23.0243 16.8537 23.2141 16.3557C23.3007 16.1284 23.3811 15.8962 23.4538 15.6653C23.6129 15.1568 23.3301 14.6155 22.8218 14.4561Z" fill="#113A75"/>
<path d="M10.2149 21.9982C9.35229 21.8434 8.52483 21.5796 7.74019 21.2118C7.7309 21.2069 7.72259 21.2014 7.71284 21.197C7.52794 21.1099 7.34335 21.0167 7.16443 20.9193C7.16382 20.9186 7.16268 20.9181 7.1617 20.9177C6.83343 20.7369 6.51305 20.5369 6.2018 20.3178C1.66326 17.1207 0.572018 10.8273 3.7693 6.28881C4.46454 5.30229 5.30588 4.47926 6.24385 3.82695C6.25541 3.8189 6.26696 3.8109 6.27842 3.8028C9.58368 1.52538 14.0717 1.3719 17.5814 3.71216L16.8276 4.80129C16.618 5.10444 16.7469 5.32535 17.1138 5.29233L20.3881 4.99919C20.7554 4.96618 20.9751 4.64843 20.8763 4.29369L19.9971 1.12571C19.8986 0.77056 19.6466 0.728049 19.4368 1.03114L18.6813 2.12286C16.1057 0.393896 13.0165 -0.265381 9.95028 0.266313C9.64146 0.319761 9.33697 0.385178 9.03666 0.461325C9.03434 0.461738 9.03248 0.461996 9.03063 0.462409C9.01902 0.465246 9.00725 0.469012 8.99596 0.472159C6.35193 1.15114 4.04505 2.69324 2.39895 4.89348C2.38507 4.90994 2.37078 4.92604 2.35768 4.94394C2.30294 5.01766 2.24861 5.09309 2.19542 5.16851C2.10844 5.29213 2.0227 5.41883 1.94067 5.54554C1.9304 5.56081 1.92256 5.57634 1.91358 5.59176C0.5552 7.69672 -0.100002 10.1303 0.0123622 12.6077C0.0126202 12.6159 0.0121558 12.6241 0.0123622 12.6325C0.0232478 12.8745 0.0424396 13.1198 0.0684929 13.3614C0.0698858 13.377 0.0733424 13.3917 0.0759736 13.4073C0.102904 13.6502 0.136696 13.8936 0.179052 14.137C0.609525 16.6205 1.78105 18.8553 3.53652 20.5941C3.5406 20.5982 3.54483 20.6027 3.54896 20.6069C3.5504 20.6085 3.552 20.6093 3.55339 20.6108C4.02504 21.076 4.53805 21.5063 5.09044 21.8953C6.53601 22.9139 8.14569 23.5872 9.87439 23.8974C10.3989 23.9917 10.9 23.6425 10.9941 23.1183C11.0881 22.5936 10.7393 22.0922 10.2149 21.9982Z" fill="#113A75"/>
<path d="M11.4098 4.29199C10.9784 4.29199 10.6289 4.64178 10.6289 5.07261V12.8498L17.7417 16.5267C17.8562 16.586 17.9788 16.6139 18.0994 16.6139C18.3819 16.6139 18.6548 16.46 18.7935 16.1916C18.9913 15.8085 18.8416 15.3378 18.4585 15.14L12.1899 11.8991V5.07261C12.1898 4.64178 11.8408 4.29199 11.4098 4.29199Z" fill="#113A75"/>
</g>
<defs>
<clipPath id="clip0_216_1690">
<rect width="24" height="24" fill="white"/>
</clipPath>
</defs>
</svg>
