<svg width="20" height="20" viewBox="0 0 20 20" fill="none" xmlns="http://www.w3.org/2000/svg">
<g clip-path="url(#clip0_232_246)">
<path d="M15.832 19.1667H4.16536C3.28131 19.1667 2.43346 18.8155 1.80834 18.1904C1.18322 17.5652 0.832031 16.7174 0.832031 15.8333V5.83333C0.832031 4.94928 1.18322 4.10143 1.80834 3.47631C2.43346 2.85119 3.28131 2.5 4.16536 2.5H15.832C16.7161 2.5 17.5639 2.85119 18.1891 3.47631C18.8142 4.10143 19.1654 4.94928 19.1654 5.83333V15.8333C19.1654 16.7174 18.8142 17.5652 18.1891 18.1904C17.5639 18.8155 16.7161 19.1667 15.832 19.1667ZM4.16536 4.16667C3.72334 4.16667 3.29941 4.34226 2.98685 4.65482C2.67429 4.96738 2.4987 5.39131 2.4987 5.83333V15.8333C2.4987 16.2754 2.67429 16.6993 2.98685 17.0118C3.29941 17.3244 3.72334 17.5 4.16536 17.5H15.832C16.2741 17.5 16.698 17.3244 17.0105 17.0118C17.3231 16.6993 17.4987 16.2754 17.4987 15.8333V5.83333C17.4987 5.39131 17.3231 4.96738 17.0105 4.65482C16.698 4.34226 16.2741 4.16667 15.832 4.16667H4.16536Z" fill="#113A75"/>
<path d="M6.66667 1.66683C6.66667 1.20659 6.29357 0.833496 5.83333 0.833496C5.3731 0.833496 5 1.20659 5 1.66683V5.00016C5 5.4604 5.3731 5.8335 5.83333 5.8335C6.29357 5.8335 6.66667 5.4604 6.66667 5.00016V1.66683Z" fill="#113A75"/>
<path d="M14.9987 1.66683C14.9987 1.20659 14.6256 0.833496 14.1654 0.833496C13.7051 0.833496 13.332 1.20659 13.332 1.66683V5.00016C13.332 5.4604 13.7051 5.8335 14.1654 5.8335C14.6256 5.8335 14.9987 5.4604 14.9987 5.00016V1.66683Z" fill="#113A75"/>
<path d="M14.9974 7.5H4.9974C4.53716 7.5 4.16406 7.8731 4.16406 8.33333C4.16406 8.79357 4.53716 9.16667 4.9974 9.16667H14.9974C15.4576 9.16667 15.8307 8.79357 15.8307 8.33333C15.8307 7.8731 15.4576 7.5 14.9974 7.5Z" fill="#113A75"/>
</g>
<defs>
<clipPath id="clip0_232_246">
<rect width="20" height="20" fill="white"/>
</clipPath>
</defs>
</svg>
