<svg width="20" height="20" viewBox="0 0 20 20" fill="none" xmlns="http://www.w3.org/2000/svg">
<g clip-path="url(#clip0_232_257)">
<path d="M10 10.9375C9.25832 10.9375 8.5333 10.7176 7.91661 10.3055C7.29993 9.89346 6.81928 9.30779 6.53545 8.62256C6.25162 7.93734 6.17736 7.18334 6.32206 6.45591C6.46675 5.72848 6.8239 5.0603 7.34835 4.53585C7.8728 4.0114 8.54098 3.65425 9.26841 3.50956C9.99584 3.36486 10.7498 3.43912 11.4351 3.72295C12.1203 4.00678 12.706 4.48743 13.118 5.10411C13.5301 5.7208 13.75 6.44582 13.75 7.1875C13.75 8.18206 13.3549 9.13589 12.6517 9.83915C11.9484 10.5424 10.9946 10.9375 10 10.9375ZM10 4.6875C9.50555 4.6875 9.0222 4.83412 8.61108 5.10883C8.19995 5.38353 7.87952 5.77398 7.6903 6.23079C7.50108 6.68761 7.45158 7.19027 7.54804 7.67523C7.6445 8.16018 7.8826 8.60564 8.23223 8.95527C8.58187 9.3049 9.02732 9.543 9.51228 9.63947C9.99723 9.73593 10.4999 9.68642 10.9567 9.4972C11.4135 9.30798 11.804 8.98755 12.0787 8.57643C12.3534 8.1653 12.5 7.68195 12.5 7.1875C12.5 6.52446 12.2366 5.88858 11.7678 5.41973C11.2989 4.95089 10.663 4.6875 10 4.6875Z" fill="#113A75"/>
<path d="M9.99844 19.6876C8.61196 19.6859 7.24312 19.3767 5.99053 18.7823C4.73794 18.1879 3.63279 17.3231 2.75469 16.2501L2.42969 15.8501L2.75469 15.4564C3.63413 14.3859 4.73989 13.5237 5.9924 12.9317C7.24492 12.3397 8.61307 12.0327 9.99844 12.0327C11.3838 12.0327 12.752 12.3397 14.0045 12.9317C15.257 13.5237 16.3627 14.3859 17.2422 15.4564L17.5672 15.8501L17.2422 16.2501C16.3641 17.3231 15.2589 18.1879 14.0063 18.7823C12.7538 19.3767 11.3849 19.6859 9.99844 19.6876ZM4.06719 15.8626C4.82734 16.6764 5.74664 17.3252 6.76804 17.7688C7.78944 18.2124 8.89112 18.4413 10.0047 18.4413C11.1183 18.4413 12.2199 18.2124 13.2413 17.7688C14.2627 17.3252 15.182 16.6764 15.9422 15.8626C15.182 15.0488 14.2627 14.4 13.2413 13.9564C12.2199 13.5128 11.1183 13.2839 10.0047 13.2839C8.89112 13.2839 7.78944 13.5128 6.76804 13.9564C5.74664 14.4 4.82734 15.0488 4.06719 15.8626Z" fill="#113A75"/>
<path d="M9.99966 19.6875C7.87026 19.6901 5.80341 18.9677 4.13926 17.6391C2.47511 16.3106 1.31282 14.4551 0.843664 12.378C0.374506 10.301 0.626435 8.12604 1.55799 6.21121C2.48955 4.29637 4.04523 2.75572 5.96901 1.8428C7.8928 0.929869 10.0701 0.699064 12.1425 1.18836C14.2149 1.67766 16.059 2.85791 17.3713 4.53487C18.6837 6.21184 19.386 8.2856 19.3627 10.4149C19.3395 12.5442 18.592 14.6021 17.2434 16.25C16.3653 17.323 15.2602 18.1878 14.0076 18.7822C12.755 19.3766 11.3861 19.6858 9.99966 19.6875ZM9.99966 2.1875C8.39269 2.1875 6.8218 2.66402 5.48565 3.55681C4.14951 4.4496 3.1081 5.71855 2.49314 7.2032C1.87818 8.68785 1.71728 10.3215 2.03078 11.8976C2.34429 13.4737 3.11812 14.9214 4.25442 16.0577C5.39072 17.194 6.83846 17.9679 8.41455 18.2814C9.99065 18.5949 11.6243 18.434 13.109 17.819C14.5936 17.2041 15.8626 16.1627 16.7554 14.8265C17.6481 13.4904 18.1247 11.9195 18.1247 10.3125C18.1247 8.15762 17.2686 6.09099 15.7449 4.56726C14.2212 3.04353 12.1545 2.1875 9.99966 2.1875Z" fill="#113A75"/>
<path d="M11.2109 16.4873C11.5561 16.4873 11.8359 16.2075 11.8359 15.8623C11.8359 15.5171 11.5561 15.2373 11.2109 15.2373C10.8658 15.2373 10.5859 15.5171 10.5859 15.8623C10.5859 16.2075 10.8658 16.4873 11.2109 16.4873Z" fill="#113A75"/>
<path d="M8.78711 16.4873C9.13229 16.4873 9.41211 16.2075 9.41211 15.8623C9.41211 15.5171 9.13229 15.2373 8.78711 15.2373C8.44193 15.2373 8.16211 15.5171 8.16211 15.8623C8.16211 16.2075 8.44193 16.4873 8.78711 16.4873Z" fill="#113A75"/>
</g>
<defs>
<clipPath id="clip0_232_257">
<rect width="20" height="20" fill="white"/>
</clipPath>
</defs>
</svg>
