<svg width="18" height="16" viewBox="0 0 18 16" fill="none" xmlns="http://www.w3.org/2000/svg">
<path fill-rule="evenodd" clip-rule="evenodd" d="M15.3754 5.98444L2.98072 11.9345L2.4707 10.8721L14.8654 4.92202L15.3754 5.98444Z" fill="#113A75"/>
<path fill-rule="evenodd" clip-rule="evenodd" d="M14.3379 5.17699C11.8395 6.37637 10.8526 9.55361 11.9773 11.8965L12.2323 12.4277L13.2947 11.9177L13.0397 11.3865C12.1858 9.60767 12.9587 7.14635 14.8479 6.23942L15.3789 5.98455L14.8689 4.92212L14.3379 5.17699Z" fill="#113A75"/>
<path fill-rule="evenodd" clip-rule="evenodd" d="M14.8466 6.23661C12.3482 7.43599 9.25179 6.21887 8.12708 3.87594L7.87207 3.34473L8.93449 2.83471L9.1895 3.36593C10.0435 5.14483 12.4473 6.08112 14.3366 5.17418L14.8675 4.91931L15.3776 5.98174L14.8466 6.23661Z" fill="#113A75"/>
</svg>
