<svg width="24" height="24" viewBox="0 0 24 24" fill="none" xmlns="http://www.w3.org/2000/svg">
<path d="M10.999 2C15.967 2 19.999 6.032 19.999 11C19.999 15.968 15.967 20 10.999 20C6.03102 20 1.99902 15.968 1.99902 11C1.99902 6.032 6.03102 2 10.999 2ZM10.999 18C14.8665 18 17.999 14.8675 17.999 11C17.999 7.1325 14.8665 4 10.999 4C7.13152 4 3.99902 7.1325 3.99902 11C3.99902 14.8675 7.13152 18 10.999 18ZM19.4843 18.0711L22.3127 20.8995L20.8985 22.3137L18.0701 19.4853L19.4843 18.0711Z" fill="#113A75"/>
</svg>
