<svg width="18" height="18" viewBox="0 0 18 18" fill="none" xmlns="http://www.w3.org/2000/svg">
<path d="M13.5242 12.4626L16.7363 15.6746L15.6756 16.7353L12.4636 13.5233C11.3087 14.4473 9.84398 15 8.25098 15C4.52498 15 1.50098 11.976 1.50098 8.25C1.50098 4.524 4.52498 1.5 8.25098 1.5C11.977 1.5 15.001 4.524 15.001 8.25C15.001 9.843 14.4482 11.3077 13.5242 12.4626ZM12.0195 11.9061C12.9366 10.9609 13.501 9.6717 13.501 8.25C13.501 5.34937 11.1516 3 8.25098 3C5.35035 3 3.00098 5.34937 3.00098 8.25C3.00098 11.1506 5.35035 13.5 8.25098 13.5C9.67268 13.5 10.9619 12.9356 11.9071 12.0185L12.0195 11.9061Z" fill="white"/>
</svg>
