<svg width="23" height="21" viewBox="0 0 23 21" fill="none" xmlns="http://www.w3.org/2000/svg">
<path fill-rule="evenodd" clip-rule="evenodd" d="M19.0896 6.60961L4.35177 16.0455L3.54297 14.7822L18.2808 5.34634L19.0896 6.60961Z" fill="#005362"/>
<path fill-rule="evenodd" clip-rule="evenodd" d="M17.6493 5.75075C14.6785 7.65278 13.9236 11.8195 15.7073 14.6054L16.1117 15.237L17.3749 14.4282L16.9705 13.7966C15.6163 11.6815 16.2117 8.45228 18.4581 7.01401L19.0894 6.60983L18.2806 5.34656L17.6493 5.75075Z" fill="#005362"/>
<path fill-rule="evenodd" clip-rule="evenodd" d="M18.4583 7.01417C15.4875 8.91621 11.3873 7.85791 9.60362 5.07206L9.19922 4.44043L10.4625 3.63163L10.8669 4.26326C12.2211 6.37845 15.4031 7.18918 17.6495 5.75091L18.2808 5.34672L19.0896 6.60999L18.4583 7.01417Z" fill="#005362"/>
</svg>
