<svg width="25" height="25" viewBox="0 0 25 25" fill="none" xmlns="http://www.w3.org/2000/svg">
<path d="M12.5066 22.6573C8.64413 22.6577 5.08241 20.4444 3.37655 16.9608C1.65038 13.4346 2.17304 9.03698 4.67772 6.01783C7.17968 3.00182 11.2473 1.6858 15.0394 2.6651C15.457 2.77291 15.7082 3.19908 15.6008 3.61705C15.493 4.03502 15.0664 4.2858 14.6488 4.17838C11.441 3.34987 7.99803 4.46315 5.88046 7.01588C3.76171 9.57018 3.31952 13.2909 4.78007 16.2745C6.23514 19.2464 9.44491 21.1823 12.7394 21.0924C16.0336 21.0026 19.023 18.9991 20.3555 15.9885C21.1379 14.2206 21.3035 12.2186 20.8211 10.351C20.7133 9.93346 20.9644 9.50729 21.3824 9.39909C21.7992 9.29088 22.2262 9.54244 22.3344 9.96041C22.9039 12.1671 22.709 14.5327 21.7848 16.621C20.2098 20.1796 16.6758 22.5479 12.7824 22.6542C12.6902 22.6561 12.598 22.6573 12.5066 22.6573Z" fill="#113A75"/>
<path d="M12.4999 14.9374C12.2999 14.9374 12.0999 14.8612 11.9476 14.7085C11.6425 14.4034 11.6425 13.9089 11.9476 13.6038L21.3226 4.22881C21.6272 3.92373 22.1226 3.92373 22.4272 4.22881C22.7323 4.53389 22.7323 5.02842 22.4272 5.3335L13.0522 14.7085C12.8999 14.8608 12.6999 14.9374 12.4999 14.9374Z" fill="#113A75"/>
<path d="M12.5019 14.9374C12.3019 14.9374 12.1019 14.8612 11.9495 14.7085L8.63506 11.394C8.32998 11.089 8.32998 10.5944 8.63506 10.2894C8.93975 9.98428 9.43506 9.98428 9.73975 10.2894L13.0542 13.6038C13.3593 13.9089 13.3593 14.4034 13.0542 14.7085C12.9019 14.8608 12.7019 14.9374 12.5019 14.9374Z" fill="#113A75"/>
</svg>
