<svg width="85" height="85" viewBox="0 0 85 85" fill="none" xmlns="http://www.w3.org/2000/svg">
<path d="M17.5263 51.1089C15.7818 55.5109 13.0244 59.8688 9.33188 64.0633C8.15681 65.3979 8.00764 67.3032 8.96094 68.8038C9.69505 69.9582 10.9298 70.6158 12.2372 70.6158C12.6055 70.6158 12.9804 70.5639 13.35 70.4562C21.1761 68.1696 39.4313 60.0478 39.9216 34.0871C40.1109 24.0626 32.779 15.4506 23.2318 14.4804C17.9699 13.9538 12.7054 15.6633 8.80401 19.1898C4.89746 22.7202 2.65625 27.7604 2.65625 33.0197C2.65625 41.7939 8.88441 49.4669 17.5263 51.1089ZM12.3656 23.1314C14.8467 20.8889 17.9699 19.6943 21.2811 19.6943C21.7494 19.6943 22.2214 19.7177 22.6949 19.7669C29.5132 20.4582 34.7466 26.7046 34.6091 33.9859C34.2706 51.9494 24.5444 60.0361 16.49 63.6535C19.0386 60.206 21.0412 56.6601 22.4653 53.0661C23.0204 51.6666 22.9283 50.1024 22.2137 48.7743C21.4653 47.3813 20.1307 46.393 18.5548 46.0623C12.42 44.7796 7.96875 39.2933 7.96875 33.0197C7.96875 29.261 9.57182 25.6567 12.3656 23.1314Z" fill="#113A75"/>
<path d="M51.3812 68.8035C52.1153 69.9578 53.35 70.6154 54.6574 70.6154C55.0257 70.6154 55.3993 70.5635 55.7702 70.4559C63.5963 68.1693 81.8502 60.0475 82.3405 34.0868C82.5272 24.0623 75.1966 15.4502 65.6481 14.4801C60.3797 13.9444 55.1243 15.6616 51.2229 19.1895C47.3164 22.7199 45.0752 27.76 45.0752 33.0193C45.0752 41.7935 51.3034 49.4665 59.944 51.1086C58.1982 55.5145 55.4408 59.8724 51.7495 64.0643C50.5744 65.4002 50.4266 67.3042 51.3812 68.8035ZM64.8829 53.0683C65.438 51.6688 65.3472 50.1047 64.6338 48.7766C63.8842 47.3823 62.5509 46.394 60.9737 46.062C54.8389 44.7792 50.3876 39.2929 50.3876 33.0193C50.3876 29.2593 51.9907 25.6563 54.7844 23.131C57.2643 20.8885 60.3875 19.694 63.7 19.694C64.1669 19.694 64.6391 19.7173 65.1138 19.7666C71.9308 20.4579 77.1654 26.7042 77.028 33.9856C76.6907 51.9503 66.9633 60.0358 58.9089 63.6531C61.4562 60.2083 63.4562 56.6623 64.8829 53.0683Z" fill="#113A75"/>
</svg>
